{"glyphs":{"0":{"ha":558,"x_min":33,"x_max":521,"o":"m 278 0 q 87 53 140 0 q 33 231 33 106 l 33 676 q 87 853 33 800 q 278 907 140 907 q 468 853 415 907 q 521 676 521 800 l 521 275 q 506 124 521 185 q 440 31 492 63 q 278 0 389 0 m 281 150 q 341 165 324 150 q 362 209 358 181 q 365 275 365 238 l 365 676 q 360 734 365 717 q 338 755 356 751 q 278 758 319 758 q 217 752 236 758 q 192 728 197 746 q 188 676 188 711 l 190 268 q 206 174 190 199 q 281 150 221 150 z "},"1":{"ha":321,"x_min":28,"x_max":276,"o":"m 121 0 l 121 758 l 28 758 l 28 906 l 276 906 l 276 0 l 121 0 z "},"2":{"ha":560,"x_min":33,"x_max":522,"o":"m 33 0 l 36 93 l 36 136 l 35 176 l 33 215 l 33 251 q 49 383 33 326 q 117 473 65 440 q 279 506 169 506 q 341 519 322 506 q 365 550 360 532 q 369 583 369 568 l 368 608 l 368 621 l 367 632 q 350 733 367 707 q 279 760 333 760 q 208 747 225 760 q 190 685 190 733 l 190 671 l 33 671 q 88 852 33 797 q 279 907 142 907 q 425 883 372 907 q 500 808 478 858 q 522 678 522 758 l 522 646 q 518 531 522 583 q 492 439 514 478 q 420 378 471 400 q 276 357 369 357 q 250 356 268 357 q 216 347 232 354 q 196 324 200 340 q 192 266 193 308 q 190 190 190 224 l 190 149 l 522 149 l 522 0 l 33 0 z "},"3":{"ha":539,"x_min":21,"x_max":511,"o":"m 265 0 q 75 56 129 0 q 21 239 21 111 l 178 239 q 194 164 178 181 q 258 147 211 147 q 328 161 308 147 q 352 199 349 175 q 356 251 356 222 l 356 275 q 347 360 356 335 q 315 392 339 385 q 288 399 300 397 q 268 403 276 401 l 240 403 l 204 401 l 165 401 l 165 550 l 226 550 l 242 549 l 261 550 q 328 571 310 553 q 351 616 347 589 q 354 671 354 643 q 349 726 354 707 q 326 751 344 744 q 265 760 307 758 q 206 755 225 760 q 183 732 188 750 q 178 671 178 714 l 21 671 q 75 852 21 797 q 265 907 129 907 q 399 889 350 907 q 472 836 449 871 q 503 751 496 801 q 510 633 510 700 q 497 550 510 592 q 453 476 485 508 q 504 383 497 433 q 511 275 511 332 q 504 157 511 208 q 474 71 497 106 q 401 18 450 36 q 265 0 351 0 z "},"4":{"ha":563,"x_min":25,"x_max":536,"o":"m 310 0 l 310 268 l 25 268 l 25 365 l 26 411 l 313 907 l 467 907 l 467 415 l 536 415 l 536 268 l 467 268 l 467 0 l 310 0 m 204 415 l 310 415 l 310 594 l 258 506 l 204 415 z "},"5":{"ha":557,"x_min":36,"x_max":525,"o":"m 281 0 q 90 55 144 0 q 36 238 36 110 l 192 238 q 193 219 192 235 q 201 188 194 204 q 224 164 208 171 l 224 165 q 250 156 235 160 q 282 153 265 153 q 321 159 301 153 q 351 182 340 165 q 370 244 368 206 q 372 308 372 282 l 372 319 q 367 396 372 371 q 338 430 363 421 q 254 439 313 439 l 36 439 l 36 907 l 525 907 l 525 758 l 192 758 l 192 586 l 293 586 q 430 567 382 586 q 498 512 478 547 q 522 428 518 476 q 525 321 525 379 l 525 275 q 518 157 525 208 q 488 71 511 106 q 415 18 464 36 q 281 0 365 0 z "},"6":{"ha":561,"x_min":40,"x_max":529,"o":"m 285 0 q 153 18 201 0 q 80 69 104 36 q 48 147 56 103 q 40 246 40 192 l 40 642 q 47 750 40 701 q 76 834 53 799 q 149 888 99 869 q 285 907 199 907 q 475 853 421 907 q 529 671 529 799 l 369 671 q 372 691 369 675 q 373 726 375 707 q 356 753 371 744 q 348 756 354 754 q 331 758 342 757 l 283 760 q 231 756 256 760 q 203 746 207 753 l 204 746 q 197 701 199 735 q 194 631 194 667 l 196 593 l 196 542 q 240 547 217 546 q 285 549 263 549 q 427 527 376 549 q 499 467 478 506 q 525 375 521 428 q 529 260 529 322 l 529 231 q 476 53 529 106 q 285 0 422 0 m 283 151 q 349 160 331 151 q 369 192 367 169 q 372 257 372 215 l 372 296 q 360 384 372 364 q 299 404 347 404 l 285 404 q 223 392 242 403 q 201 356 204 381 q 197 289 197 332 l 197 269 q 202 191 197 217 q 225 158 207 165 q 283 151 243 151 z "},"7":{"ha":500,"x_min":25,"x_max":479,"o":"m 74 0 l 311 760 l 25 760 l 25 907 l 468 907 l 475 901 q 479 864 479 888 q 465 757 479 831 q 418 564 451 683 q 348 335 383 443 q 278 124 313 228 l 278 125 l 258 63 l 238 0 l 74 0 z "},"8":{"ha":556,"x_min":29,"x_max":518,"o":"m 275 0 q 129 23 183 0 q 52 97 75 46 q 29 231 29 147 l 29 318 q 42 403 29 361 q 88 476 54 446 q 37 569 44 517 q 29 676 29 621 q 83 853 29 799 q 275 907 136 907 q 408 890 358 907 q 481 838 457 872 q 511 751 504 803 q 518 632 518 700 q 506 549 518 590 q 461 476 493 508 q 512 379 506 432 q 518 275 518 326 q 511 156 518 207 q 481 69 504 104 q 408 17 457 35 q 275 0 358 0 m 275 554 q 327 565 303 554 q 357 594 351 575 q 364 639 364 619 l 363 682 l 363 701 l 361 719 q 333 751 361 740 q 272 761 304 761 q 220 753 244 761 q 188 729 196 746 q 185 699 186 718 q 185 658 185 679 q 188 610 185 633 q 200 578 190 588 q 275 554 224 554 m 271 154 q 334 165 306 154 q 363 197 363 176 l 363 251 q 362 297 363 271 q 359 344 361 322 q 351 369 357 365 q 318 391 339 385 q 274 397 297 397 q 228 391 250 397 q 196 369 207 385 q 188 323 189 360 q 186 251 186 286 l 186 199 q 213 165 186 175 q 271 154 239 154 z "},"9":{"ha":546,"x_min":26,"x_max":515,"o":"m 271 0 q 81 56 135 0 q 26 239 26 111 l 183 235 q 184 193 183 219 q 189 160 185 167 q 282 149 194 149 q 327 151 307 149 q 353 160 347 154 q 359 203 357 168 q 361 279 361 239 l 361 319 l 360 351 l 360 364 q 315 358 336 358 q 271 357 293 357 q 128 378 179 357 q 56 439 78 400 q 31 531 35 478 q 26 646 26 583 l 26 678 q 80 853 26 799 q 271 907 133 907 q 403 888 354 907 q 476 836 453 869 q 508 757 500 803 q 515 657 515 711 l 515 563 l 514 317 l 514 279 q 510 167 514 218 q 484 79 506 117 q 413 21 463 42 q 271 0 363 0 m 271 506 q 321 508 296 506 q 353 518 346 511 q 359 551 357 525 q 361 606 361 576 l 361 654 q 358 709 361 678 q 350 747 356 740 q 323 759 344 756 q 276 763 301 763 q 206 755 226 763 q 181 723 185 747 q 178 646 178 699 l 178 632 q 179 597 178 622 q 183 547 181 571 q 189 518 186 524 q 219 508 194 511 q 271 506 243 506 z "},"A":{"ha":514,"x_min":11,"x_max":497,"o":"m 11 0 l 11 193 q 23 441 11 322 q 76 674 35 560 q 203 901 117 788 l 303 901 q 432 673 390 789 q 485 438 474 557 q 497 193 497 318 l 497 0 l 342 0 l 342 178 l 165 178 l 165 0 l 11 0 m 165 324 l 340 324 q 314 518 335 421 q 253 700 293 615 q 190 517 211 613 q 165 324 169 421 z "},"Á":{"ha":514,"x_min":11,"x_max":497,"o":"m 203 946 q 182 947 182 946 l 193 967 l 218 1006 l 254 1061 l 389 1061 l 314 947 l 247 946 l 203 946 m 11 0 l 11 193 q 23 441 11 322 q 76 674 35 560 q 203 901 117 788 l 303 901 q 432 673 390 789 q 485 438 474 557 q 497 193 497 318 l 497 0 l 342 0 l 342 178 l 165 178 l 165 0 l 11 0 m 165 324 l 340 324 q 314 518 335 421 q 253 700 293 615 q 190 517 211 613 q 165 324 169 421 z "},"Ă":{"ha":514,"x_min":11,"x_max":497,"o":"m 136 936 l 53 1064 l 197 1064 l 256 986 l 310 1069 l 454 1069 l 374 939 l 136 936 m 11 0 l 11 193 q 23 441 11 322 q 76 674 35 560 q 203 901 117 788 l 303 901 q 432 673 390 789 q 485 438 474 557 q 497 193 497 318 l 497 0 l 342 0 l 342 178 l 165 178 l 165 0 l 11 0 m 165 324 l 340 324 q 314 518 335 421 q 253 700 293 615 q 190 517 211 613 q 165 324 169 421 z "},"Â":{"ha":514,"x_min":11,"x_max":497,"o":"m 68 943 l 151 1075 l 374 1075 l 458 944 l 314 944 l 256 1022 l 201 943 l 68 943 m 11 0 l 11 193 q 23 441 11 322 q 76 674 35 560 q 203 901 117 788 l 303 901 q 432 673 390 789 q 485 438 474 557 q 497 193 497 318 l 497 0 l 342 0 l 342 178 l 165 178 l 165 0 l 11 0 m 165 324 l 340 324 q 314 518 335 421 q 253 700 293 615 q 190 517 211 613 q 165 324 169 421 z "},"Ä":{"ha":514,"x_min":11,"x_max":497,"o":"m 315 950 q 294 951 294 950 l 294 1064 l 428 1064 l 428 951 l 361 950 l 315 950 m 103 947 q 82 949 82 947 l 82 1061 l 213 1063 l 214 949 l 147 947 l 103 947 m 11 0 l 11 193 q 23 441 11 322 q 76 674 35 560 q 203 901 117 788 l 303 901 q 432 673 390 789 q 485 438 474 557 q 497 193 497 318 l 497 0 l 342 0 l 342 178 l 165 178 l 165 0 l 11 0 m 165 324 l 340 324 q 314 518 335 421 q 253 700 293 615 q 190 517 211 613 q 165 324 169 421 z "},"À":{"ha":514,"x_min":11,"x_max":497,"o":"m 228 946 q 207 947 207 946 l 193 967 l 164 1006 l 121 1061 l 256 1061 l 339 949 l 272 947 l 228 946 m 11 0 l 11 193 q 23 441 11 322 q 76 674 35 560 q 203 901 117 788 l 303 901 q 432 673 390 789 q 485 438 474 557 q 497 193 497 318 l 497 0 l 342 0 l 342 178 l 165 178 l 165 0 l 11 0 m 165 324 l 340 324 q 314 518 335 421 q 253 700 293 615 q 190 517 211 613 q 165 324 169 421 z "},"Ā":{"ha":514,"x_min":11,"x_max":497,"o":"m 158 950 l 126 951 l 114 951 l 114 1064 l 399 1064 l 397 951 l 158 950 m 11 0 l 11 193 q 23 441 11 322 q 76 674 35 560 q 203 901 117 788 l 303 901 q 432 673 390 789 q 485 438 474 557 q 497 193 497 318 l 497 0 l 342 0 l 342 178 l 165 178 l 165 0 l 11 0 m 165 324 l 340 324 q 314 518 335 421 q 253 700 293 615 q 190 517 211 613 q 165 324 169 421 z "},"Ą":{"ha":514,"x_min":13,"x_max":517,"o":"m 456 -187 q 420 -186 443 -187 q 369 -157 397 -185 q 347 -120 354 -142 q 339 -79 339 -99 q 356 -28 339 -49 q 397 0 371 -8 l 343 0 l 343 178 l 167 178 l 167 0 l 13 0 l 13 193 q 24 440 13 321 q 77 673 36 558 q 204 901 118 788 l 304 901 q 433 673 392 789 q 487 438 475 557 q 499 193 499 318 l 499 0 l 454 0 l 485 -53 l 478 -51 l 472 -51 q 442 -64 454 -51 q 431 -93 431 -79 q 449 -135 431 -117 q 493 -154 468 -154 q 504 -153 499 -154 q 517 -151 510 -153 l 508 -185 l 456 -187 m 167 324 l 342 324 q 315 517 336 417 q 254 700 293 617 q 192 517 213 613 q 167 324 171 421 z "},"Å":{"ha":515,"x_min":11,"x_max":497,"o":"m 251 932 q 177 963 207 932 q 147 1033 147 993 q 177 1108 147 1078 q 251 1139 207 1139 q 325 1108 296 1139 q 354 1033 354 1078 q 325 963 354 993 q 251 932 296 932 m 251 1003 q 273 1011 263 1003 q 283 1032 283 1019 q 273 1053 283 1044 q 251 1063 263 1063 q 227 1053 236 1063 q 218 1032 218 1044 q 251 1003 218 1003 m 11 0 l 11 193 q 23 441 11 322 q 76 674 35 560 q 203 901 117 788 l 303 901 q 432 673 390 789 q 485 438 474 557 q 497 193 497 318 l 497 0 l 342 0 l 342 178 l 165 178 l 165 0 l 11 0 m 165 324 l 340 324 q 314 518 335 421 q 253 700 293 615 q 190 517 211 613 q 165 324 169 421 z "},"Ã":{"ha":514,"x_min":11,"x_max":497,"o":"m 119 929 l 57 985 l 61 993 l 81 1015 q 124 1049 94 1033 q 203 1074 161 1074 q 279 1049 242 1074 q 346 1022 318 1022 q 357 1024 353 1022 q 403 1058 381 1029 l 407 1065 l 471 1004 l 465 997 q 372 933 422 946 q 365 932 369 932 q 358 932 361 932 l 346 932 q 235 972 296 932 q 219 980 226 976 q 203 983 211 983 q 182 980 192 983 q 164 972 172 976 l 149 960 l 119 929 m 11 0 l 11 193 q 23 441 11 322 q 76 674 35 560 q 203 901 117 788 l 303 901 q 432 673 390 789 q 485 438 474 557 q 497 193 497 318 l 497 0 l 342 0 l 342 178 l 165 178 l 165 0 l 11 0 m 165 324 l 340 324 q 314 518 335 421 q 253 700 293 615 q 190 517 211 613 q 165 324 169 421 z "},"Æ":{"ha":829,"x_min":36,"x_max":796,"o":"m 36 0 l 36 193 q 56 443 36 322 q 123 678 75 564 q 260 901 171 793 l 796 901 l 796 756 l 513 756 l 513 546 l 713 546 l 713 399 l 513 399 l 513 147 l 796 147 l 796 0 l 357 0 l 357 178 l 190 178 l 190 0 l 36 0 m 190 324 l 357 324 l 357 774 q 299 697 326 732 q 249 608 272 661 q 209 490 225 558 q 190 324 193 422 z "},"Ǽ":{"ha":829,"x_min":36,"x_max":796,"o":"m 308 946 q 288 947 288 946 l 299 967 l 324 1006 l 360 1061 l 494 1061 l 419 947 l 353 946 l 308 946 m 36 0 l 36 193 q 56 443 36 322 q 123 678 75 564 q 260 901 171 793 l 796 901 l 796 756 l 513 756 l 513 546 l 713 546 l 713 399 l 513 399 l 513 147 l 796 147 l 796 0 l 357 0 l 357 178 l 190 178 l 190 0 l 36 0 m 190 324 l 357 324 l 357 774 q 299 697 326 732 q 249 608 272 661 q 209 490 225 558 q 190 324 193 422 z "},"B":{"ha":568,"x_min":39,"x_max":526,"o":"m 140 -1 l 90 0 l 39 0 l 39 901 l 81 903 l 188 903 q 347 885 272 903 q 469 819 421 868 q 525 672 518 769 q 521 606 525 643 q 504 534 517 569 q 467 474 492 499 q 518 378 510 433 q 526 274 526 324 q 507 125 526 181 q 448 42 488 69 q 349 7 408 15 q 208 -1 289 -1 l 140 -1 m 224 544 l 247 544 q 278 545 260 544 q 324 554 296 546 q 362 590 350 561 q 374 653 374 619 q 365 706 374 682 q 342 735 357 729 l 340 736 q 279 753 318 751 q 207 754 240 754 l 194 754 l 194 546 l 210 546 l 224 544 m 231 146 q 298 151 267 146 q 346 174 329 157 q 365 217 360 189 q 369 276 369 244 q 367 321 369 299 q 363 363 365 343 q 324 393 360 386 q 251 400 288 400 l 231 400 l 211 399 l 194 399 l 197 147 l 211 147 l 231 146 z "},"C":{"ha":564,"x_min":38,"x_max":524,"o":"m 281 0 q 92 52 146 0 q 38 229 38 104 l 38 672 q 91 848 38 794 q 281 901 144 901 q 469 847 415 901 q 524 665 524 793 l 369 665 q 366 726 369 707 q 344 749 363 744 q 281 754 326 754 q 219 751 238 754 q 197 730 200 747 q 193 672 193 713 l 193 199 q 226 164 196 175 q 292 153 257 153 q 355 163 338 153 q 372 221 372 174 q 372 245 372 232 q 369 281 371 258 l 524 281 q 517 161 524 214 q 488 73 511 108 q 415 19 464 38 q 281 0 367 0 z "},"Ć":{"ha":564,"x_min":38,"x_max":524,"o":"m 215 946 q 194 947 194 946 l 206 967 l 231 1006 l 267 1061 l 401 1061 l 326 949 l 260 947 l 215 946 m 281 0 q 92 52 146 0 q 38 229 38 104 l 38 672 q 91 848 38 794 q 281 901 144 901 q 469 847 415 901 q 524 665 524 793 l 369 665 q 366 726 369 707 q 344 749 363 744 q 281 754 326 754 q 219 751 238 754 q 197 730 200 747 q 193 672 193 713 l 193 311 l 194 199 q 227 164 197 175 q 292 153 257 153 q 354 163 331 153 q 369 183 365 165 q 372 221 372 201 q 372 242 372 232 q 369 261 371 253 l 369 281 l 524 281 q 517 161 524 214 q 488 73 511 108 q 415 19 464 38 q 281 0 367 0 z "},"Č":{"ha":564,"x_min":38,"x_max":524,"o":"m 156 929 l 72 1057 l 217 1057 l 275 979 l 329 1063 l 474 1063 l 393 932 l 156 929 m 281 0 q 92 52 146 0 q 38 229 38 104 l 38 672 q 91 848 38 794 q 281 901 144 901 q 469 847 415 901 q 524 665 524 793 l 369 665 q 366 726 369 707 q 344 749 363 744 q 281 754 326 754 q 219 751 238 754 q 197 730 200 747 q 193 672 193 713 l 193 311 l 194 199 q 227 164 197 175 q 292 153 257 153 q 354 163 331 153 q 369 183 365 165 q 372 221 372 201 q 372 242 372 232 q 369 261 371 253 l 369 281 l 524 281 q 517 161 524 214 q 488 73 511 108 q 415 19 464 38 q 281 0 367 0 z "},"Ç":{"ha":564,"x_min":38,"x_max":524,"o":"m 281 0 q 92 52 146 0 q 38 229 38 104 l 38 672 q 91 848 38 794 q 281 901 144 901 q 469 847 415 901 q 524 665 524 793 l 369 665 q 366 726 369 707 q 344 749 363 744 q 281 754 326 754 q 219 751 238 754 q 197 730 200 747 q 193 672 193 713 l 193 199 q 226 164 196 175 q 292 153 257 153 q 355 163 338 153 q 372 221 372 174 q 372 245 372 232 q 369 281 371 258 l 524 281 q 517 161 524 214 q 488 73 511 108 q 415 19 464 38 q 281 0 367 0 m 254 -193 q 225 -190 240 -193 q 199 -185 210 -187 l 189 -147 q 202 -149 196 -149 q 214 -150 208 -150 q 260 -133 242 -150 q 279 -93 279 -117 q 266 -62 279 -74 q 224 -53 253 -50 l 254 0 l 313 0 q 374 -79 374 -18 q 362 -128 374 -101 q 324 -174 350 -154 q 254 -193 297 -193 z "},"Ĉ":{"ha":564,"x_min":38,"x_max":524,"o":"m 78 943 l 161 1075 l 379 1075 l 464 944 l 324 944 l 268 1022 l 211 943 l 78 943 m 281 0 q 92 52 146 0 q 38 229 38 104 l 38 672 q 91 848 38 794 q 281 901 144 901 q 469 847 415 901 q 524 665 524 793 l 369 665 q 366 726 369 707 q 344 749 363 744 q 281 754 326 754 q 219 751 238 754 q 197 730 200 747 q 193 672 193 713 l 193 311 l 194 199 q 227 164 197 175 q 292 153 257 153 q 354 163 331 153 q 369 183 365 165 q 372 221 372 201 q 372 242 372 232 q 369 261 371 253 l 369 281 l 524 281 q 517 161 524 214 q 488 73 511 108 q 415 19 464 38 q 281 0 367 0 z "},"Ċ":{"ha":564,"x_min":38,"x_max":524,"o":"m 278 943 q 218 961 236 943 q 200 1017 200 979 q 217 1074 200 1056 q 278 1092 235 1092 q 338 1074 319 1092 q 356 1017 356 1057 q 278 943 356 943 m 281 0 q 92 52 146 0 q 38 229 38 104 l 38 672 q 91 848 38 794 q 281 901 144 901 q 469 847 415 901 q 524 665 524 793 l 369 665 q 366 726 369 707 q 344 749 363 744 q 281 754 326 754 q 219 751 238 754 q 197 730 200 747 q 193 672 193 713 l 193 311 l 194 199 q 227 164 197 175 q 292 153 257 153 q 354 163 331 153 q 369 183 365 165 q 372 221 372 201 q 372 242 372 232 q 369 261 371 253 l 369 281 l 524 281 q 517 161 524 214 q 488 73 511 108 q 415 19 464 38 q 281 0 367 0 z "},"D":{"ha":564,"x_min":39,"x_max":525,"o":"m 39 0 l 39 901 l 282 901 q 472 846 418 901 q 525 668 525 790 l 525 253 q 498 115 525 165 q 422 40 471 64 q 310 8 374 15 q 176 0 247 0 l 39 0 m 194 147 q 297 153 258 147 q 353 182 336 158 q 371 258 371 206 l 371 654 q 355 726 371 706 q 307 751 339 747 q 224 756 275 756 l 194 756 l 194 147 z "},"Ď":{"ha":564,"x_min":39,"x_max":525,"o":"m 133 938 l 50 1065 l 194 1065 l 253 988 l 307 1071 l 451 1071 l 371 940 l 133 938 m 39 0 l 39 901 l 282 901 q 472 846 418 901 q 525 668 525 790 l 525 253 q 498 115 525 165 q 422 40 471 64 q 310 8 374 15 q 176 0 247 0 l 39 0 m 194 147 q 297 153 258 147 q 353 182 336 158 q 371 258 371 206 l 371 654 q 355 726 371 706 q 307 751 339 747 q 224 756 275 756 l 194 756 l 194 147 z "},"Đ":{"ha":583,"x_min":25,"x_max":553,"o":"m 67 0 l 67 386 l 25 386 l 25 535 l 67 535 l 67 901 l 310 901 q 499 846 446 901 q 553 668 553 790 l 553 253 q 526 115 553 165 q 450 40 499 64 q 338 8 401 15 q 204 0 275 0 l 67 0 m 222 147 q 325 153 286 147 q 381 182 364 158 q 399 258 399 206 l 399 654 q 383 726 399 706 q 335 751 367 747 q 251 756 303 756 l 222 756 l 222 535 l 332 535 l 332 386 l 222 386 l 222 147 z "},"Ð":{"ha":583,"x_min":25,"x_max":553,"o":"m 67 0 l 67 386 l 25 386 l 25 535 l 67 535 l 67 901 l 310 901 q 499 846 446 901 q 553 668 553 790 l 553 253 q 526 115 553 165 q 450 40 499 64 q 338 8 401 15 q 204 0 275 0 l 67 0 m 222 147 q 325 153 286 147 q 381 182 364 158 q 399 258 399 206 l 399 654 q 383 726 399 706 q 335 751 367 747 q 251 756 303 756 l 222 756 l 222 535 l 332 535 l 332 386 l 222 386 l 222 147 z "},"E":{"ha":519,"x_min":40,"x_max":479,"o":"m 40 0 l 40 901 l 479 901 l 479 756 l 196 756 l 196 546 l 396 546 l 396 399 l 196 399 l 196 147 l 479 147 l 479 0 l 40 0 z "},"É":{"ha":519,"x_min":40,"x_max":479,"o":"m 203 946 q 182 947 182 946 l 193 967 l 218 1006 l 254 1061 l 389 1061 l 314 949 l 247 947 l 203 946 m 40 0 l 40 901 l 479 901 l 479 756 l 196 756 l 196 546 l 396 546 l 396 399 l 196 399 l 196 147 l 479 147 l 479 0 l 40 0 z "},"Ĕ":{"ha":519,"x_min":40,"x_max":479,"o":"m 264 943 q 144 976 185 943 q 101 1088 104 1010 l 192 1088 q 216 1039 197 1047 q 264 1031 235 1031 q 314 1039 294 1031 q 339 1088 333 1047 l 429 1088 q 385 976 426 1010 q 264 943 343 943 m 40 0 l 40 901 l 479 901 l 479 756 l 196 756 l 196 546 l 396 546 l 396 399 l 196 399 l 196 147 l 479 147 l 479 0 l 40 0 z "},"Ě":{"ha":519,"x_min":40,"x_max":479,"o":"m 143 942 l 60 1065 l 204 1065 l 263 988 l 317 1067 l 461 1067 l 381 943 l 143 942 m 40 0 l 40 901 l 479 901 l 479 756 l 196 756 l 196 546 l 396 546 l 396 399 l 196 399 l 196 147 l 479 147 l 479 0 l 40 0 z "},"Ê":{"ha":519,"x_min":40,"x_max":479,"o":"m 57 950 l 138 1076 l 375 1078 l 458 950 l 314 950 l 256 1025 l 201 950 l 57 950 m 40 0 l 40 901 l 479 901 l 479 756 l 196 756 l 196 546 l 396 546 l 396 399 l 196 399 l 196 147 l 479 147 l 479 0 l 40 0 z "},"Ë":{"ha":519,"x_min":40,"x_max":479,"o":"m 319 950 q 299 951 299 950 l 299 1064 l 432 1064 l 431 951 l 364 950 l 319 950 m 103 946 q 82 947 82 946 l 82 1061 l 215 1061 l 214 949 l 147 947 l 103 946 m 40 0 l 40 901 l 479 901 l 479 756 l 196 756 l 196 546 l 396 546 l 396 399 l 196 399 l 196 147 l 479 147 l 479 0 l 40 0 z "},"Ė":{"ha":519,"x_min":40,"x_max":479,"o":"m 263 943 q 203 961 221 943 q 185 1017 185 979 q 202 1074 185 1056 q 263 1092 219 1092 q 322 1074 304 1092 q 340 1017 340 1057 q 263 943 340 943 m 40 0 l 40 901 l 479 901 l 479 756 l 196 756 l 196 546 l 396 546 l 396 399 l 196 399 l 196 147 l 479 147 l 479 0 l 40 0 z "},"È":{"ha":519,"x_min":40,"x_max":479,"o":"m 228 946 q 207 947 207 946 l 193 967 l 164 1006 l 121 1061 l 256 1061 l 339 949 l 272 947 l 228 946 m 40 0 l 40 901 l 479 901 l 479 756 l 196 756 l 196 546 l 396 546 l 396 399 l 196 399 l 196 147 l 479 147 l 479 0 l 40 0 z "},"Ē":{"ha":519,"x_min":40,"x_max":479,"o":"m 158 950 l 126 951 l 114 951 l 114 1064 l 399 1064 l 397 951 l 158 950 m 40 0 l 40 901 l 479 901 l 479 756 l 196 756 l 196 546 l 396 546 l 396 399 l 196 399 l 196 147 l 479 147 l 479 0 l 40 0 z "},"Ę":{"ha":519,"x_min":43,"x_max":482,"o":"m 379 -187 q 344 -186 367 -187 q 293 -157 321 -185 q 270 -120 278 -142 q 263 -79 263 -99 q 279 -28 263 -49 q 319 0 293 -10 l 43 0 l 43 901 l 482 901 l 482 756 l 199 756 l 199 546 l 399 546 l 399 399 l 199 399 l 199 147 l 482 147 l 482 0 l 378 0 l 408 -53 l 401 -51 l 396 -51 q 365 -64 378 -51 q 354 -93 354 -79 q 372 -135 354 -117 q 417 -154 392 -154 q 428 -153 422 -154 q 440 -151 433 -153 l 432 -185 l 379 -187 z "},"F":{"ha":514,"x_min":42,"x_max":481,"o":"m 42 0 l 42 901 l 481 901 l 481 756 l 197 756 l 197 546 l 397 546 l 397 399 l 197 399 l 197 0 l 42 0 z "},"G":{"ha":558,"x_min":33,"x_max":519,"o":"m 276 0 q 88 52 142 0 q 33 229 33 104 l 33 674 q 88 849 33 797 q 276 901 142 901 q 466 847 413 901 q 519 667 519 792 l 360 667 l 357 704 q 348 745 353 735 q 319 756 343 756 l 276 756 q 208 743 228 756 q 188 674 188 731 l 188 229 q 197 175 188 192 q 229 154 207 158 q 289 147 251 150 l 296 147 q 352 178 340 147 q 364 278 364 210 l 364 356 l 236 356 l 236 503 l 519 503 l 519 340 q 513 193 519 257 q 482 87 506 129 q 409 22 458 44 q 276 0 360 0 z "},"Ğ":{"ha":558,"x_min":33,"x_max":519,"o":"m 264 943 q 144 976 185 943 q 101 1088 104 1010 l 192 1088 q 216 1039 197 1047 q 264 1031 235 1031 q 314 1039 294 1031 q 339 1088 333 1047 l 429 1088 q 385 976 426 1010 q 264 943 343 943 m 276 0 q 88 52 142 0 q 33 229 33 104 l 33 674 q 88 849 33 797 q 276 901 142 901 q 466 847 413 901 q 519 667 519 792 l 360 667 l 357 704 q 348 745 353 735 q 319 756 343 756 l 276 756 q 208 743 228 756 q 188 674 188 731 l 188 229 q 197 175 188 192 q 229 154 207 158 q 289 147 251 150 l 296 147 q 352 178 340 147 q 364 278 364 210 l 364 356 l 236 356 l 236 503 l 519 503 l 519 340 q 513 193 519 257 q 482 87 506 129 q 409 22 458 44 q 276 0 360 0 z "},"Ĝ":{"ha":558,"x_min":33,"x_max":519,"o":"m 79 944 l 160 1076 l 397 1078 l 481 950 l 336 950 l 278 1025 l 224 944 l 79 944 m 276 0 q 88 52 142 0 q 33 229 33 104 l 33 674 q 88 849 33 797 q 276 901 142 901 q 466 847 413 901 q 519 667 519 792 l 360 667 l 357 704 q 348 745 353 735 q 319 756 343 756 l 276 756 q 208 743 228 756 q 188 674 188 731 l 188 229 q 197 175 188 192 q 229 154 207 158 q 289 147 251 150 l 296 147 q 352 178 340 147 q 364 278 364 210 l 364 356 l 236 356 l 236 503 l 519 503 l 519 340 q 513 193 519 257 q 482 87 506 129 q 409 22 458 44 q 276 0 360 0 z "},"Ģ":{"ha":558,"x_min":33,"x_max":519,"o":"m 276 0 q 88 52 142 0 q 33 229 33 104 l 33 674 q 88 849 33 797 q 276 901 142 901 q 466 847 413 901 q 519 667 519 792 l 360 667 l 357 704 q 348 745 353 735 q 319 756 343 756 l 276 756 q 208 743 228 756 q 188 674 188 731 l 188 229 q 197 175 188 192 q 229 154 207 158 q 289 147 251 150 l 296 147 q 352 178 340 147 q 364 278 364 210 l 364 356 l 236 356 l 236 503 l 519 503 l 519 340 q 513 193 519 257 q 482 87 506 129 q 409 22 458 44 q 276 0 360 0 m 244 -294 l 201 -268 q 226 -225 226 -251 q 213 -174 226 -193 l 206 -162 l 206 -164 q 190 -137 196 -154 q 189 -131 189 -135 q 189 -124 189 -126 q 210 -78 189 -106 q 278 -51 231 -51 q 325 -67 304 -51 q 350 -119 346 -82 l 351 -135 q 321 -222 351 -181 q 244 -294 290 -262 z "},"Ġ":{"ha":558,"x_min":33,"x_max":519,"o":"m 278 943 q 218 961 236 943 q 200 1017 200 979 q 217 1074 200 1056 q 278 1092 235 1092 q 338 1074 319 1092 q 356 1017 356 1057 q 278 943 356 943 m 276 0 q 88 52 142 0 q 33 229 33 104 l 33 674 q 88 849 33 797 q 276 901 142 901 q 466 847 413 901 q 519 667 519 792 l 360 667 l 357 704 q 348 745 353 735 q 319 756 343 756 l 276 756 q 208 743 228 756 q 188 674 188 731 l 188 229 q 197 175 188 192 q 229 154 207 158 q 289 147 251 150 l 296 147 q 352 178 340 147 q 364 278 364 210 l 364 356 l 236 356 l 236 503 l 519 503 l 519 340 q 513 193 519 257 q 482 87 506 129 q 409 22 458 44 q 276 0 360 0 z "},"H":{"ha":574,"x_min":39,"x_max":524,"o":"m 39 0 l 39 901 l 194 901 l 194 547 l 371 547 l 371 901 l 524 901 l 524 0 l 371 0 l 371 399 l 194 399 l 194 0 l 39 0 z "},"Ħ":{"ha":638,"x_min":36,"x_max":604,"o":"m 79 0 l 79 622 l 36 622 l 36 757 l 79 757 l 79 901 l 235 901 l 235 757 l 411 757 l 411 901 l 564 901 l 564 757 l 604 757 l 604 622 l 564 622 l 564 0 l 411 0 l 411 399 l 235 399 l 235 0 l 79 0 m 235 547 l 411 547 l 411 622 l 235 622 l 235 547 z "},"Ĥ":{"ha":574,"x_min":39,"x_max":524,"o":"m 78 943 l 161 1075 l 379 1075 l 464 944 l 324 944 l 268 1022 l 211 943 l 78 943 m 39 0 l 39 901 l 194 901 l 194 547 l 371 547 l 371 901 l 524 901 l 524 0 l 371 0 l 371 399 l 194 399 l 194 0 l 39 0 z "},"I":{"ha":235,"x_min":39,"x_max":196,"o":"m 39 0 l 39 899 l 196 899 l 196 0 l 39 0 z "},"Ĳ":{"ha":624,"x_min":54,"x_max":564,"o":"m 267 0 l 267 147 q 359 153 329 147 q 399 180 389 158 q 408 251 408 201 l 408 900 l 564 900 l 564 239 q 533 88 564 139 q 436 18 501 36 q 267 0 371 0 m 54 0 l 54 899 l 211 899 l 211 0 l 54 0 z "},"Í":{"ha":235,"x_min":39,"x_max":251,"o":"m 65 946 q 44 947 44 946 l 56 967 l 81 1006 l 117 1061 l 251 1061 l 176 949 l 110 947 l 65 946 m 39 0 l 39 899 l 196 899 l 196 0 l 39 0 z "},"Ĭ":{"ha":292,"x_min":-8,"x_max":310,"o":"m 149 943 q 32 976 69 943 q -8 1088 -6 1010 l 82 1088 q 103 1039 88 1047 q 149 1031 119 1031 q 197 1039 179 1031 q 219 1088 214 1047 l 310 1088 q 267 976 307 1010 q 149 943 228 943 m 71 0 l 71 899 l 228 899 l 228 0 l 71 0 z "},"Î":{"ha":235,"x_min":-78,"x_max":324,"o":"m -78 942 l 3 1072 l 240 1075 l 324 947 l 179 947 l 121 1022 l 67 942 l -78 942 m 39 0 l 39 899 l 196 899 l 196 0 l 39 0 z "},"Ï":{"ha":235,"x_min":-50,"x_max":288,"o":"m 175 950 q 154 951 154 950 l 154 1064 l 288 1064 l 286 951 l 219 950 l 175 950 m -29 946 q -50 947 -50 946 l -50 1061 l 83 1061 l 82 949 l 15 947 l -29 946 m 39 0 l 39 899 l 196 899 l 196 0 l 39 0 z "},"İ":{"ha":235,"x_min":39,"x_max":196,"o":"m 39 0 l 39 899 l 196 899 l 196 0 l 39 0 m 53 950 l 53 1063 l 185 1063 l 185 950 l 53 950 z "},"Ì":{"ha":235,"x_min":-12,"x_max":206,"o":"m 94 946 q 74 947 74 946 l 60 967 l 31 1006 l -12 1061 l 122 1061 l 206 949 l 139 947 l 94 946 m 39 0 l 39 899 l 196 899 l 196 0 l 39 0 z "},"Ī":{"ha":300,"x_min":11,"x_max":289,"o":"m 54 950 l 24 951 l 11 951 l 11 1064 l 289 1064 l 288 951 l 149 950 l 54 950 m 69 0 l 69 899 l 226 899 l 226 0 l 69 0 z "},"Į":{"ha":235,"x_min":32,"x_max":210,"o":"m 149 -187 q 113 -186 136 -187 q 63 -157 90 -185 q 40 -120 47 -142 q 32 -79 32 -99 q 49 -28 32 -49 q 90 0 64 -8 l 40 0 l 40 899 l 197 899 l 197 0 l 147 0 l 178 -53 l 171 -51 l 165 -51 q 135 -64 147 -51 q 124 -93 124 -79 q 142 -135 124 -117 q 186 -154 161 -154 q 197 -153 192 -154 q 210 -151 203 -153 l 201 -185 l 149 -187 z "},"Ĩ":{"ha":328,"x_min":-32,"x_max":382,"o":"m 31 929 l -32 985 l -28 993 l -8 1015 q 35 1049 6 1033 q 114 1074 72 1074 q 190 1049 153 1074 q 257 1022 229 1022 q 268 1024 264 1022 q 314 1058 292 1029 l 318 1065 l 382 1004 l 376 997 q 283 933 333 946 q 276 932 281 932 q 269 932 272 932 l 257 932 q 146 972 207 932 q 130 980 138 976 q 114 983 122 983 q 93 980 103 983 q 75 972 83 976 l 60 960 l 54 954 l 31 929 m 81 0 l 81 899 l 238 899 l 238 0 l 81 0 z "},"J":{"ha":372,"x_min":24,"x_max":321,"o":"m 24 0 l 24 147 q 116 153 86 147 q 156 180 146 158 q 165 251 165 201 l 165 900 l 321 900 l 321 239 q 290 88 321 139 q 193 18 258 36 q 24 0 128 0 z "},"Ĵ":{"ha":392,"x_min":24,"x_max":418,"o":"m 47 943 l 132 1075 l 333 1075 l 418 944 l 290 944 l 232 1022 l 178 943 l 47 943 m 24 0 l 24 147 q 116 153 86 147 q 156 180 146 158 q 165 251 165 201 l 165 900 l 321 900 l 321 239 q 290 88 321 139 q 193 18 258 36 q 24 0 128 0 z "},"K":{"ha":560,"x_min":43,"x_max":531,"o":"m 43 0 l 43 901 l 199 901 l 199 553 q 288 646 253 590 q 343 767 322 701 q 376 901 364 833 l 531 901 q 494 738 518 821 q 426 582 469 656 q 314 451 383 508 q 425 322 382 394 q 493 167 468 249 q 531 0 518 85 l 376 0 q 344 129 365 63 q 288 254 322 196 q 199 350 253 313 l 199 0 l 43 0 z "},"Ķ":{"ha":560,"x_min":43,"x_max":531,"o":"m 43 0 l 43 901 l 199 901 l 199 553 q 288 646 253 590 q 343 767 322 701 q 376 901 364 833 l 531 901 q 494 738 518 821 q 426 582 469 656 q 314 451 383 508 q 425 322 382 394 q 493 167 468 249 q 531 0 518 85 l 376 0 q 344 129 365 63 q 288 254 322 196 q 199 350 253 313 l 199 0 l 43 0 m 244 -294 l 201 -268 q 226 -225 226 -251 q 213 -174 226 -193 l 206 -162 l 206 -164 q 190 -137 196 -154 q 189 -131 189 -135 q 189 -124 189 -126 q 210 -78 189 -106 q 278 -51 231 -51 q 325 -67 304 -51 q 350 -119 346 -82 l 351 -135 q 321 -222 351 -181 q 244 -294 290 -262 z "},"L":{"ha":440,"x_min":44,"x_max":426,"o":"m 44 0 l 44 901 l 201 901 l 201 147 l 426 147 l 426 0 l 44 0 z "},"Ĺ":{"ha":440,"x_min":44,"x_max":426,"o":"m 78 946 q 57 947 57 946 l 68 967 l 93 1006 l 129 1061 l 264 1061 l 189 949 l 122 947 l 78 946 m 44 0 l 44 901 l 201 901 l 201 147 l 426 147 l 426 0 l 44 0 z "},"Ľ":{"ha":440,"x_min":44,"x_max":426,"o":"m 44 0 l 44 901 l 201 901 l 201 147 l 426 147 l 426 0 l 44 0 m 293 656 l 250 682 q 275 725 275 699 q 261 776 275 757 l 254 788 l 254 786 q 239 813 244 796 q 238 819 238 815 q 238 826 238 824 q 258 872 238 844 q 326 899 279 899 q 374 883 353 899 q 399 831 394 868 l 400 815 q 369 728 400 769 q 293 656 339 688 z "},"Ļ":{"ha":440,"x_min":44,"x_max":426,"o":"m 44 0 l 44 901 l 201 901 l 201 147 l 426 147 l 426 0 l 44 0 m 213 -294 l 169 -268 q 194 -225 194 -251 q 181 -174 194 -193 l 174 -162 l 174 -164 q 158 -137 164 -154 q 157 -131 157 -135 q 157 -124 157 -126 q 178 -78 157 -106 q 246 -51 199 -51 q 293 -67 272 -51 q 318 -119 314 -82 l 319 -135 q 289 -222 319 -181 q 213 -294 258 -262 z "},"Ŀ":{"ha":440,"x_min":44,"x_max":426,"o":"m 44 0 l 44 901 l 201 901 l 201 147 l 426 147 l 426 0 l 44 0 m 339 560 q 279 578 297 560 q 261 633 261 596 q 278 690 261 672 q 339 708 296 708 q 399 691 381 708 q 417 633 417 674 q 339 560 417 560 z "},"Ł":{"ha":496,"x_min":18,"x_max":458,"o":"m 76 0 l 76 293 l 18 257 l 18 404 l 76 442 l 76 901 l 233 901 l 233 539 l 404 644 l 404 501 l 233 393 l 233 147 l 458 147 l 458 0 l 76 0 z "},"M":{"ha":763,"x_min":43,"x_max":721,"o":"m 43 0 l 43 907 l 197 907 l 381 472 l 567 907 l 721 907 l 721 0 l 565 0 l 565 504 l 436 204 l 326 204 l 199 504 l 199 0 l 43 0 z "},"N":{"ha":619,"x_min":40,"x_max":574,"o":"m 40 0 l 40 901 l 193 901 l 417 390 l 417 901 l 574 901 l 574 0 l 418 0 l 194 511 l 194 0 l 40 0 z "},"Ń":{"ha":619,"x_min":40,"x_max":574,"o":"m 233 946 q 213 947 213 946 l 224 967 l 249 1006 l 285 1061 l 419 1061 l 344 949 l 278 947 l 233 946 m 40 0 l 40 901 l 193 901 l 417 390 l 417 901 l 574 901 l 574 0 l 418 0 l 194 511 l 194 0 l 40 0 z "},"Ň":{"ha":619,"x_min":40,"x_max":574,"o":"m 179 929 l 96 1057 l 240 1057 l 299 979 l 353 1063 l 497 1063 l 417 932 l 179 929 m 40 0 l 40 901 l 193 901 l 417 390 l 417 901 l 574 901 l 574 0 l 418 0 l 194 511 l 194 0 l 40 0 z "},"Ņ":{"ha":619,"x_min":40,"x_max":574,"o":"m 40 0 l 40 901 l 193 901 l 417 390 l 417 901 l 574 901 l 574 0 l 418 0 l 194 511 l 194 0 l 40 0 m 263 -294 l 219 -268 q 244 -225 244 -251 q 231 -174 244 -193 l 224 -162 l 224 -164 q 208 -137 214 -154 q 207 -131 207 -135 q 207 -124 207 -126 q 228 -78 207 -106 q 296 -51 249 -51 q 343 -67 322 -51 q 368 -119 364 -82 l 369 -135 q 339 -222 369 -181 q 263 -294 308 -262 z "},"Ñ":{"ha":619,"x_min":40,"x_max":574,"o":"m 169 932 l 107 988 l 111 996 l 131 1018 q 174 1051 144 1036 q 253 1076 211 1076 q 329 1051 292 1076 q 396 1025 368 1025 q 407 1026 403 1025 q 453 1061 431 1032 l 457 1068 l 521 1007 l 515 1000 q 422 936 472 949 l 410 935 l 396 935 q 285 975 346 935 q 269 983 276 979 q 253 986 261 986 q 232 983 242 986 q 214 975 222 979 l 199 963 l 169 932 m 40 0 l 40 901 l 193 901 l 417 390 l 417 901 l 574 901 l 574 0 l 418 0 l 194 511 l 194 0 l 40 0 z "},"Ŋ":{"ha":619,"x_min":44,"x_max":578,"o":"m 311 -240 l 311 -114 l 318 -114 q 390 -82 365 -114 q 422 1 415 -50 l 199 511 l 199 0 l 44 0 l 44 901 l 197 901 l 421 390 l 421 901 l 578 901 l 578 0 q 536 -148 578 -96 q 444 -219 494 -200 q 332 -240 394 -240 l 311 -240 z "},"O":{"ha":558,"x_min":35,"x_max":519,"o":"m 276 0 q 88 53 142 0 q 35 229 35 107 l 35 672 q 88 849 35 796 q 276 901 142 901 q 465 849 410 901 q 519 672 519 797 l 519 274 q 513 156 519 207 q 481 69 506 104 q 408 17 457 35 q 276 0 360 0 m 279 150 q 352 180 340 150 q 364 274 364 210 l 364 672 q 359 730 364 713 q 336 751 354 747 q 276 754 318 754 q 216 748 235 754 q 192 724 197 742 q 188 672 188 707 l 190 267 q 196 194 190 219 q 221 160 201 169 q 279 150 240 150 z "},"Ó":{"ha":558,"x_min":35,"x_max":519,"o":"m 210 946 q 189 947 189 946 l 200 967 l 225 1006 l 261 1061 l 396 1061 l 321 949 l 254 947 l 210 946 m 276 0 q 88 53 142 0 q 35 229 35 107 l 35 672 q 88 849 35 796 q 276 901 142 901 q 465 849 410 901 q 519 672 519 797 l 519 274 q 513 156 519 207 q 481 69 506 104 q 408 17 457 35 q 276 0 360 0 m 279 150 q 352 180 340 150 q 364 274 364 210 l 364 672 q 359 730 364 713 q 336 751 354 747 q 276 754 318 754 q 216 748 235 754 q 192 724 197 742 q 188 672 188 707 l 190 267 q 196 194 190 219 q 221 160 201 169 q 279 150 240 150 z "},"Ŏ":{"ha":558,"x_min":35,"x_max":519,"o":"m 269 943 q 150 976 190 943 q 107 1088 110 1010 l 197 1088 q 222 1039 203 1047 q 269 1031 240 1031 q 319 1039 300 1031 q 344 1088 339 1047 l 435 1088 q 390 976 432 1010 q 269 943 349 943 m 276 0 q 88 53 142 0 q 35 229 35 107 l 35 672 q 88 849 35 796 q 276 901 142 901 q 465 849 410 901 q 519 672 519 797 l 519 274 q 513 156 519 207 q 481 69 506 104 q 408 17 457 35 q 276 0 360 0 m 279 150 q 352 180 340 150 q 364 274 364 210 l 364 672 q 359 730 364 713 q 336 751 354 747 q 276 754 318 754 q 216 748 235 754 q 192 724 197 742 q 188 672 188 707 l 190 267 q 196 194 190 219 q 221 160 201 169 q 279 150 240 150 z "},"Ô":{"ha":558,"x_min":35,"x_max":519,"o":"m 75 939 l 156 1072 l 393 1075 l 476 944 l 332 944 l 274 1022 l 219 939 l 75 939 m 276 0 q 88 53 142 0 q 35 229 35 107 l 35 672 q 88 849 35 796 q 276 901 142 901 q 465 849 410 901 q 519 672 519 797 l 519 274 q 513 156 519 207 q 481 69 506 104 q 408 17 457 35 q 276 0 360 0 m 279 150 q 352 180 340 150 q 364 274 364 210 l 364 672 q 359 730 364 713 q 336 751 354 747 q 276 754 318 754 q 216 748 235 754 q 192 724 197 742 q 188 672 188 707 l 190 267 q 196 194 190 219 q 221 160 201 169 q 279 150 240 150 z "},"Ö":{"ha":558,"x_min":35,"x_max":519,"o":"m 346 950 q 325 951 325 950 l 325 1064 l 458 1064 l 457 951 l 390 950 l 346 950 m 129 946 q 108 947 108 946 l 108 1061 l 242 1061 l 240 949 l 174 947 l 129 946 m 276 0 q 88 53 142 0 q 35 229 35 107 l 35 672 q 88 849 35 796 q 276 901 142 901 q 465 849 410 901 q 519 672 519 797 l 519 274 q 513 156 519 207 q 481 69 506 104 q 408 17 457 35 q 276 0 360 0 m 279 150 q 352 180 340 150 q 364 274 364 210 l 364 672 q 359 730 364 713 q 336 751 354 747 q 276 754 318 754 q 216 748 235 754 q 192 724 197 742 q 188 672 188 707 l 190 267 q 196 194 190 219 q 221 160 201 169 q 279 150 240 150 z "},"Ò":{"ha":558,"x_min":35,"x_max":519,"o":"m 250 943 q 229 944 229 943 l 215 964 l 186 1003 l 143 1058 l 278 1058 l 361 946 l 294 944 l 250 943 m 276 0 q 88 53 142 0 q 35 229 35 107 l 35 672 q 88 849 35 796 q 276 901 142 901 q 465 849 410 901 q 519 672 519 797 l 519 274 q 513 156 519 207 q 481 69 506 104 q 408 17 457 35 q 276 0 360 0 m 279 150 q 352 180 340 150 q 364 274 364 210 l 364 672 q 359 730 364 713 q 336 751 354 747 q 276 754 318 754 q 216 748 235 754 q 192 724 197 742 q 188 672 188 707 l 190 267 q 196 194 190 219 q 221 160 201 169 q 279 150 240 150 z "},"Ő":{"ha":558,"x_min":35,"x_max":519,"o":"m 90 946 q 69 947 69 946 l 81 967 l 106 1006 l 142 1061 l 276 1061 l 201 949 l 135 947 l 90 946 m 318 946 q 297 947 297 946 l 308 967 l 333 1006 l 369 1061 l 504 1061 l 429 949 l 363 947 l 318 946 m 276 0 q 88 53 142 0 q 35 229 35 107 l 35 672 q 88 849 35 796 q 276 901 142 901 q 465 849 410 901 q 519 672 519 797 l 519 274 q 513 156 519 207 q 481 69 506 104 q 408 17 457 35 q 276 0 360 0 m 279 150 q 352 180 340 150 q 364 274 364 210 l 364 672 q 359 730 364 713 q 336 751 354 747 q 276 754 318 754 q 216 748 235 754 q 192 724 197 742 q 188 672 188 707 l 190 267 q 196 194 190 219 q 221 160 201 169 q 279 150 240 150 z "},"Ō":{"ha":558,"x_min":35,"x_max":519,"o":"m 181 949 l 150 950 l 138 950 l 138 1063 l 415 1063 l 414 950 l 275 949 l 181 949 m 276 0 q 88 53 142 0 q 35 229 35 107 l 35 672 q 88 849 35 796 q 276 901 142 901 q 465 849 410 901 q 519 672 519 797 l 519 274 q 513 156 519 207 q 481 69 506 104 q 408 17 457 35 q 276 0 360 0 m 279 150 q 352 180 340 150 q 364 274 364 210 l 364 672 q 359 730 364 713 q 336 751 354 747 q 276 754 318 754 q 216 748 235 754 q 192 724 197 742 q 188 672 188 707 l 190 267 q 196 194 190 219 q 221 160 201 169 q 279 150 240 150 z "},"Ø":{"ha":558,"x_min":39,"x_max":524,"o":"m 128 -32 l 50 0 l 78 71 q 39 229 39 122 l 39 672 q 92 849 39 796 q 281 901 146 901 q 351 898 319 901 q 407 886 382 894 l 428 938 l 506 906 l 479 840 q 513 772 503 813 q 524 672 524 731 l 524 274 q 517 156 524 207 q 485 69 510 104 q 413 17 461 35 q 281 0 364 0 q 149 19 204 0 l 128 -32 m 194 360 l 351 747 q 325 753 342 753 q 281 754 308 754 q 220 748 239 754 q 197 724 201 742 q 192 672 192 707 l 194 360 m 283 150 q 356 180 344 150 q 368 274 368 210 l 368 565 l 210 172 q 283 150 226 150 z "},"Ǿ":{"ha":558,"x_min":39,"x_max":524,"o":"m 210 946 q 189 947 189 946 l 200 967 l 225 1006 l 261 1061 l 396 1061 l 321 949 l 254 947 l 210 946 m 128 -32 l 50 0 l 78 71 q 39 229 39 122 l 39 672 q 92 849 39 796 q 281 901 146 901 q 351 898 319 901 q 407 886 382 894 l 428 938 l 506 906 l 479 840 q 513 772 503 813 q 524 672 524 731 l 524 274 q 517 156 524 207 q 485 69 510 104 q 413 17 461 35 q 281 0 364 0 q 149 19 204 0 l 128 -32 m 194 360 l 351 747 q 325 753 342 753 q 281 754 308 754 q 220 748 239 754 q 197 724 201 742 q 192 672 192 707 l 194 360 m 283 150 q 356 180 344 150 q 368 274 368 210 l 368 565 l 210 172 q 283 150 226 150 z "},"Õ":{"ha":558,"x_min":35,"x_max":519,"o":"m 135 929 l 72 985 l 76 993 l 96 1015 q 139 1049 110 1033 q 218 1074 176 1074 q 294 1049 257 1074 q 361 1022 333 1022 q 372 1024 368 1022 q 418 1058 396 1029 l 422 1065 l 486 1004 l 481 997 q 388 933 438 946 q 381 932 385 932 q 374 932 376 932 l 361 932 q 250 972 311 932 q 234 980 242 976 q 218 983 226 983 q 197 980 207 983 q 179 972 188 976 l 164 960 l 135 929 m 276 0 q 88 53 142 0 q 35 229 35 107 l 35 672 q 88 849 35 796 q 276 901 142 901 q 465 849 410 901 q 519 672 519 797 l 519 274 q 513 156 519 207 q 481 69 506 104 q 408 17 457 35 q 276 0 360 0 m 279 150 q 352 180 340 150 q 364 274 364 210 l 364 672 q 359 730 364 713 q 336 751 354 747 q 276 754 318 754 q 216 748 235 754 q 192 724 197 742 q 188 672 188 707 l 190 267 q 196 194 190 219 q 221 160 201 169 q 279 150 240 150 z "},"Œ":{"ha":806,"x_min":35,"x_max":779,"o":"m 340 0 q 183 23 253 0 q 74 96 114 46 q 35 229 35 146 l 35 672 q 74 806 35 756 q 183 879 114 857 q 340 901 253 901 l 779 901 l 779 756 l 496 756 l 496 546 l 696 546 l 696 399 l 496 399 l 496 147 l 779 147 l 779 0 l 340 0 m 340 150 l 340 754 q 232 738 276 754 q 188 671 188 721 l 190 267 q 212 194 190 219 q 268 159 233 168 q 340 150 303 150 z "},"P":{"ha":563,"x_min":38,"x_max":531,"o":"m 38 0 l 38 900 l 282 900 q 444 868 392 900 q 514 781 497 836 q 531 653 531 725 l 531 622 l 529 592 l 529 567 l 528 539 q 505 407 528 454 q 438 340 482 360 q 333 315 394 319 q 194 311 271 311 l 194 0 l 38 0 m 194 457 q 296 458 260 457 q 349 467 332 460 q 369 492 365 475 q 374 543 374 510 l 374 668 q 353 732 374 714 q 300 752 332 750 q 233 754 268 754 l 194 754 l 194 457 z "},"Þ":{"ha":544,"x_min":35,"x_max":519,"o":"m 35 0 l 35 907 l 192 907 l 192 793 q 232 797 211 796 q 276 799 253 799 q 465 747 410 799 q 519 569 519 694 l 519 369 q 513 251 519 303 q 481 165 506 200 q 408 113 457 131 q 276 96 360 96 q 232 98 253 96 q 192 103 211 100 l 192 0 l 35 0 m 279 246 q 352 276 340 246 q 364 369 364 306 l 364 569 q 359 627 364 610 q 336 648 354 644 q 276 651 318 651 q 215 646 232 651 q 192 621 199 640 l 192 315 q 213 260 194 275 q 279 246 231 246 z "},"Q":{"ha":569,"x_min":39,"x_max":531,"o":"m 401 -90 l 333 3 l 271 0 q 97 50 154 0 q 39 229 39 100 l 39 672 q 92 848 39 794 q 282 901 146 901 q 472 849 418 901 q 525 672 525 796 l 525 251 q 520 153 525 203 q 481 63 515 103 l 496 44 l 510 24 l 531 -6 q 467 -48 503 -25 q 401 -90 432 -71 m 296 149 q 360 181 350 151 q 369 261 369 211 l 369 701 q 340 744 369 729 q 278 758 311 758 q 220 744 246 758 q 194 701 194 731 l 194 226 q 199 186 194 204 q 226 158 204 168 q 296 149 247 149 z "},"R":{"ha":569,"x_min":43,"x_max":533,"o":"m 43 0 l 43 901 l 288 901 q 444 872 389 901 q 518 776 500 842 q 529 708 526 749 q 532 632 532 668 q 532 579 532 596 q 526 472 532 524 q 494 383 521 421 q 406 326 468 344 l 533 0 l 367 0 l 244 311 l 199 311 l 199 0 l 43 0 m 199 457 q 299 460 263 457 q 353 474 336 463 q 374 512 369 486 q 378 585 378 538 q 378 626 378 597 q 374 687 378 656 q 356 733 369 718 q 288 756 333 756 l 199 756 l 199 457 z "},"Ŕ":{"ha":569,"x_min":43,"x_max":533,"o":"m 203 946 q 182 947 182 946 l 193 967 l 218 1006 l 254 1061 l 389 1061 l 314 949 l 247 947 l 203 946 m 43 0 l 43 901 l 288 901 q 444 872 389 901 q 518 776 500 842 q 529 708 526 749 q 532 632 532 668 q 532 579 532 596 q 526 472 532 524 q 494 383 521 421 q 406 326 468 344 l 533 0 l 367 0 l 244 311 l 199 311 l 199 0 l 43 0 m 199 457 q 299 460 263 457 q 353 474 336 463 q 374 512 369 486 q 378 585 378 538 q 378 626 378 597 q 374 687 378 656 q 356 733 369 718 q 288 756 333 756 l 199 756 l 199 457 z "},"Ř":{"ha":569,"x_min":43,"x_max":533,"o":"m 158 929 l 75 1057 l 219 1057 l 278 979 l 332 1063 l 476 1063 l 396 932 l 158 929 m 43 0 l 43 901 l 288 901 q 444 872 389 901 q 518 776 500 842 q 529 708 526 749 q 532 632 532 668 q 532 579 532 596 q 526 472 532 524 q 494 383 521 421 q 406 326 468 344 l 533 0 l 367 0 l 244 311 l 199 311 l 199 0 l 43 0 m 199 457 q 299 460 263 457 q 353 474 336 463 q 374 512 369 486 q 378 585 378 538 q 378 626 378 597 q 374 687 378 656 q 356 733 369 718 q 288 756 333 756 l 199 756 l 199 457 z "},"Ŗ":{"ha":569,"x_min":43,"x_max":533,"o":"m 43 0 l 43 901 l 288 901 q 444 872 389 901 q 518 776 500 842 q 529 708 526 749 q 532 632 532 668 q 532 579 532 596 q 526 472 532 524 q 494 383 521 421 q 406 326 468 344 l 533 0 l 367 0 l 244 311 l 199 311 l 199 0 l 43 0 m 199 457 q 299 460 263 457 q 353 474 336 463 q 374 512 369 486 q 378 585 378 538 q 378 626 378 597 q 374 687 378 656 q 356 733 369 718 q 288 756 333 756 l 199 756 l 199 457 m 249 -294 l 206 -268 q 231 -225 231 -251 q 217 -174 231 -193 l 210 -162 l 210 -164 q 194 -137 200 -154 q 193 -131 193 -135 q 193 -124 193 -126 q 214 -78 193 -106 q 282 -51 235 -51 q 329 -67 308 -51 q 354 -119 350 -82 l 356 -135 q 325 -222 356 -181 q 249 -294 294 -262 z "},"S":{"ha":558,"x_min":35,"x_max":521,"o":"m 278 0 q 144 19 193 0 q 71 73 94 38 q 41 161 47 108 q 35 281 35 214 l 189 281 l 189 254 l 188 229 l 188 207 q 200 160 188 172 q 267 147 213 147 l 290 147 q 341 153 325 150 q 361 170 357 157 q 365 214 365 183 l 365 229 l 367 247 l 367 267 l 368 303 q 367 332 368 313 q 361 379 367 351 q 330 395 356 392 q 283 399 304 399 l 278 399 q 144 417 193 399 q 71 469 94 435 q 41 555 47 504 q 35 672 35 606 q 89 848 35 796 q 278 900 143 900 q 467 845 414 900 q 521 665 521 790 l 365 665 q 361 728 365 710 q 338 751 357 747 q 278 754 319 754 q 217 750 236 754 q 194 728 199 746 q 189 672 189 711 l 189 650 l 188 618 q 188 595 188 611 q 196 560 189 579 q 219 551 197 556 q 278 546 240 546 q 419 524 369 546 q 491 465 469 503 q 517 374 513 426 q 521 260 521 322 l 521 229 q 467 52 521 104 q 278 0 414 0 z "},"Ś":{"ha":558,"x_min":35,"x_max":521,"o":"m 194 946 q 174 947 174 946 l 185 967 l 210 1006 l 246 1061 l 381 1061 l 306 949 l 239 947 l 194 946 m 278 0 q 144 19 193 0 q 71 73 94 38 q 41 161 47 108 q 35 281 35 214 l 189 281 l 189 254 l 188 229 l 188 207 q 200 160 188 172 q 267 147 213 147 l 290 147 q 341 153 325 150 q 361 170 357 157 q 365 214 365 183 l 365 229 l 367 247 l 367 267 l 368 303 q 367 332 368 313 q 361 379 367 351 q 330 395 356 392 q 283 399 304 399 l 278 399 q 144 417 193 399 q 71 469 94 435 q 41 555 47 504 q 35 672 35 606 q 89 848 35 796 q 278 900 143 900 q 467 845 414 900 q 521 665 521 790 l 365 665 q 361 728 365 710 q 338 751 357 747 q 278 754 319 754 q 217 750 236 754 q 194 728 199 746 q 189 672 189 711 l 189 650 l 188 618 q 188 595 188 611 q 196 560 189 579 q 219 551 197 556 q 278 546 240 546 q 419 524 369 546 q 491 465 469 503 q 517 374 513 426 q 521 260 521 322 l 521 229 q 467 52 521 104 q 278 0 414 0 z "},"Š":{"ha":558,"x_min":35,"x_max":521,"o":"m 151 929 l 68 1057 l 213 1057 l 271 979 l 325 1063 l 469 1063 l 389 932 l 151 929 m 278 0 q 144 19 193 0 q 71 73 94 38 q 41 161 47 108 q 35 281 35 214 l 189 281 l 189 254 l 188 229 l 188 207 q 200 160 188 172 q 267 147 213 147 l 290 147 q 341 153 325 150 q 361 170 357 157 q 365 214 365 183 l 365 229 l 367 247 l 367 267 l 368 303 q 367 332 368 313 q 361 379 367 351 q 330 395 356 392 q 283 399 304 399 l 278 399 q 144 417 193 399 q 71 469 94 435 q 41 555 47 504 q 35 672 35 606 q 89 848 35 796 q 278 900 143 900 q 467 845 414 900 q 521 665 521 790 l 365 665 q 361 728 365 710 q 338 751 357 747 q 278 754 319 754 q 217 750 236 754 q 194 728 199 746 q 189 672 189 711 l 189 650 l 188 618 q 188 595 188 611 q 196 560 189 579 q 219 551 197 556 q 278 546 240 546 q 419 524 369 546 q 491 465 469 503 q 517 374 513 426 q 521 260 521 322 l 521 229 q 467 52 521 104 q 278 0 414 0 z "},"Ş":{"ha":558,"x_min":35,"x_max":521,"o":"m 278 0 q 144 19 193 0 q 71 73 94 38 q 41 161 47 108 q 35 281 35 214 l 189 281 l 189 254 l 188 229 l 188 207 q 200 160 188 172 q 267 147 213 147 l 290 147 q 341 153 325 150 q 361 170 357 157 q 365 214 365 183 l 365 229 l 367 247 l 367 267 l 368 303 q 367 332 368 313 q 361 379 367 351 q 330 395 356 392 q 283 399 304 399 l 278 399 q 144 417 193 399 q 71 469 94 435 q 41 555 47 504 q 35 672 35 606 q 89 848 35 796 q 278 900 143 900 q 467 845 414 900 q 521 665 521 790 l 365 665 q 361 728 365 710 q 338 751 357 747 q 278 754 319 754 q 217 750 236 754 q 194 728 199 746 q 189 672 189 711 l 189 650 l 188 618 q 188 595 188 611 q 196 560 189 579 q 219 551 197 556 q 278 546 240 546 q 419 524 369 546 q 491 465 469 503 q 517 374 513 426 q 521 260 521 322 l 521 229 q 467 52 521 104 q 278 0 414 0 m 251 -193 q 222 -190 238 -193 q 196 -185 207 -187 l 186 -147 q 199 -149 193 -149 q 211 -150 206 -150 q 258 -133 239 -150 q 276 -93 276 -117 q 263 -62 276 -74 q 221 -53 250 -50 l 251 0 l 310 0 q 371 -79 371 -18 q 359 -128 371 -101 q 321 -174 347 -154 q 251 -193 294 -193 z "},"Ŝ":{"ha":558,"x_min":35,"x_max":521,"o":"m 75 939 l 156 1072 l 393 1075 l 476 944 l 332 944 l 274 1022 l 219 939 l 75 939 m 278 0 q 144 19 193 0 q 71 73 94 38 q 41 161 47 108 q 35 281 35 214 l 189 281 l 189 254 l 188 229 l 188 207 q 200 160 188 172 q 267 147 213 147 l 290 147 q 341 153 325 150 q 361 170 357 157 q 365 214 365 183 l 365 229 l 367 247 l 367 267 l 368 303 q 367 332 368 313 q 361 379 367 351 q 330 395 356 392 q 283 399 304 399 l 278 399 q 144 417 193 399 q 71 469 94 435 q 41 555 47 504 q 35 672 35 606 q 89 848 35 796 q 278 900 143 900 q 467 845 414 900 q 521 665 521 790 l 365 665 q 361 728 365 710 q 338 751 357 747 q 278 754 319 754 q 217 750 236 754 q 194 728 199 746 q 189 672 189 711 l 189 650 l 188 618 q 188 595 188 611 q 196 560 189 579 q 219 551 197 556 q 278 546 240 546 q 419 524 369 546 q 491 465 469 503 q 517 374 513 426 q 521 260 521 322 l 521 229 q 467 52 521 104 q 278 0 414 0 z "},"Ș":{"ha":558,"x_min":35,"x_max":521,"o":"m 278 0 q 144 19 193 0 q 71 73 94 38 q 41 161 47 108 q 35 281 35 214 l 189 281 l 189 254 l 188 229 l 188 207 q 200 160 188 172 q 267 147 213 147 l 290 147 q 341 153 325 150 q 361 170 357 157 q 365 214 365 183 l 365 229 l 367 247 l 367 267 l 368 303 q 367 332 368 313 q 361 379 367 351 q 330 395 356 392 q 283 399 304 399 l 278 399 q 144 417 193 399 q 71 469 94 435 q 41 555 47 504 q 35 672 35 606 q 89 848 35 796 q 278 900 143 900 q 467 845 414 900 q 521 665 521 790 l 365 665 q 361 728 365 710 q 338 751 357 747 q 278 754 319 754 q 217 750 236 754 q 194 728 199 746 q 189 672 189 711 l 189 650 l 188 618 q 188 595 188 611 q 196 560 189 579 q 219 551 197 556 q 278 546 240 546 q 419 524 369 546 q 491 465 469 503 q 517 374 513 426 q 521 260 521 322 l 521 229 q 467 52 521 104 q 278 0 414 0 m 251 -294 l 208 -268 q 233 -225 233 -251 q 219 -174 233 -193 l 213 -162 l 213 -164 q 197 -137 203 -154 q 196 -131 196 -135 q 196 -124 196 -126 q 217 -78 196 -106 q 285 -51 238 -51 q 332 -67 311 -51 q 357 -119 353 -82 l 358 -135 q 328 -222 358 -181 q 251 -294 297 -262 z "},"ẞ":{"ha":588,"x_min":32,"x_max":556,"o":"m 32 0 l 32 907 l 551 907 l 426 531 q 522 454 496 497 q 552 365 549 411 q 556 275 556 319 q 531 125 556 186 q 443 32 506 64 q 267 0 381 0 l 267 147 q 369 181 338 150 q 400 251 400 211 l 400 275 q 392 360 400 335 q 360 392 383 385 q 347 396 353 394 q 335 399 340 397 q 324 401 329 400 q 311 401 318 401 l 272 401 l 272 550 l 353 761 l 186 761 l 186 0 l 32 0 z "},"T":{"ha":413,"x_min":-18,"x_max":425,"o":"m 126 0 l 126 756 l -18 756 l -18 901 l 425 901 l 425 756 l 281 756 l 281 0 l 126 0 z "},"Ŧ":{"ha":413,"x_min":-17,"x_max":426,"o":"m 128 0 l 128 493 l 14 493 l 14 597 l 128 597 l 128 756 l -17 756 l -17 901 l 426 901 l 426 756 l 282 756 l 282 597 l 396 597 l 396 493 l 282 493 l 282 0 l 128 0 z "},"Ť":{"ha":413,"x_min":-18,"x_max":425,"o":"m 90 929 l 7 1057 l 151 1057 l 210 979 l 264 1063 l 408 1063 l 328 932 l 90 929 m 126 0 l 126 756 l -18 756 l -18 901 l 425 901 l 425 756 l 281 756 l 281 0 l 126 0 z "},"Ţ":{"ha":413,"x_min":-12,"x_max":431,"o":"m 236 -187 q 201 -186 224 -187 q 150 -157 178 -185 q 127 -120 135 -142 q 119 -79 119 -99 q 136 -28 119 -49 q 178 0 151 -8 l 132 0 l 132 756 l -12 756 l -12 901 l 431 901 l 431 756 l 286 756 l 286 0 l 235 0 l 265 -53 l 260 -51 l 253 -51 q 224 -64 235 -51 q 211 -93 211 -78 q 229 -135 211 -117 q 274 -154 249 -154 q 285 -153 279 -154 q 299 -151 292 -153 l 289 -185 l 236 -187 z "},"Ț":{"ha":413,"x_min":-18,"x_max":425,"o":"m 126 0 l 126 756 l -18 756 l -18 901 l 425 901 l 425 756 l 281 756 l 281 0 l 126 0 m 185 -294 l 142 -268 q 167 -225 167 -251 q 153 -174 167 -193 l 146 -162 l 146 -164 q 131 -137 136 -154 q 129 -131 129 -135 q 129 -124 129 -126 q 150 -78 129 -106 q 218 -51 171 -51 q 265 -67 244 -51 q 290 -119 286 -82 l 292 -135 q 261 -222 292 -181 q 185 -294 231 -262 z "},"U":{"ha":557,"x_min":35,"x_max":521,"o":"m 278 0 q 89 52 143 0 q 35 229 35 104 l 35 900 l 190 900 l 194 229 l 194 222 q 195 197 194 211 q 200 174 196 183 l 199 174 q 229 156 206 163 q 281 149 253 149 q 335 158 310 149 q 364 182 361 167 l 367 900 l 521 900 l 521 274 q 514 156 521 207 q 484 70 507 104 q 412 18 461 36 q 278 0 363 0 z "},"Ú":{"ha":557,"x_min":35,"x_max":521,"o":"m 215 946 q 194 947 194 946 l 206 967 l 231 1006 l 267 1061 l 401 1061 l 326 949 l 260 947 l 215 946 m 278 0 q 89 52 143 0 q 35 229 35 104 l 35 900 l 190 900 l 194 229 l 194 222 q 195 197 194 211 q 200 174 196 183 l 199 174 q 229 156 206 163 q 281 149 253 149 q 335 158 310 149 q 364 182 361 167 q 365 233 364 192 q 365 335 365 274 q 365 469 365 397 q 366 613 365 542 q 367 747 367 685 q 367 849 367 808 q 367 900 367 890 l 521 900 l 521 274 q 514 156 521 207 q 484 70 507 104 q 412 18 461 36 q 278 0 363 0 z "},"Ŭ":{"ha":557,"x_min":35,"x_max":521,"o":"m 278 943 q 161 976 199 943 q 121 1088 124 1010 l 211 1088 q 233 1039 217 1047 q 278 1031 249 1031 q 326 1039 308 1031 q 349 1088 343 1047 l 439 1088 q 397 976 436 1010 q 278 943 357 943 m 278 0 q 89 52 143 0 q 35 229 35 104 l 35 900 l 190 900 l 194 229 l 194 222 q 195 197 194 211 q 200 174 196 183 l 199 174 q 229 156 206 163 q 281 149 253 149 q 335 158 310 149 q 364 182 361 167 q 365 232 364 193 q 366 328 365 271 q 367 449 367 385 q 367 576 367 514 q 368 688 368 638 q 368 767 368 739 l 368 839 l 367 900 l 521 900 l 521 274 q 514 156 521 207 q 484 70 507 104 q 412 18 461 36 q 278 0 363 0 z "},"Û":{"ha":557,"x_min":35,"x_max":521,"o":"m 78 939 l 158 1072 l 396 1075 l 479 944 l 335 944 l 276 1022 l 222 939 l 78 939 m 278 0 q 89 52 143 0 q 35 229 35 104 l 35 900 l 190 900 l 194 229 l 194 222 q 195 197 194 211 q 200 174 196 183 l 199 174 q 229 156 206 163 q 281 149 253 149 q 335 158 310 149 q 364 182 361 167 q 365 232 364 193 q 366 328 365 271 q 367 449 367 385 q 367 576 367 514 q 368 688 368 638 q 368 767 368 739 l 368 839 l 367 900 l 521 900 l 521 274 q 514 156 521 207 q 484 70 507 104 q 412 18 461 36 q 278 0 363 0 z "},"Ü":{"ha":557,"x_min":35,"x_max":521,"o":"m 331 949 q 310 950 310 949 l 310 1063 l 443 1063 l 442 950 l 375 949 l 331 949 m 118 944 q 97 946 97 944 l 97 1060 l 231 1060 l 229 947 l 163 946 l 118 944 m 278 0 q 89 52 143 0 q 35 229 35 104 l 35 900 l 190 900 l 194 229 l 194 222 q 195 197 194 211 q 200 174 196 183 l 199 174 q 229 156 206 163 q 281 149 253 149 q 335 158 310 149 q 364 182 361 167 q 365 232 364 193 q 366 328 365 271 q 367 449 367 385 q 367 576 367 514 q 368 688 368 638 q 368 767 368 739 l 368 839 l 367 900 l 521 900 l 521 274 q 514 156 521 207 q 484 70 507 104 q 412 18 461 36 q 278 0 363 0 z "},"Ù":{"ha":557,"x_min":35,"x_max":521,"o":"m 263 944 q 242 946 242 944 l 228 965 l 199 1004 l 156 1060 l 290 1060 l 374 947 l 307 946 l 263 944 m 278 0 q 89 52 143 0 q 35 229 35 104 l 35 900 l 190 900 l 194 229 l 194 222 q 195 197 194 211 q 200 174 196 183 l 199 174 q 229 156 206 163 q 281 149 253 149 q 335 158 310 149 q 364 182 361 167 q 365 233 364 192 q 365 335 365 274 q 365 469 365 397 q 366 613 365 542 q 367 747 367 685 q 367 849 367 808 q 367 900 367 890 l 521 900 l 521 274 q 514 156 521 207 q 484 70 507 104 q 412 18 461 36 q 278 0 363 0 z "},"Ű":{"ha":557,"x_min":35,"x_max":521,"o":"m 90 946 q 69 947 69 946 l 81 967 l 106 1006 l 142 1061 l 276 1061 l 201 949 l 135 947 l 90 946 m 318 946 q 297 947 297 946 l 308 967 l 333 1006 l 369 1061 l 504 1061 l 429 949 l 363 947 l 318 946 m 278 0 q 89 52 143 0 q 35 229 35 104 l 35 900 l 190 900 l 194 229 l 194 222 q 195 197 194 211 q 200 174 196 183 l 199 174 q 229 156 206 163 q 281 149 253 149 q 335 158 310 149 q 364 182 361 167 q 365 233 364 192 q 365 335 365 274 q 365 469 365 397 q 366 613 365 542 q 367 747 367 685 q 367 849 367 808 q 367 900 367 890 l 521 900 l 521 274 q 514 156 521 207 q 484 70 507 104 q 412 18 461 36 q 278 0 363 0 z "},"Ū":{"ha":557,"x_min":35,"x_max":521,"o":"m 174 950 l 143 951 l 131 951 l 131 1064 l 408 1064 l 407 951 l 268 950 l 174 950 m 278 0 q 89 52 143 0 q 35 229 35 104 l 35 900 l 190 900 l 194 229 l 194 222 q 195 197 194 211 q 200 174 196 183 l 199 174 q 229 156 206 163 q 281 149 253 149 q 335 158 310 149 q 364 182 361 167 l 367 900 l 521 900 l 521 274 q 514 156 521 207 q 484 70 507 104 q 412 18 461 36 q 278 0 363 0 z "},"Ų":{"ha":557,"x_min":36,"x_max":522,"o":"m 322 -183 q 287 -182 310 -183 q 236 -153 264 -181 q 213 -116 221 -137 q 206 -75 206 -94 q 222 -24 206 -44 q 257 1 235 -8 q 84 60 132 4 q 36 231 36 117 l 36 901 l 192 901 l 196 231 l 196 224 q 197 199 196 213 q 201 175 197 185 l 200 175 q 231 157 207 164 q 282 150 254 150 q 337 159 311 150 q 365 183 363 168 l 368 707 l 368 901 l 522 901 l 522 275 q 511 135 522 194 q 458 42 500 76 q 322 3 417 8 l 351 -49 l 346 -47 l 339 -47 q 310 -60 321 -47 q 297 -89 297 -74 q 315 -131 297 -112 q 360 -150 335 -150 q 372 -149 365 -150 q 385 -147 378 -149 l 375 -181 l 322 -183 z "},"Ů":{"ha":557,"x_min":35,"x_max":521,"o":"m 272 943 q 153 976 193 943 q 110 1088 113 1010 l 200 1088 q 224 1039 206 1047 q 272 1031 243 1031 q 322 1039 303 1031 q 347 1088 342 1047 l 438 1088 q 393 976 435 1010 q 272 943 351 943 m 278 0 q 89 52 143 0 q 35 229 35 104 l 35 900 l 190 900 l 194 229 l 194 222 q 195 197 194 211 q 200 174 196 183 l 199 174 q 229 156 206 163 q 281 149 253 149 q 335 158 310 149 q 364 182 361 167 l 367 900 l 521 900 l 521 274 q 514 156 521 207 q 484 70 507 104 q 412 18 461 36 q 278 0 363 0 z "},"Ũ":{"ha":557,"x_min":35,"x_max":521,"o":"m 119 929 l 57 985 l 61 993 l 81 1015 q 124 1049 94 1033 q 203 1074 161 1074 q 279 1049 242 1074 q 346 1022 318 1022 q 357 1024 353 1022 q 403 1058 381 1029 l 407 1065 l 471 1004 l 465 997 q 372 933 422 946 q 365 932 369 932 q 358 932 361 932 l 346 932 q 235 972 296 932 q 219 980 226 976 q 203 983 211 983 q 182 980 192 983 q 164 972 172 976 l 149 960 l 119 929 m 278 0 q 89 52 143 0 q 35 229 35 104 l 35 900 l 190 900 l 194 229 l 194 222 q 195 197 194 211 q 200 174 196 183 l 199 174 q 229 156 206 163 q 281 149 253 149 q 335 158 310 149 q 364 182 361 167 l 367 900 l 521 900 l 521 274 q 514 156 521 207 q 484 70 507 104 q 412 18 461 36 q 278 0 363 0 z "},"V":{"ha":532,"x_min":18,"x_max":504,"o":"m 211 0 q 83 224 124 110 q 30 457 42 338 q 18 700 18 576 l 18 900 l 172 900 l 172 849 l 171 796 l 171 746 l 169 696 q 184 443 169 569 q 261 201 199 317 q 335 446 319 322 q 351 699 351 569 l 351 747 l 350 794 l 350 847 l 349 900 l 504 900 l 504 700 q 492 460 504 579 q 440 225 481 340 q 310 0 399 110 l 211 0 z "},"W":{"ha":875,"x_min":26,"x_max":842,"o":"m 219 0 q 91 228 132 114 q 38 460 50 342 q 26 704 26 578 l 26 901 l 182 901 l 182 846 l 181 792 l 181 743 l 179 696 q 194 445 179 565 q 268 203 208 325 q 343 442 328 318 q 358 693 358 567 l 358 744 l 357 794 l 357 849 l 356 901 l 511 901 l 511 850 l 510 799 l 510 751 l 508 704 q 525 445 508 574 q 600 201 542 317 q 673 440 657 315 q 689 693 689 565 l 689 744 l 688 794 l 688 849 l 686 901 l 842 901 l 842 708 q 830 463 842 582 q 777 228 818 343 q 650 0 736 114 l 547 0 q 485 95 514 46 q 433 194 456 144 q 384 97 413 146 q 319 0 356 47 l 219 0 z "},"Ẃ":{"ha":875,"x_min":26,"x_max":842,"o":"m 372 946 q 351 947 351 946 l 363 967 l 388 1006 l 424 1061 l 558 1061 l 483 949 l 417 947 l 372 946 m 219 0 q 91 228 132 114 q 38 460 50 342 q 26 704 26 578 l 26 901 l 182 901 l 182 846 l 181 792 l 181 743 l 179 696 q 194 445 179 565 q 268 203 208 325 q 343 442 328 318 q 358 693 358 567 l 358 744 l 357 794 l 357 849 l 356 901 l 511 901 l 511 850 l 510 799 l 510 751 l 508 704 q 525 445 508 574 q 600 201 542 317 q 673 440 657 315 q 689 693 689 565 l 689 744 l 688 794 l 688 849 l 686 901 l 842 901 l 842 708 q 830 463 842 582 q 777 228 818 343 q 650 0 736 114 l 547 0 q 485 95 514 46 q 433 194 456 144 q 384 97 413 146 q 319 0 356 47 l 219 0 z "},"Ŵ":{"ha":875,"x_min":26,"x_max":842,"o":"m 229 950 l 310 1076 l 547 1078 l 631 950 l 486 950 l 428 1025 l 374 950 l 229 950 m 219 0 q 91 228 132 114 q 38 460 50 342 q 26 704 26 578 l 26 901 l 182 901 l 182 846 l 181 792 l 181 743 l 179 696 q 194 445 179 565 q 268 203 208 325 q 343 442 328 318 q 358 693 358 567 l 358 744 l 357 794 l 357 849 l 356 901 l 511 901 l 511 850 l 510 799 l 510 751 l 508 704 q 525 445 508 574 q 600 201 542 317 q 673 440 657 315 q 689 693 689 565 l 689 744 l 688 794 l 688 849 l 686 901 l 842 901 l 842 708 q 830 463 842 582 q 777 228 818 343 q 650 0 736 114 l 547 0 q 485 95 514 46 q 433 194 456 144 q 384 97 413 146 q 319 0 356 47 l 219 0 z "},"Ẅ":{"ha":875,"x_min":26,"x_max":842,"o":"m 496 950 q 475 951 475 950 l 475 1064 l 608 1064 l 607 951 l 540 950 l 496 950 m 279 946 q 258 947 258 946 l 258 1061 l 392 1061 l 390 949 l 324 947 l 279 946 m 219 0 q 91 228 132 114 q 38 460 50 342 q 26 704 26 578 l 26 901 l 182 901 l 182 846 l 181 792 l 181 743 l 179 696 q 194 445 179 565 q 268 203 208 325 q 343 442 328 318 q 358 693 358 567 l 358 744 l 357 794 l 357 849 l 356 901 l 511 901 l 511 850 l 510 799 l 510 751 l 508 704 q 525 445 508 574 q 600 201 542 317 q 673 440 657 315 q 689 693 689 565 l 689 744 l 688 794 l 688 849 l 686 901 l 842 901 l 842 708 q 830 463 842 582 q 777 228 818 343 q 650 0 736 114 l 547 0 q 485 95 514 46 q 433 194 456 144 q 384 97 413 146 q 319 0 356 47 l 219 0 z "},"Ẁ":{"ha":875,"x_min":26,"x_max":842,"o":"m 383 947 q 363 949 363 947 l 349 968 l 319 1007 l 276 1063 l 411 1063 l 494 950 l 428 949 l 383 947 m 219 0 q 91 228 132 114 q 38 460 50 342 q 26 704 26 578 l 26 901 l 182 901 l 182 846 l 181 792 l 181 743 l 179 696 q 194 445 179 565 q 268 203 208 325 q 343 442 328 318 q 358 693 358 567 l 358 744 l 357 794 l 357 849 l 356 901 l 511 901 l 511 850 l 510 799 l 510 751 l 508 704 q 525 445 508 574 q 600 201 542 317 q 673 440 657 315 q 689 693 689 565 l 689 744 l 688 794 l 688 849 l 686 901 l 842 901 l 842 708 q 830 463 842 582 q 777 228 818 343 q 650 0 736 114 l 547 0 q 485 95 514 46 q 433 194 456 144 q 384 97 413 146 q 319 0 356 47 l 219 0 z "},"X":{"ha":556,"x_min":33,"x_max":519,"o":"m 33 0 l 33 104 q 40 228 33 171 q 75 341 47 286 q 163 451 103 396 q 76 560 103 506 q 41 674 49 615 q 33 799 33 733 l 33 901 l 188 901 l 188 868 l 186 833 l 186 807 l 185 781 q 200 660 185 717 q 275 553 215 604 q 352 665 338 607 q 367 786 367 722 l 367 810 l 365 836 l 365 869 l 364 901 l 519 901 l 519 799 q 512 676 519 735 q 476 562 504 617 q 389 451 449 507 q 477 341 450 396 q 512 228 504 286 q 519 104 519 171 l 519 0 l 364 0 l 365 35 l 365 68 l 367 94 l 367 118 q 351 238 367 183 q 275 349 336 293 q 200 242 215 296 q 185 122 185 189 l 186 96 l 186 69 l 188 36 l 188 0 l 33 0 z "},"Y":{"ha":539,"x_min":24,"x_max":510,"o":"m 188 0 l 188 372 q 76 503 111 438 q 33 640 42 568 q 24 796 24 711 l 24 901 l 178 901 l 178 864 l 176 826 l 176 797 l 175 768 q 192 633 175 700 q 264 506 208 567 q 340 635 324 568 q 357 778 357 703 l 357 806 l 356 833 l 356 868 l 354 901 l 510 901 l 510 796 q 499 640 510 711 q 453 503 489 568 q 343 372 418 439 l 343 0 l 188 0 z "},"Ý":{"ha":539,"x_min":24,"x_max":510,"o":"m 203 946 q 182 947 182 946 l 193 967 l 218 1006 l 254 1061 l 389 1061 l 314 949 l 247 947 l 203 946 m 188 0 l 188 372 q 76 503 111 438 q 33 640 42 568 q 24 796 24 711 l 24 901 l 178 901 l 178 864 l 176 826 l 176 797 l 175 768 q 192 633 175 700 q 264 506 208 567 q 340 635 324 568 q 357 778 357 703 l 357 806 l 356 833 l 356 868 l 354 901 l 510 901 l 510 796 q 499 640 510 711 q 453 503 489 568 q 343 372 418 439 l 343 0 l 188 0 z "},"Ŷ":{"ha":539,"x_min":24,"x_max":510,"o":"m 65 939 l 146 1072 l 383 1075 l 467 944 l 322 944 l 264 1022 l 210 939 l 65 939 m 188 0 l 188 372 q 76 503 111 438 q 33 640 42 568 q 24 796 24 711 l 24 901 l 178 901 l 178 864 l 176 826 l 176 797 l 175 768 q 192 633 175 700 q 264 506 208 567 q 340 635 324 568 q 357 778 357 703 l 357 806 l 356 833 l 356 868 l 354 901 l 510 901 l 510 796 q 499 640 510 711 q 453 503 489 568 q 343 372 418 439 l 343 0 l 188 0 z "},"Ÿ":{"ha":539,"x_min":24,"x_max":510,"o":"m 324 950 q 303 951 303 950 l 303 1064 l 436 1064 l 435 951 l 368 950 l 324 950 m 111 946 q 90 947 90 946 l 90 1061 l 224 1061 l 222 949 l 156 947 l 111 946 m 188 0 l 188 372 q 76 503 111 438 q 33 640 42 568 q 24 796 24 711 l 24 901 l 178 901 l 178 864 l 176 826 l 176 797 l 175 768 q 192 633 175 700 q 264 506 208 567 q 340 635 324 568 q 357 778 357 703 l 357 806 l 356 833 l 356 868 l 354 901 l 510 901 l 510 796 q 499 640 510 711 q 453 503 489 568 q 343 372 418 439 l 343 0 l 188 0 z "},"Ỳ":{"ha":539,"x_min":24,"x_max":510,"o":"m 225 944 q 204 946 204 944 l 190 965 l 161 1004 l 118 1060 l 253 1060 l 336 947 l 269 946 l 225 944 m 188 0 l 188 372 q 76 503 111 438 q 33 640 42 568 q 24 796 24 711 l 24 901 l 178 901 l 178 864 l 176 826 l 176 797 l 175 768 q 192 633 175 700 q 264 506 208 567 q 340 635 324 568 q 357 778 357 703 l 357 806 l 356 833 l 356 868 l 354 901 l 510 901 l 510 796 q 499 640 510 711 q 453 503 489 568 q 343 372 418 439 l 343 0 l 188 0 z "},"Z":{"ha":508,"x_min":31,"x_max":469,"o":"m 31 0 l 31 149 l 300 756 l 31 756 l 31 901 l 469 901 l 468 753 l 201 147 l 469 147 l 469 0 l 31 0 z "},"Ź":{"ha":508,"x_min":31,"x_max":469,"o":"m 182 946 q 161 947 161 946 l 172 967 l 197 1006 l 233 1061 l 368 1061 l 293 949 l 226 947 l 182 946 m 31 0 l 31 149 l 300 756 l 31 756 l 31 901 l 469 901 l 468 753 l 201 147 l 469 147 l 469 0 l 31 0 z "},"Ž":{"ha":508,"x_min":31,"x_max":469,"o":"m 133 929 l 50 1057 l 194 1057 l 253 979 l 307 1063 l 451 1063 l 371 932 l 133 929 m 31 0 l 31 149 l 300 756 l 31 756 l 31 901 l 469 901 l 468 753 l 201 147 l 469 147 l 469 0 l 31 0 z "},"Ż":{"ha":508,"x_min":31,"x_max":469,"o":"m 182 946 q 161 947 161 946 l 172 967 l 197 1006 l 233 1061 l 368 1061 l 293 949 l 226 947 l 182 946 m 31 0 l 31 149 l 300 756 l 31 756 l 31 901 l 469 901 l 468 753 l 201 147 l 469 147 l 469 0 l 31 0 z "},"a":{"ha":519,"x_min":17,"x_max":503,"o":"m 17 0 l 17 193 q 28 441 17 322 q 81 674 40 560 q 208 901 122 788 l 308 901 q 438 673 396 789 q 491 438 479 557 q 503 193 503 318 l 503 0 l 347 0 l 347 178 l 171 178 l 171 0 l 17 0 m 171 324 l 346 324 q 319 518 340 421 q 258 700 299 615 q 196 517 217 613 q 171 324 175 421 z "},"á":{"ha":514,"x_min":11,"x_max":497,"o":"m 203 946 q 182 947 182 946 l 193 967 l 218 1006 l 254 1061 l 389 1061 l 314 947 l 247 946 l 203 946 m 11 0 l 11 193 q 23 441 11 322 q 76 674 35 560 q 203 901 117 788 l 303 901 q 432 673 390 789 q 485 438 474 557 q 497 193 497 318 l 497 0 l 342 0 l 342 178 l 165 178 l 165 0 l 11 0 m 165 324 l 340 324 q 314 518 335 421 q 253 700 293 615 q 190 517 211 613 q 165 324 169 421 z "},"ă":{"ha":514,"x_min":11,"x_max":497,"o":"m 136 936 l 53 1064 l 197 1064 l 256 986 l 310 1069 l 454 1069 l 374 939 l 136 936 m 11 0 l 11 193 q 23 441 11 322 q 76 674 35 560 q 203 901 117 788 l 303 901 q 432 673 390 789 q 485 438 474 557 q 497 193 497 318 l 497 0 l 342 0 l 342 178 l 165 178 l 165 0 l 11 0 m 165 324 l 340 324 q 314 518 335 421 q 253 700 293 615 q 190 517 211 613 q 165 324 169 421 z "},"â":{"ha":514,"x_min":11,"x_max":497,"o":"m 68 943 l 151 1075 l 374 1075 l 458 944 l 314 944 l 256 1022 l 201 943 l 68 943 m 11 0 l 11 193 q 23 441 11 322 q 76 674 35 560 q 203 901 117 788 l 303 901 q 432 673 390 789 q 485 438 474 557 q 497 193 497 318 l 497 0 l 342 0 l 342 178 l 165 178 l 165 0 l 11 0 m 165 324 l 340 324 q 314 518 335 421 q 253 700 293 615 q 190 517 211 613 q 165 324 169 421 z "},"ä":{"ha":514,"x_min":11,"x_max":497,"o":"m 228 946 q 207 947 207 946 l 193 967 l 164 1006 l 121 1061 l 256 1061 l 339 949 l 272 947 l 228 946 m 11 0 l 11 193 q 23 441 11 322 q 76 674 35 560 q 203 901 117 788 l 303 901 q 432 673 390 789 q 485 438 474 557 q 497 193 497 318 l 497 0 l 342 0 l 342 178 l 165 178 l 165 0 l 11 0 m 165 324 l 340 324 q 314 518 335 421 q 253 700 293 615 q 190 517 211 613 q 165 324 169 421 z "},"à":{"ha":514,"x_min":11,"x_max":497,"o":"m 315 950 q 294 951 294 950 l 294 1064 l 428 1064 l 428 951 l 361 950 l 315 950 m 103 947 q 82 949 82 947 l 82 1061 l 213 1063 l 214 949 l 147 947 l 103 947 m 11 0 l 11 193 q 23 441 11 322 q 76 674 35 560 q 203 901 117 788 l 303 901 q 432 673 390 789 q 485 438 474 557 q 497 193 497 318 l 497 0 l 342 0 l 342 178 l 165 178 l 165 0 l 11 0 m 165 324 l 340 324 q 314 518 335 421 q 253 700 293 615 q 190 517 211 613 q 165 324 169 421 z "},"ā":{"ha":514,"x_min":11,"x_max":497,"o":"m 158 950 l 126 951 l 114 951 l 114 1064 l 399 1064 l 397 951 l 158 950 m 11 0 l 11 193 q 23 441 11 322 q 76 674 35 560 q 203 901 117 788 l 303 901 q 432 673 390 789 q 485 438 474 557 q 497 193 497 318 l 497 0 l 342 0 l 342 178 l 165 178 l 165 0 l 11 0 m 165 324 l 340 324 q 314 518 335 421 q 253 700 293 615 q 190 517 211 613 q 165 324 169 421 z "},"ą":{"ha":514,"x_min":13,"x_max":517,"o":"m 456 -187 q 420 -186 443 -187 q 369 -157 397 -185 q 347 -120 354 -142 q 339 -79 339 -99 q 356 -28 339 -49 q 397 0 371 -8 l 343 0 l 343 178 l 167 178 l 167 0 l 13 0 l 13 193 q 24 440 13 321 q 77 673 36 558 q 204 901 118 788 l 304 901 q 433 673 392 789 q 487 438 475 557 q 499 193 499 318 l 499 0 l 454 0 l 485 -53 l 478 -51 l 472 -51 q 442 -64 454 -51 q 431 -93 431 -79 q 449 -135 431 -117 q 493 -154 468 -154 q 504 -153 499 -154 q 517 -151 510 -153 l 508 -185 l 456 -187 m 167 324 l 342 324 q 315 517 336 417 q 254 700 293 617 q 192 517 213 613 q 167 324 171 421 z "},"å":{"ha":515,"x_min":11,"x_max":497,"o":"m 251 932 q 177 963 207 932 q 147 1033 147 993 q 177 1108 147 1078 q 251 1139 207 1139 q 325 1108 296 1139 q 354 1033 354 1078 q 325 963 354 993 q 251 932 296 932 m 251 1003 q 273 1011 263 1003 q 283 1032 283 1019 q 273 1053 283 1044 q 251 1063 263 1063 q 227 1053 236 1063 q 218 1032 218 1044 q 251 1003 218 1003 m 11 0 l 11 193 q 23 441 11 322 q 76 674 35 560 q 203 901 117 788 l 303 901 q 432 673 390 789 q 485 438 474 557 q 497 193 497 318 l 497 0 l 342 0 l 342 178 l 165 178 l 165 0 l 11 0 m 165 324 l 340 324 q 314 518 335 421 q 253 700 293 615 q 190 517 211 613 q 165 324 169 421 z "},"ã":{"ha":514,"x_min":11,"x_max":497,"o":"m 119 929 l 57 985 l 61 993 l 81 1015 q 124 1049 94 1033 q 203 1074 161 1074 q 279 1049 242 1074 q 346 1022 318 1022 q 357 1024 353 1022 q 403 1058 381 1029 l 407 1065 l 471 1004 l 465 997 q 372 933 422 946 q 365 932 369 932 q 358 932 361 932 l 346 932 q 235 972 296 932 q 219 980 226 976 q 203 983 211 983 q 182 980 192 983 q 164 972 172 976 l 149 960 l 119 929 m 11 0 l 11 193 q 23 441 11 322 q 76 674 35 560 q 203 901 117 788 l 303 901 q 432 673 390 789 q 485 438 474 557 q 497 193 497 318 l 497 0 l 342 0 l 342 178 l 165 178 l 165 0 l 11 0 m 165 324 l 340 324 q 314 518 335 421 q 253 700 293 615 q 190 517 211 613 q 165 324 169 421 z "},"æ":{"ha":829,"x_min":36,"x_max":796,"o":"m 36 0 l 36 193 q 56 443 36 322 q 123 678 75 564 q 260 901 171 793 l 796 901 l 796 756 l 513 756 l 513 546 l 713 546 l 713 399 l 513 399 l 513 147 l 796 147 l 796 0 l 357 0 l 357 178 l 190 178 l 190 0 l 36 0 m 190 324 l 357 324 l 357 774 q 299 697 326 732 q 249 608 272 661 q 209 490 225 558 q 190 324 193 422 z "},"ǽ":{"ha":829,"x_min":36,"x_max":796,"o":"m 308 946 q 288 947 288 946 l 299 967 l 324 1006 l 360 1061 l 494 1061 l 419 947 l 353 946 l 308 946 m 36 0 l 36 193 q 56 443 36 322 q 123 678 75 564 q 260 901 171 793 l 796 901 l 796 756 l 513 756 l 513 546 l 713 546 l 713 399 l 513 399 l 513 147 l 796 147 l 796 0 l 357 0 l 357 178 l 190 178 l 190 0 l 36 0 m 190 324 l 357 324 l 357 774 q 299 697 326 732 q 249 608 272 661 q 209 490 225 558 q 190 324 193 422 z "},"b":{"ha":568,"x_min":39,"x_max":526,"o":"m 140 -1 l 90 0 l 39 0 l 39 901 l 81 903 l 188 903 q 347 885 272 903 q 469 819 421 868 q 525 672 518 769 q 521 606 525 643 q 504 534 517 569 q 467 474 492 499 q 518 378 510 433 q 526 274 526 324 q 507 125 526 181 q 448 42 488 69 q 349 7 408 15 q 208 -1 289 -1 l 140 -1 m 224 544 l 247 544 q 278 545 260 544 q 324 554 296 546 q 362 590 350 561 q 374 653 374 619 q 365 706 374 682 q 342 735 357 729 l 340 736 q 279 753 318 751 q 207 754 240 754 l 194 754 l 194 546 l 210 546 l 224 544 m 231 146 q 298 151 267 146 q 346 174 329 157 q 365 217 360 189 q 369 276 369 244 q 367 321 369 299 q 363 363 365 343 q 324 393 360 386 q 251 400 288 400 l 231 400 l 211 399 l 194 399 l 197 147 l 211 147 l 231 146 z "},"c":{"ha":564,"x_min":38,"x_max":524,"o":"m 281 0 q 92 52 146 0 q 38 229 38 104 l 38 672 q 91 848 38 794 q 281 901 144 901 q 469 847 415 901 q 524 665 524 793 l 369 665 q 366 726 369 707 q 344 749 363 744 q 281 754 325 754 q 219 751 238 754 q 197 730 200 747 q 193 672 193 713 l 193 199 q 226 164 196 175 q 292 153 257 153 q 355 163 338 153 q 372 221 372 174 q 372 245 372 232 q 369 281 371 258 l 524 281 q 517 161 524 214 q 488 73 511 108 q 415 19 464 38 q 281 0 367 0 z "},"ć":{"ha":564,"x_min":38,"x_max":524,"o":"m 215 946 q 194 947 194 946 l 206 967 l 231 1006 l 267 1061 l 401 1061 l 326 949 l 260 947 l 215 946 m 281 0 q 92 52 146 0 q 38 229 38 104 l 38 672 q 91 848 38 794 q 281 901 144 901 q 469 847 415 901 q 524 665 524 793 l 369 665 q 366 726 369 707 q 344 749 363 744 q 281 754 326 754 q 219 751 238 754 q 197 730 200 747 q 193 672 193 713 l 193 311 l 194 199 q 227 164 197 175 q 292 153 257 153 q 354 163 331 153 q 369 183 365 165 q 372 221 372 201 q 372 242 372 232 q 369 261 371 253 l 369 281 l 524 281 q 517 161 524 214 q 488 73 511 108 q 415 19 464 38 q 281 0 367 0 z "},"č":{"ha":564,"x_min":38,"x_max":524,"o":"m 156 929 l 72 1057 l 217 1057 l 275 979 l 329 1063 l 474 1063 l 393 932 l 156 929 m 281 0 q 92 52 146 0 q 38 229 38 104 l 38 672 q 91 848 38 794 q 281 901 144 901 q 469 847 415 901 q 524 665 524 793 l 369 665 q 366 726 369 707 q 344 749 363 744 q 281 754 326 754 q 219 751 238 754 q 197 730 200 747 q 193 672 193 713 l 193 311 l 194 199 q 227 164 197 175 q 292 153 257 153 q 354 163 331 153 q 369 183 365 165 q 372 221 372 201 q 372 242 372 232 q 369 261 371 253 l 369 281 l 524 281 q 517 161 524 214 q 488 73 511 108 q 415 19 464 38 q 281 0 367 0 z "},"ç":{"ha":564,"x_min":38,"x_max":524,"o":"m 281 0 q 92 52 146 0 q 38 229 38 104 l 38 672 q 91 848 38 794 q 281 901 144 901 q 469 847 415 901 q 524 665 524 793 l 369 665 q 366 726 369 707 q 344 749 363 744 q 281 754 325 754 q 219 751 238 754 q 197 730 200 747 q 193 672 193 713 l 193 199 q 226 164 196 175 q 292 153 257 153 q 355 163 338 153 q 372 221 372 174 q 372 245 372 232 q 369 281 371 258 l 524 281 q 517 161 524 214 q 488 73 511 108 q 415 19 464 38 q 281 0 367 0 m 254 -193 q 225 -190 240 -193 q 199 -185 210 -187 l 189 -147 q 202 -149 196 -149 q 214 -150 208 -150 q 260 -133 242 -150 q 279 -93 279 -117 q 266 -62 279 -74 q 224 -53 253 -50 l 254 0 l 313 0 q 374 -79 374 -18 q 362 -128 374 -101 q 324 -174 350 -154 q 254 -193 297 -193 z "},"ĉ":{"ha":564,"x_min":38,"x_max":524,"o":"m 78 943 l 161 1075 l 379 1075 l 464 944 l 324 944 l 268 1022 l 211 943 l 78 943 m 281 0 q 92 52 146 0 q 38 229 38 104 l 38 672 q 91 848 38 794 q 281 901 144 901 q 469 847 415 901 q 524 665 524 793 l 369 665 q 366 726 369 707 q 344 749 363 744 q 281 754 326 754 q 219 751 238 754 q 197 730 200 747 q 193 672 193 713 l 193 311 l 194 199 q 227 164 197 175 q 292 153 257 153 q 354 163 331 153 q 369 183 365 165 q 372 221 372 201 q 372 242 372 232 q 369 261 371 253 l 369 281 l 524 281 q 517 161 524 214 q 488 73 511 108 q 415 19 464 38 q 281 0 367 0 z "},"ċ":{"ha":564,"x_min":38,"x_max":524,"o":"m 278 943 q 218 961 236 943 q 200 1017 200 979 q 217 1074 200 1056 q 278 1092 235 1092 q 338 1074 319 1092 q 356 1017 356 1057 q 278 943 356 943 m 281 0 q 92 52 146 0 q 38 229 38 104 l 38 672 q 91 848 38 794 q 281 901 144 901 q 469 847 415 901 q 524 665 524 793 l 369 665 q 366 726 369 707 q 344 749 363 744 q 281 754 326 754 q 219 751 238 754 q 197 730 200 747 q 193 672 193 713 l 193 311 l 194 199 q 227 164 197 175 q 292 153 257 153 q 354 163 331 153 q 369 183 365 165 q 372 221 372 201 q 372 242 372 232 q 369 261 371 253 l 369 281 l 524 281 q 517 161 524 214 q 488 73 511 108 q 415 19 464 38 q 281 0 367 0 z "},"d":{"ha":564,"x_min":39,"x_max":525,"o":"m 39 0 l 39 901 l 282 901 q 472 846 418 901 q 525 668 525 790 l 525 253 q 498 115 525 165 q 422 40 471 64 q 310 8 374 15 q 176 0 247 0 l 39 0 m 194 147 q 297 153 258 147 q 353 182 336 158 q 371 258 371 206 l 371 654 q 355 726 371 706 q 307 751 339 747 q 224 756 275 756 l 194 756 l 194 147 z "},"ď":{"ha":564,"x_min":39,"x_max":525,"o":"m 133 938 l 50 1065 l 194 1065 l 253 988 l 307 1071 l 451 1071 l 371 940 l 133 938 m 39 0 l 39 901 l 282 901 q 472 846 418 901 q 525 668 525 790 l 525 253 q 498 115 525 165 q 422 40 471 64 q 310 8 374 15 q 176 0 247 0 l 39 0 m 194 147 q 297 153 258 147 q 353 182 336 158 q 371 258 371 206 l 371 654 q 355 726 371 706 q 307 751 339 747 q 224 756 275 756 l 194 756 l 194 147 z "},"đ":{"ha":583,"x_min":25,"x_max":553,"o":"m 67 0 l 67 386 l 25 386 l 25 535 l 67 535 l 67 901 l 310 901 q 499 846 446 901 q 553 668 553 790 l 553 253 q 526 115 553 165 q 450 40 499 64 q 338 8 401 15 q 204 0 275 0 l 67 0 m 222 147 q 325 153 286 147 q 381 182 364 158 q 399 258 399 206 l 399 654 q 383 726 399 706 q 335 751 367 747 q 251 756 303 756 l 222 756 l 222 535 l 332 535 l 332 386 l 222 386 l 222 147 z "},"ð":{"ha":583,"x_min":25,"x_max":553,"o":"m 67 0 l 67 386 l 25 386 l 25 535 l 67 535 l 67 901 l 310 901 q 499 846 446 901 q 553 668 553 790 l 553 253 q 526 115 553 165 q 450 40 499 64 q 338 8 401 15 q 204 0 275 0 l 67 0 m 222 147 q 325 153 286 147 q 381 182 364 158 q 399 258 399 206 l 399 654 q 383 726 399 706 q 335 751 367 747 q 251 756 303 756 l 222 756 l 222 535 l 332 535 l 332 386 l 222 386 l 222 147 z "},"e":{"ha":519,"x_min":40,"x_max":479,"o":"m 40 0 l 40 901 l 479 901 l 479 756 l 196 756 l 196 546 l 396 546 l 396 399 l 196 399 l 196 147 l 479 147 l 479 0 l 40 0 z "},"é":{"ha":519,"x_min":40,"x_max":479,"o":"m 203 946 q 182 947 182 946 l 193 967 l 218 1006 l 254 1061 l 389 1061 l 314 949 l 247 947 l 203 946 m 40 0 l 40 901 l 479 901 l 479 756 l 196 756 l 196 546 l 396 546 l 396 399 l 196 399 l 196 147 l 479 147 l 479 0 l 40 0 z "},"ĕ":{"ha":519,"x_min":40,"x_max":479,"o":"m 264 943 q 144 976 185 943 q 101 1088 104 1010 l 192 1088 q 216 1039 197 1047 q 264 1031 235 1031 q 314 1039 294 1031 q 339 1088 333 1047 l 429 1088 q 385 976 426 1010 q 264 943 343 943 m 40 0 l 40 901 l 479 901 l 479 756 l 196 756 l 196 546 l 396 546 l 396 399 l 196 399 l 196 147 l 479 147 l 479 0 l 40 0 z "},"ě":{"ha":519,"x_min":40,"x_max":479,"o":"m 143 942 l 60 1065 l 204 1065 l 263 988 l 317 1067 l 461 1067 l 381 943 l 143 942 m 40 0 l 40 901 l 479 901 l 479 756 l 196 756 l 196 546 l 396 546 l 396 399 l 196 399 l 196 147 l 479 147 l 479 0 l 40 0 z "},"ê":{"ha":519,"x_min":40,"x_max":479,"o":"m 57 950 l 138 1076 l 375 1078 l 458 950 l 314 950 l 256 1025 l 201 950 l 57 950 m 40 0 l 40 901 l 479 901 l 479 756 l 196 756 l 196 546 l 396 546 l 396 399 l 196 399 l 196 147 l 479 147 l 479 0 l 40 0 z "},"ë":{"ha":519,"x_min":40,"x_max":479,"o":"m 319 950 q 299 951 299 950 l 299 1064 l 432 1064 l 431 951 l 364 950 l 319 950 m 103 946 q 82 947 82 946 l 82 1061 l 215 1061 l 214 949 l 147 947 l 103 946 m 40 0 l 40 901 l 479 901 l 479 756 l 196 756 l 196 546 l 396 546 l 396 399 l 196 399 l 196 147 l 479 147 l 479 0 l 40 0 z "},"ė":{"ha":519,"x_min":40,"x_max":479,"o":"m 263 943 q 203 961 221 943 q 185 1017 185 979 q 202 1074 185 1056 q 263 1092 219 1092 q 322 1074 304 1092 q 340 1017 340 1057 q 263 943 340 943 m 40 0 l 40 901 l 479 901 l 479 756 l 196 756 l 196 546 l 396 546 l 396 399 l 196 399 l 196 147 l 479 147 l 479 0 l 40 0 z "},"è":{"ha":519,"x_min":40,"x_max":479,"o":"m 228 946 q 207 947 207 946 l 193 967 l 164 1006 l 121 1061 l 256 1061 l 339 949 l 272 947 l 228 946 m 40 0 l 40 901 l 479 901 l 479 756 l 196 756 l 196 546 l 396 546 l 396 399 l 196 399 l 196 147 l 479 147 l 479 0 l 40 0 z "},"ē":{"ha":519,"x_min":40,"x_max":479,"o":"m 158 950 l 126 951 l 114 951 l 114 1064 l 399 1064 l 397 951 l 158 950 m 40 0 l 40 901 l 479 901 l 479 756 l 196 756 l 196 546 l 396 546 l 396 399 l 196 399 l 196 147 l 479 147 l 479 0 l 40 0 z "},"ę":{"ha":519,"x_min":43,"x_max":482,"o":"m 379 -187 q 344 -186 367 -187 q 293 -157 321 -185 q 270 -120 278 -142 q 263 -79 263 -99 q 279 -28 263 -49 q 319 0 293 -10 l 43 0 l 43 901 l 482 901 l 482 756 l 199 756 l 199 546 l 399 546 l 399 399 l 199 399 l 199 147 l 482 147 l 482 0 l 378 0 l 408 -53 l 401 -51 l 396 -51 q 365 -64 378 -51 q 354 -93 354 -79 q 372 -135 354 -117 q 417 -154 392 -154 q 428 -153 422 -154 q 440 -151 433 -153 l 432 -185 l 379 -187 z "},"f":{"ha":514,"x_min":42,"x_max":481,"o":"m 42 0 l 42 901 l 481 901 l 481 756 l 197 756 l 197 546 l 397 546 l 397 399 l 197 399 l 197 0 l 42 0 z "},"g":{"ha":558,"x_min":33,"x_max":519,"o":"m 276 0 q 88 52 142 0 q 33 229 33 104 l 33 674 q 88 849 33 797 q 276 901 142 901 q 466 847 413 901 q 519 667 519 792 l 360 667 l 357 704 q 348 745 353 735 q 319 756 343 756 l 276 756 q 208 743 228 756 q 188 674 188 731 l 188 229 q 197 175 188 192 q 229 154 207 158 q 289 147 251 150 l 296 147 q 352 178 340 147 q 364 278 364 210 l 364 356 l 236 356 l 236 503 l 519 503 l 519 340 q 513 193 519 257 q 482 87 506 129 q 409 22 458 44 q 276 0 360 0 z "},"ğ":{"ha":558,"x_min":33,"x_max":519,"o":"m 264 943 q 144 976 185 943 q 101 1088 104 1010 l 192 1088 q 216 1039 197 1047 q 264 1031 235 1031 q 314 1039 294 1031 q 339 1088 333 1047 l 429 1088 q 385 976 426 1010 q 264 943 343 943 m 276 0 q 88 52 142 0 q 33 229 33 104 l 33 674 q 88 849 33 797 q 276 901 142 901 q 466 847 413 901 q 519 667 519 792 l 360 667 l 357 704 q 348 745 353 735 q 319 756 343 756 l 276 756 q 208 743 228 756 q 188 674 188 731 l 188 229 q 197 175 188 192 q 229 154 207 158 q 289 147 251 150 l 296 147 q 352 178 340 147 q 364 278 364 210 l 364 356 l 236 356 l 236 503 l 519 503 l 519 340 q 513 193 519 257 q 482 87 506 129 q 409 22 458 44 q 276 0 360 0 z "},"ĝ":{"ha":558,"x_min":33,"x_max":519,"o":"m 79 944 l 160 1076 l 397 1078 l 481 950 l 336 950 l 278 1025 l 224 944 l 79 944 m 276 0 q 88 52 142 0 q 33 229 33 104 l 33 674 q 88 849 33 797 q 276 901 142 901 q 466 847 413 901 q 519 667 519 792 l 360 667 l 357 704 q 348 745 353 735 q 319 756 343 756 l 276 756 q 208 743 228 756 q 188 674 188 731 l 188 229 q 197 175 188 192 q 229 154 207 158 q 289 147 251 150 l 296 147 q 352 178 340 147 q 364 278 364 210 l 364 356 l 236 356 l 236 503 l 519 503 l 519 340 q 513 193 519 257 q 482 87 506 129 q 409 22 458 44 q 276 0 360 0 z "},"ģ":{"ha":558,"x_min":33,"x_max":519,"o":"m 276 0 q 88 52 142 0 q 33 229 33 104 l 33 674 q 88 849 33 797 q 276 901 142 901 q 466 847 413 901 q 519 667 519 792 l 360 667 l 357 704 q 348 745 353 735 q 319 756 343 756 l 276 756 q 208 743 228 756 q 188 674 188 731 l 188 229 q 197 175 188 192 q 229 154 207 158 q 289 147 251 150 l 296 147 q 352 178 340 147 q 364 278 364 210 l 364 356 l 236 356 l 236 503 l 519 503 l 519 340 q 513 193 519 257 q 482 87 506 129 q 409 22 458 44 q 276 0 360 0 m 244 -294 l 201 -268 q 226 -225 226 -251 q 213 -174 226 -193 l 206 -162 l 206 -164 q 190 -137 196 -154 q 189 -131 189 -135 q 189 -124 189 -126 q 210 -78 189 -106 q 278 -51 231 -51 q 325 -67 304 -51 q 350 -119 346 -82 l 351 -135 q 321 -222 351 -181 q 244 -294 290 -262 z "},"ġ":{"ha":558,"x_min":33,"x_max":519,"o":"m 278 943 q 218 961 236 943 q 200 1017 200 979 q 217 1074 200 1056 q 278 1092 235 1092 q 338 1074 319 1092 q 356 1017 356 1057 q 278 943 356 943 m 276 0 q 88 52 142 0 q 33 229 33 104 l 33 674 q 88 849 33 797 q 276 901 142 901 q 466 847 413 901 q 519 667 519 792 l 360 667 l 357 704 q 348 745 353 735 q 319 756 343 756 l 276 756 q 208 743 228 756 q 188 674 188 731 l 188 229 q 197 175 188 192 q 229 154 207 158 q 289 147 251 150 l 296 147 q 352 178 340 147 q 364 278 364 210 l 364 356 l 236 356 l 236 503 l 519 503 l 519 340 q 513 193 519 257 q 482 87 506 129 q 409 22 458 44 q 276 0 360 0 z "},"h":{"ha":574,"x_min":39,"x_max":524,"o":"m 39 0 l 39 901 l 194 901 l 194 547 l 371 547 l 371 901 l 524 901 l 524 0 l 371 0 l 371 399 l 194 399 l 194 0 l 39 0 z "},"ħ":{"ha":638,"x_min":36,"x_max":604,"o":"m 79 0 l 79 622 l 36 622 l 36 757 l 79 757 l 79 901 l 235 901 l 235 757 l 411 757 l 411 901 l 564 901 l 564 757 l 604 757 l 604 622 l 564 622 l 564 0 l 411 0 l 411 399 l 235 399 l 235 0 l 79 0 m 235 547 l 411 547 l 411 622 l 235 622 l 235 547 z "},"ĥ":{"ha":574,"x_min":39,"x_max":524,"o":"m 78 943 l 161 1075 l 379 1075 l 464 944 l 324 944 l 268 1022 l 211 943 l 78 943 m 39 0 l 39 901 l 194 901 l 194 547 l 371 547 l 371 901 l 524 901 l 524 0 l 371 0 l 371 399 l 194 399 l 194 0 l 39 0 z "},"i":{"ha":235,"x_min":39,"x_max":196,"o":"m 39 0 l 39 899 l 196 899 l 196 0 l 39 0 z "},"ı":{"ha":235,"x_min":39,"x_max":196,"o":"m 39 0 l 39 899 l 196 899 l 196 0 l 39 0 z "},"í":{"ha":235,"x_min":39,"x_max":251,"o":"m 65 946 q 44 947 44 946 l 56 967 l 81 1006 l 117 1061 l 251 1061 l 176 949 l 110 947 l 65 946 m 39 0 l 39 899 l 196 899 l 196 0 l 39 0 z "},"ĭ":{"ha":292,"x_min":-8,"x_max":310,"o":"m 149 943 q 32 976 69 943 q -8 1088 -6 1010 l 82 1088 q 103 1039 88 1047 q 149 1031 119 1031 q 197 1039 179 1031 q 219 1088 214 1047 l 310 1088 q 267 976 307 1010 q 149 943 228 943 m 71 0 l 71 899 l 228 899 l 228 0 l 71 0 z "},"î":{"ha":235,"x_min":-78,"x_max":324,"o":"m -78 942 l 3 1072 l 240 1075 l 324 947 l 179 947 l 121 1022 l 67 942 l -78 942 m 39 0 l 39 899 l 196 899 l 196 0 l 39 0 z "},"ï":{"ha":235,"x_min":-50,"x_max":288,"o":"m 175 950 q 154 951 154 950 l 154 1064 l 288 1064 l 286 951 l 219 950 l 175 950 m -29 946 q -50 947 -50 946 l -50 1061 l 83 1061 l 82 949 l 15 947 l -29 946 m 39 0 l 39 899 l 196 899 l 196 0 l 39 0 z "},"ì":{"ha":235,"x_min":-12,"x_max":206,"o":"m 94 946 q 74 947 74 946 l 60 967 l 31 1006 l -12 1061 l 122 1061 l 206 949 l 139 947 l 94 946 m 39 0 l 39 899 l 196 899 l 196 0 l 39 0 z "},"ī":{"ha":300,"x_min":11,"x_max":289,"o":"m 54 950 l 24 951 l 11 951 l 11 1064 l 289 1064 l 288 951 l 149 950 l 54 950 m 69 0 l 69 899 l 226 899 l 226 0 l 69 0 z "},"į":{"ha":235,"x_min":32,"x_max":210,"o":"m 149 -187 q 113 -186 136 -187 q 63 -157 90 -185 q 40 -120 47 -142 q 32 -79 32 -99 q 49 -28 32 -49 q 90 0 64 -8 l 40 0 l 40 899 l 197 899 l 197 0 l 147 0 l 178 -53 l 171 -51 l 165 -51 q 135 -64 147 -51 q 124 -93 124 -79 q 142 -135 124 -117 q 186 -154 161 -154 q 197 -153 192 -154 q 210 -151 203 -153 l 201 -185 l 149 -187 z "},"ĩ":{"ha":328,"x_min":-32,"x_max":382,"o":"m 31 929 l -32 985 l -28 993 l -8 1015 q 35 1049 6 1033 q 114 1074 72 1074 q 190 1049 153 1074 q 257 1022 229 1022 q 268 1024 264 1022 q 314 1058 292 1029 l 318 1065 l 382 1004 l 376 997 q 283 933 333 946 q 276 932 281 932 q 269 932 272 932 l 257 932 q 146 972 207 932 q 130 980 138 976 q 114 983 122 983 q 93 980 103 983 q 75 972 83 976 l 60 960 l 54 954 l 31 929 m 81 0 l 81 899 l 238 899 l 238 0 l 81 0 z "},"ĳ":{"ha":624,"x_min":54,"x_max":564,"o":"m 267 0 l 267 147 q 359 153 329 147 q 399 180 389 158 q 408 251 408 201 l 408 900 l 564 900 l 564 239 q 533 88 564 139 q 436 18 501 36 q 267 0 371 0 m 54 0 l 54 899 l 211 899 l 211 0 l 54 0 z "},"j":{"ha":372,"x_min":24,"x_max":321,"o":"m 24 0 l 24 147 q 116 153 86 147 q 156 180 146 158 q 165 251 165 201 l 165 900 l 321 900 l 321 239 q 290 88 321 139 q 193 18 258 36 q 24 0 128 0 z "},"ȷ":{"ha":372,"x_min":24,"x_max":321,"o":"m 24 0 l 24 147 q 116 153 86 147 q 156 180 146 158 q 165 251 165 201 l 165 900 l 321 900 l 321 239 q 290 88 321 139 q 193 18 258 36 q 24 0 128 0 z "},"ĵ":{"ha":392,"x_min":24,"x_max":418,"o":"m 47 943 l 132 1075 l 333 1075 l 418 944 l 290 944 l 232 1022 l 178 943 l 47 943 m 24 0 l 24 147 q 116 153 86 147 q 156 180 146 158 q 165 251 165 201 l 165 900 l 321 900 l 321 239 q 290 88 321 139 q 193 18 258 36 q 24 0 128 0 z "},"k":{"ha":560,"x_min":43,"x_max":531,"o":"m 43 0 l 43 901 l 199 901 l 199 553 q 288 646 253 590 q 343 767 322 701 q 376 901 364 833 l 531 901 q 494 738 518 821 q 426 582 469 656 q 314 451 383 508 q 425 322 382 394 q 493 167 468 249 q 531 0 518 85 l 376 0 q 344 129 365 63 q 288 254 322 196 q 199 350 253 313 l 199 0 l 43 0 z "},"ķ":{"ha":560,"x_min":43,"x_max":531,"o":"m 43 0 l 43 901 l 199 901 l 199 553 q 288 646 253 590 q 343 767 322 701 q 376 901 364 833 l 531 901 q 494 738 518 821 q 426 582 469 656 q 314 451 383 508 q 425 322 382 394 q 493 167 468 249 q 531 0 518 85 l 376 0 q 344 129 365 63 q 288 254 322 196 q 199 350 253 313 l 199 0 l 43 0 m 244 -294 l 201 -268 q 226 -225 226 -251 q 213 -174 226 -193 l 206 -162 l 206 -164 q 190 -137 196 -154 q 189 -131 189 -135 q 189 -124 189 -126 q 210 -78 189 -106 q 278 -51 231 -51 q 325 -67 304 -51 q 350 -119 346 -82 l 351 -135 q 321 -222 351 -181 q 244 -294 290 -262 z "},"ĸ":{"ha":560,"x_min":43,"x_max":531,"o":"m 43 0 l 43 901 l 199 901 l 199 553 q 288 646 253 590 q 343 767 322 701 q 376 901 364 833 l 531 901 q 494 738 518 821 q 426 582 469 656 q 314 451 383 508 q 425 322 382 394 q 493 167 468 249 q 531 0 518 85 l 376 0 q 344 129 365 63 q 288 254 322 196 q 199 350 253 313 l 199 0 l 43 0 z "},"l":{"ha":440,"x_min":44,"x_max":426,"o":"m 44 0 l 44 901 l 201 901 l 201 147 l 426 147 l 426 0 l 44 0 z "},"ĺ":{"ha":440,"x_min":44,"x_max":426,"o":"m 78 946 q 57 947 57 946 l 68 967 l 93 1006 l 129 1061 l 264 1061 l 189 949 l 122 947 l 78 946 m 44 0 l 44 901 l 201 901 l 201 147 l 426 147 l 426 0 l 44 0 z "},"ľ":{"ha":440,"x_min":44,"x_max":426,"o":"m 44 0 l 44 901 l 201 901 l 201 147 l 426 147 l 426 0 l 44 0 m 293 656 l 250 682 q 275 725 275 699 q 261 776 275 757 l 254 788 l 254 786 q 239 813 244 796 q 238 819 238 815 q 238 826 238 824 q 258 872 238 844 q 326 899 279 899 q 374 883 353 899 q 399 831 394 868 l 400 815 q 369 728 400 769 q 293 656 339 688 z "},"ļ":{"ha":440,"x_min":44,"x_max":426,"o":"m 44 0 l 44 901 l 201 901 l 201 147 l 426 147 l 426 0 l 44 0 m 213 -294 l 169 -268 q 194 -225 194 -251 q 181 -174 194 -193 l 174 -162 l 174 -164 q 158 -137 164 -154 q 157 -131 157 -135 q 157 -124 157 -126 q 178 -78 157 -106 q 246 -51 199 -51 q 293 -67 272 -51 q 318 -119 314 -82 l 319 -135 q 289 -222 319 -181 q 213 -294 258 -262 z "},"ŀ":{"ha":440,"x_min":44,"x_max":426,"o":"m 44 0 l 44 901 l 201 901 l 201 147 l 426 147 l 426 0 l 44 0 m 339 560 q 279 578 297 560 q 261 633 261 596 q 278 690 261 672 q 339 708 296 708 q 399 691 381 708 q 417 633 417 674 q 339 560 417 560 z "},"ł":{"ha":496,"x_min":18,"x_max":458,"o":"m 76 0 l 76 293 l 18 257 l 18 404 l 76 442 l 76 901 l 233 901 l 233 539 l 404 644 l 404 501 l 233 393 l 233 147 l 458 147 l 458 0 l 76 0 z "},"m":{"ha":763,"x_min":43,"x_max":721,"o":"m 43 0 l 43 907 l 197 907 l 381 472 l 567 907 l 721 907 l 721 0 l 565 0 l 565 504 l 436 204 l 326 204 l 199 504 l 199 0 l 43 0 z "},"n":{"ha":619,"x_min":40,"x_max":574,"o":"m 40 0 l 40 901 l 193 901 l 417 390 l 417 901 l 574 901 l 574 0 l 418 0 l 194 511 l 194 0 l 40 0 z "},"ń":{"ha":619,"x_min":40,"x_max":574,"o":"m 233 946 q 213 947 213 946 l 224 967 l 249 1006 l 285 1061 l 419 1061 l 344 949 l 278 947 l 233 946 m 40 0 l 40 901 l 193 901 l 417 390 l 417 901 l 574 901 l 574 0 l 418 0 l 194 511 l 194 0 l 40 0 z "},"ŉ":{"ha":822,"x_min":40,"x_max":776,"o":"m 96 674 l 53 700 q 78 743 78 717 q 64 794 78 775 l 57 806 l 57 804 q 42 831 47 814 q 40 838 40 833 q 40 844 40 842 q 61 890 40 863 q 129 917 82 917 q 176 901 156 917 q 201 849 197 886 l 203 833 q 172 747 203 788 q 96 674 142 706 m 243 0 l 243 901 l 396 901 l 619 390 l 619 901 l 776 901 l 776 0 l 621 0 l 397 511 l 397 0 l 243 0 z "},"ň":{"ha":619,"x_min":40,"x_max":574,"o":"m 179 929 l 96 1057 l 240 1057 l 299 979 l 353 1063 l 497 1063 l 417 932 l 179 929 m 40 0 l 40 901 l 193 901 l 417 390 l 417 901 l 574 901 l 574 0 l 418 0 l 194 511 l 194 0 l 40 0 z "},"ņ":{"ha":619,"x_min":40,"x_max":574,"o":"m 40 0 l 40 901 l 193 901 l 417 390 l 417 901 l 574 901 l 574 0 l 418 0 l 194 511 l 194 0 l 40 0 m 263 -294 l 219 -268 q 244 -225 244 -251 q 231 -174 244 -193 l 224 -162 l 224 -164 q 208 -137 214 -154 q 207 -131 207 -135 q 207 -124 207 -126 q 228 -78 207 -106 q 296 -51 249 -51 q 343 -67 322 -51 q 368 -119 364 -82 l 369 -135 q 339 -222 369 -181 q 263 -294 308 -262 z "},"ñ":{"ha":619,"x_min":40,"x_max":574,"o":"m 169 932 l 107 988 l 111 996 l 131 1018 q 174 1051 144 1036 q 253 1076 211 1076 q 329 1051 292 1076 q 396 1025 368 1025 q 407 1026 403 1025 q 453 1061 431 1032 l 457 1068 l 521 1007 l 515 1000 q 422 936 472 949 l 410 935 l 396 935 q 285 975 346 935 q 269 983 276 979 q 253 986 261 986 q 232 983 242 986 q 214 975 222 979 l 199 963 l 169 932 m 40 0 l 40 901 l 193 901 l 417 390 l 417 901 l 574 901 l 574 0 l 418 0 l 194 511 l 194 0 l 40 0 z "},"ŋ":{"ha":619,"x_min":44,"x_max":578,"o":"m 311 -240 l 311 -114 l 318 -114 q 390 -82 365 -114 q 422 1 415 -50 l 199 511 l 199 0 l 44 0 l 44 901 l 197 901 l 421 390 l 421 901 l 578 901 l 578 0 q 536 -148 578 -96 q 444 -219 494 -200 q 332 -240 394 -240 l 311 -240 z "},"o":{"ha":558,"x_min":35,"x_max":519,"o":"m 276 0 q 88 53 142 0 q 35 229 35 107 l 35 672 q 88 849 35 796 q 276 901 142 901 q 465 849 410 901 q 519 672 519 797 l 519 274 q 513 156 519 207 q 481 69 506 104 q 408 17 457 35 q 276 0 360 0 m 279 150 q 352 180 340 150 q 364 274 364 210 l 364 672 q 359 730 364 713 q 336 751 354 747 q 276 754 318 754 q 216 748 235 754 q 192 724 197 742 q 188 672 188 707 l 190 267 q 196 194 190 219 q 221 160 201 169 q 279 150 240 150 z "},"ó":{"ha":558,"x_min":35,"x_max":519,"o":"m 210 946 q 189 947 189 946 l 200 967 l 225 1006 l 261 1061 l 396 1061 l 321 949 l 254 947 l 210 946 m 276 0 q 88 53 142 0 q 35 229 35 107 l 35 672 q 88 849 35 796 q 276 901 142 901 q 465 849 410 901 q 519 672 519 797 l 519 274 q 513 156 519 207 q 481 69 506 104 q 408 17 457 35 q 276 0 360 0 m 279 150 q 352 180 340 150 q 364 274 364 210 l 364 672 q 359 730 364 713 q 336 751 354 747 q 276 754 318 754 q 216 748 235 754 q 192 724 197 742 q 188 672 188 707 l 190 267 q 196 194 190 219 q 221 160 201 169 q 279 150 240 150 z "},"ŏ":{"ha":558,"x_min":35,"x_max":519,"o":"m 269 943 q 150 976 190 943 q 107 1088 110 1010 l 197 1088 q 222 1039 203 1047 q 269 1031 240 1031 q 319 1039 300 1031 q 344 1088 339 1047 l 435 1088 q 390 976 432 1010 q 269 943 349 943 m 276 0 q 88 53 142 0 q 35 229 35 107 l 35 672 q 88 849 35 796 q 276 901 142 901 q 465 849 410 901 q 519 672 519 797 l 519 274 q 513 156 519 207 q 481 69 506 104 q 408 17 457 35 q 276 0 360 0 m 279 150 q 352 180 340 150 q 364 274 364 210 l 364 672 q 359 730 364 713 q 336 751 354 747 q 276 754 318 754 q 216 748 235 754 q 192 724 197 742 q 188 672 188 707 l 190 267 q 196 194 190 219 q 221 160 201 169 q 279 150 240 150 z "},"ô":{"ha":558,"x_min":35,"x_max":519,"o":"m 75 939 l 156 1072 l 393 1075 l 476 944 l 332 944 l 274 1022 l 219 939 l 75 939 m 276 0 q 88 53 142 0 q 35 229 35 107 l 35 672 q 88 849 35 796 q 276 901 142 901 q 465 849 410 901 q 519 672 519 797 l 519 274 q 513 156 519 207 q 481 69 506 104 q 408 17 457 35 q 276 0 360 0 m 279 150 q 352 180 340 150 q 364 274 364 210 l 364 672 q 359 730 364 713 q 336 751 354 747 q 276 754 318 754 q 216 748 235 754 q 192 724 197 742 q 188 672 188 707 l 190 267 q 196 194 190 219 q 221 160 201 169 q 279 150 240 150 z "},"ö":{"ha":558,"x_min":35,"x_max":519,"o":"m 346 950 q 325 951 325 950 l 325 1064 l 458 1064 l 457 951 l 390 950 l 346 950 m 129 946 q 108 947 108 946 l 108 1061 l 242 1061 l 240 949 l 174 947 l 129 946 m 276 0 q 88 53 142 0 q 35 229 35 107 l 35 672 q 88 849 35 796 q 276 901 142 901 q 465 849 410 901 q 519 672 519 797 l 519 274 q 513 156 519 207 q 481 69 506 104 q 408 17 457 35 q 276 0 360 0 m 279 150 q 352 180 340 150 q 364 274 364 210 l 364 672 q 359 730 364 713 q 336 751 354 747 q 276 754 318 754 q 216 748 235 754 q 192 724 197 742 q 188 672 188 707 l 190 267 q 196 194 190 219 q 221 160 201 169 q 279 150 240 150 z "},"ò":{"ha":558,"x_min":35,"x_max":519,"o":"m 250 943 q 229 944 229 943 l 215 964 l 186 1003 l 143 1058 l 278 1058 l 361 946 l 294 944 l 250 943 m 276 0 q 88 53 142 0 q 35 229 35 107 l 35 672 q 88 849 35 796 q 276 901 142 901 q 465 849 410 901 q 519 672 519 797 l 519 274 q 513 156 519 207 q 481 69 506 104 q 408 17 457 35 q 276 0 360 0 m 279 150 q 352 180 340 150 q 364 274 364 210 l 364 672 q 359 730 364 713 q 336 751 354 747 q 276 754 318 754 q 216 748 235 754 q 192 724 197 742 q 188 672 188 707 l 190 267 q 196 194 190 219 q 221 160 201 169 q 279 150 240 150 z "},"ő":{"ha":558,"x_min":35,"x_max":519,"o":"m 90 946 q 69 947 69 946 l 81 967 l 106 1006 l 142 1061 l 276 1061 l 201 949 l 135 947 l 90 946 m 318 946 q 297 947 297 946 l 308 967 l 333 1006 l 369 1061 l 504 1061 l 429 949 l 363 947 l 318 946 m 276 0 q 88 53 142 0 q 35 229 35 107 l 35 672 q 88 849 35 796 q 276 901 142 901 q 465 849 410 901 q 519 672 519 797 l 519 274 q 513 156 519 207 q 481 69 506 104 q 408 17 457 35 q 276 0 360 0 m 279 150 q 352 180 340 150 q 364 274 364 210 l 364 672 q 359 730 364 713 q 336 751 354 747 q 276 754 318 754 q 216 748 235 754 q 192 724 197 742 q 188 672 188 707 l 190 267 q 196 194 190 219 q 221 160 201 169 q 279 150 240 150 z "},"ō":{"ha":558,"x_min":35,"x_max":519,"o":"m 181 949 l 150 950 l 138 950 l 138 1063 l 415 1063 l 414 950 l 275 949 l 181 949 m 276 0 q 88 53 142 0 q 35 229 35 107 l 35 672 q 88 849 35 796 q 276 901 142 901 q 465 849 410 901 q 519 672 519 797 l 519 274 q 513 156 519 207 q 481 69 506 104 q 408 17 457 35 q 276 0 360 0 m 279 150 q 352 180 340 150 q 364 274 364 210 l 364 672 q 359 730 364 713 q 336 751 354 747 q 276 754 318 754 q 216 748 235 754 q 192 724 197 742 q 188 672 188 707 l 190 267 q 196 194 190 219 q 221 160 201 169 q 279 150 240 150 z "},"ø":{"ha":558,"x_min":39,"x_max":524,"o":"m 128 -32 l 50 0 l 78 71 q 39 229 39 122 l 39 672 q 92 849 39 796 q 281 901 146 901 q 351 898 319 901 q 407 886 382 894 l 428 938 l 506 906 l 479 840 q 513 772 503 813 q 524 672 524 731 l 524 274 q 517 156 524 207 q 485 69 510 104 q 413 17 461 35 q 281 0 364 0 q 149 19 204 0 l 128 -32 m 194 360 l 351 747 q 325 753 342 753 q 281 754 308 754 q 220 748 239 754 q 197 724 201 742 q 192 672 192 707 l 194 360 m 283 150 q 356 180 344 150 q 368 274 368 210 l 368 565 l 210 172 q 283 150 226 150 z "},"ǿ":{"ha":558,"x_min":39,"x_max":524,"o":"m 210 946 q 189 947 189 946 l 200 967 l 225 1006 l 261 1061 l 396 1061 l 321 949 l 254 947 l 210 946 m 128 -32 l 50 0 l 78 71 q 39 229 39 122 l 39 672 q 92 849 39 796 q 281 901 146 901 q 351 898 319 901 q 407 886 382 894 l 428 938 l 506 906 l 479 840 q 513 772 503 813 q 524 672 524 731 l 524 274 q 517 156 524 207 q 485 69 510 104 q 413 17 461 35 q 281 0 364 0 q 149 19 204 0 l 128 -32 m 194 360 l 351 747 q 325 753 342 753 q 281 754 308 754 q 220 748 239 754 q 197 724 201 742 q 192 672 192 707 l 194 360 m 283 150 q 356 180 344 150 q 368 274 368 210 l 368 565 l 210 172 q 283 150 226 150 z "},"õ":{"ha":558,"x_min":35,"x_max":519,"o":"m 135 929 l 72 985 l 76 993 l 96 1015 q 139 1049 110 1033 q 218 1074 176 1074 q 294 1049 257 1074 q 361 1022 333 1022 q 372 1024 368 1022 q 418 1058 396 1029 l 422 1065 l 486 1004 l 481 997 q 388 933 438 946 q 381 932 385 932 q 374 932 376 932 l 361 932 q 250 972 311 932 q 234 980 242 976 q 218 983 226 983 q 197 980 207 983 q 179 972 188 976 l 164 960 l 135 929 m 276 0 q 88 53 142 0 q 35 229 35 107 l 35 672 q 88 849 35 796 q 276 901 142 901 q 465 849 410 901 q 519 672 519 797 l 519 274 q 513 156 519 207 q 481 69 506 104 q 408 17 457 35 q 276 0 360 0 m 279 150 q 352 180 340 150 q 364 274 364 210 l 364 672 q 359 730 364 713 q 336 751 354 747 q 276 754 318 754 q 216 748 235 754 q 192 724 197 742 q 188 672 188 707 l 190 267 q 196 194 190 219 q 221 160 201 169 q 279 150 240 150 z "},"œ":{"ha":806,"x_min":35,"x_max":779,"o":"m 340 0 q 183 23 253 0 q 74 96 114 46 q 35 229 35 146 l 35 672 q 74 806 35 756 q 183 879 114 857 q 340 901 253 901 l 779 901 l 779 756 l 496 756 l 496 546 l 696 546 l 696 399 l 496 399 l 496 147 l 779 147 l 779 0 l 340 0 m 340 150 l 340 754 q 232 738 276 754 q 188 671 188 721 l 190 267 q 212 194 190 219 q 268 159 233 168 q 340 150 303 150 z "},"p":{"ha":563,"x_min":38,"x_max":531,"o":"m 38 0 l 38 900 l 282 900 q 444 868 392 900 q 514 781 497 836 q 531 653 531 725 l 531 622 l 529 592 l 529 567 l 528 539 q 505 407 528 454 q 438 340 482 360 q 333 315 394 319 q 194 311 271 311 l 194 0 l 38 0 m 194 457 q 296 458 260 457 q 349 467 332 460 q 369 492 365 475 q 374 543 374 510 l 374 668 q 353 732 374 714 q 300 752 332 750 q 233 754 268 754 l 194 754 l 194 457 z "},"þ":{"ha":544,"x_min":35,"x_max":519,"o":"m 35 0 l 35 907 l 192 907 l 192 793 q 232 797 211 796 q 276 799 253 799 q 465 747 410 799 q 519 569 519 694 l 519 369 q 513 251 519 303 q 481 165 506 200 q 408 113 457 131 q 276 96 360 96 q 232 98 253 96 q 192 103 211 100 l 192 0 l 35 0 m 279 246 q 352 276 340 246 q 364 369 364 306 l 364 569 q 359 627 364 610 q 336 648 354 644 q 276 651 318 651 q 215 646 232 651 q 192 621 199 640 l 192 315 q 213 260 194 275 q 279 246 231 246 z "},"q":{"ha":569,"x_min":39,"x_max":531,"o":"m 401 -90 l 333 3 l 271 0 q 97 50 154 0 q 39 229 39 100 l 39 672 q 92 848 39 794 q 282 901 146 901 q 472 849 418 901 q 525 672 525 796 l 525 251 q 520 153 525 203 q 481 63 515 103 l 496 44 l 510 24 l 531 -6 q 467 -48 503 -25 q 401 -90 432 -71 m 296 149 q 360 181 350 151 q 369 261 369 211 l 369 701 q 340 744 369 729 q 278 758 311 758 q 220 744 246 758 q 194 701 194 731 l 194 226 q 199 186 194 204 q 226 158 204 168 q 296 149 247 149 z "},"r":{"ha":569,"x_min":43,"x_max":533,"o":"m 43 0 l 43 901 l 288 901 q 444 872 389 901 q 518 776 500 842 q 529 708 526 749 q 532 632 532 668 q 532 579 532 596 q 526 472 532 524 q 494 383 521 421 q 406 326 468 344 l 533 0 l 367 0 l 244 311 l 199 311 l 199 0 l 43 0 m 199 457 q 299 460 263 457 q 353 474 336 463 q 374 512 369 486 q 378 585 378 538 q 378 626 378 597 q 374 687 378 656 q 356 733 369 718 q 288 756 333 756 l 199 756 l 199 457 z "},"ŕ":{"ha":569,"x_min":43,"x_max":533,"o":"m 203 946 q 182 947 182 946 l 193 967 l 218 1006 l 254 1061 l 389 1061 l 314 949 l 247 947 l 203 946 m 43 0 l 43 901 l 288 901 q 444 872 389 901 q 518 776 500 842 q 529 708 526 749 q 532 632 532 668 q 532 579 532 596 q 526 472 532 524 q 494 383 521 421 q 406 326 468 344 l 533 0 l 367 0 l 244 311 l 199 311 l 199 0 l 43 0 m 199 457 q 299 460 263 457 q 353 474 336 463 q 374 512 369 486 q 378 585 378 538 q 378 626 378 597 q 374 687 378 656 q 356 733 369 718 q 288 756 333 756 l 199 756 l 199 457 z "},"ř":{"ha":569,"x_min":43,"x_max":533,"o":"m 158 929 l 75 1057 l 219 1057 l 278 979 l 332 1063 l 476 1063 l 396 932 l 158 929 m 43 0 l 43 901 l 288 901 q 444 872 389 901 q 518 776 500 842 q 529 708 526 749 q 532 632 532 668 q 532 579 532 596 q 526 472 532 524 q 494 383 521 421 q 406 326 468 344 l 533 0 l 367 0 l 244 311 l 199 311 l 199 0 l 43 0 m 199 457 q 299 460 263 457 q 353 474 336 463 q 374 512 369 486 q 378 585 378 538 q 378 626 378 597 q 374 687 378 656 q 356 733 369 718 q 288 756 333 756 l 199 756 l 199 457 z "},"ŗ":{"ha":569,"x_min":43,"x_max":533,"o":"m 43 0 l 43 901 l 288 901 q 444 872 389 901 q 518 776 500 842 q 529 708 526 749 q 532 632 532 668 q 532 579 532 596 q 526 472 532 524 q 494 383 521 421 q 406 326 468 344 l 533 0 l 367 0 l 244 311 l 199 311 l 199 0 l 43 0 m 199 457 q 299 460 263 457 q 353 474 336 463 q 374 512 369 486 q 378 585 378 538 q 378 626 378 597 q 374 687 378 656 q 356 733 369 718 q 288 756 333 756 l 199 756 l 199 457 m 249 -294 l 206 -268 q 231 -225 231 -251 q 217 -174 231 -193 l 210 -162 l 210 -164 q 194 -137 200 -154 q 193 -131 193 -135 q 193 -124 193 -126 q 214 -78 193 -106 q 282 -51 235 -51 q 329 -67 308 -51 q 354 -119 350 -82 l 356 -135 q 325 -222 356 -181 q 249 -294 294 -262 z "},"s":{"ha":558,"x_min":35,"x_max":521,"o":"m 278 0 q 144 19 193 0 q 71 73 94 38 q 41 161 47 108 q 35 281 35 214 l 189 281 l 189 254 l 188 229 l 188 207 q 200 160 188 172 q 267 147 213 147 l 290 147 q 341 153 325 150 q 361 170 357 157 q 365 214 365 183 l 365 229 l 367 247 l 367 267 l 368 303 q 367 332 368 313 q 361 379 367 351 q 330 395 356 392 q 283 399 304 399 l 278 399 q 144 417 193 399 q 71 469 94 435 q 41 555 47 504 q 35 672 35 606 q 89 848 35 796 q 278 900 143 900 q 467 845 414 900 q 521 665 521 790 l 365 665 q 361 728 365 710 q 338 751 357 747 q 278 754 319 754 q 217 750 236 754 q 194 728 199 746 q 189 672 189 711 l 189 650 l 188 618 q 188 595 188 611 q 196 560 189 579 q 219 551 197 556 q 278 546 240 546 q 419 524 369 546 q 491 465 469 503 q 517 374 513 426 q 521 260 521 322 l 521 229 q 467 52 521 104 q 278 0 414 0 z "},"ś":{"ha":558,"x_min":35,"x_max":521,"o":"m 194 946 q 174 947 174 946 l 185 967 l 210 1006 l 246 1061 l 381 1061 l 306 949 l 239 947 l 194 946 m 278 0 q 144 19 193 0 q 71 73 94 38 q 41 161 47 108 q 35 281 35 214 l 189 281 l 189 254 l 188 229 l 188 207 q 200 160 188 172 q 267 147 213 147 l 290 147 q 341 153 325 150 q 361 170 357 157 q 365 214 365 183 l 365 229 l 367 247 l 367 267 l 368 303 q 367 332 368 313 q 361 379 367 351 q 330 395 356 392 q 283 399 304 399 l 278 399 q 144 417 193 399 q 71 469 94 435 q 41 555 47 504 q 35 672 35 606 q 89 848 35 796 q 278 900 143 900 q 467 845 414 900 q 521 665 521 790 l 365 665 q 361 728 365 710 q 338 751 357 747 q 278 754 319 754 q 217 750 236 754 q 194 728 199 746 q 189 672 189 711 l 189 650 l 188 618 q 188 595 188 611 q 196 560 189 579 q 219 551 197 556 q 278 546 240 546 q 419 524 369 546 q 491 465 469 503 q 517 374 513 426 q 521 260 521 322 l 521 229 q 467 52 521 104 q 278 0 414 0 z "},"š":{"ha":558,"x_min":35,"x_max":521,"o":"m 151 929 l 68 1057 l 213 1057 l 271 979 l 325 1063 l 469 1063 l 389 932 l 151 929 m 278 0 q 144 19 193 0 q 71 73 94 38 q 41 161 47 108 q 35 281 35 214 l 189 281 l 189 254 l 188 229 l 188 207 q 200 160 188 172 q 267 147 213 147 l 290 147 q 341 153 325 150 q 361 170 357 157 q 365 214 365 183 l 365 229 l 367 247 l 367 267 l 368 303 q 367 332 368 313 q 361 379 367 351 q 330 395 356 392 q 283 399 304 399 l 278 399 q 144 417 193 399 q 71 469 94 435 q 41 555 47 504 q 35 672 35 606 q 89 848 35 796 q 278 900 143 900 q 467 845 414 900 q 521 665 521 790 l 365 665 q 361 728 365 710 q 338 751 357 747 q 278 754 319 754 q 217 750 236 754 q 194 728 199 746 q 189 672 189 711 l 189 650 l 188 618 q 188 595 188 611 q 196 560 189 579 q 219 551 197 556 q 278 546 240 546 q 419 524 369 546 q 491 465 469 503 q 517 374 513 426 q 521 260 521 322 l 521 229 q 467 52 521 104 q 278 0 414 0 z "},"ş":{"ha":558,"x_min":35,"x_max":521,"o":"m 278 0 q 144 19 193 0 q 71 73 94 38 q 41 161 47 108 q 35 281 35 214 l 189 281 l 189 254 l 188 229 l 188 207 q 200 160 188 172 q 267 147 213 147 l 290 147 q 341 153 325 150 q 361 170 357 157 q 365 214 365 183 l 365 229 l 367 247 l 367 267 l 368 303 q 367 332 368 313 q 361 379 367 351 q 330 395 356 392 q 283 399 304 399 l 278 399 q 144 417 193 399 q 71 469 94 435 q 41 555 47 504 q 35 672 35 606 q 89 848 35 796 q 278 900 143 900 q 467 845 414 900 q 521 665 521 790 l 365 665 q 361 728 365 710 q 338 751 357 747 q 278 754 319 754 q 217 750 236 754 q 194 728 199 746 q 189 672 189 711 l 189 650 l 188 618 q 188 595 188 611 q 196 560 189 579 q 219 551 197 556 q 278 546 240 546 q 419 524 369 546 q 491 465 469 503 q 517 374 513 426 q 521 260 521 322 l 521 229 q 467 52 521 104 q 278 0 414 0 m 251 -193 q 222 -190 238 -193 q 196 -185 207 -187 l 186 -147 q 199 -149 193 -149 q 211 -150 206 -150 q 258 -133 239 -150 q 276 -93 276 -117 q 263 -62 276 -74 q 221 -53 250 -50 l 251 0 l 310 0 q 371 -79 371 -18 q 359 -128 371 -101 q 321 -174 347 -154 q 251 -193 294 -193 z "},"ŝ":{"ha":558,"x_min":35,"x_max":521,"o":"m 75 939 l 156 1072 l 393 1075 l 476 944 l 332 944 l 274 1022 l 219 939 l 75 939 m 278 0 q 144 19 193 0 q 71 73 94 38 q 41 161 47 108 q 35 281 35 214 l 189 281 l 189 254 l 188 229 l 188 207 q 200 160 188 172 q 267 147 213 147 l 290 147 q 341 153 325 150 q 361 170 357 157 q 365 214 365 183 l 365 229 l 367 247 l 367 267 l 368 303 q 367 332 368 313 q 361 379 367 351 q 330 395 356 392 q 283 399 304 399 l 278 399 q 144 417 193 399 q 71 469 94 435 q 41 555 47 504 q 35 672 35 606 q 89 848 35 796 q 278 900 143 900 q 467 845 414 900 q 521 665 521 790 l 365 665 q 361 728 365 710 q 338 751 357 747 q 278 754 319 754 q 217 750 236 754 q 194 728 199 746 q 189 672 189 711 l 189 650 l 188 618 q 188 595 188 611 q 196 560 189 579 q 219 551 197 556 q 278 546 240 546 q 419 524 369 546 q 491 465 469 503 q 517 374 513 426 q 521 260 521 322 l 521 229 q 467 52 521 104 q 278 0 414 0 z "},"ș":{"ha":558,"x_min":35,"x_max":521,"o":"m 278 0 q 144 19 193 0 q 71 73 94 38 q 41 161 47 108 q 35 281 35 214 l 189 281 l 189 254 l 188 229 l 188 207 q 200 160 188 172 q 267 147 213 147 l 290 147 q 341 153 325 150 q 361 170 357 157 q 365 214 365 183 l 365 229 l 367 247 l 367 267 l 368 303 q 367 332 368 313 q 361 379 367 351 q 330 395 356 392 q 283 399 304 399 l 278 399 q 144 417 193 399 q 71 469 94 435 q 41 555 47 504 q 35 672 35 606 q 89 848 35 796 q 278 900 143 900 q 467 845 414 900 q 521 665 521 790 l 365 665 q 361 728 365 710 q 338 751 357 747 q 278 754 319 754 q 217 750 236 754 q 194 728 199 746 q 189 672 189 711 l 189 650 l 188 618 q 188 595 188 611 q 196 560 189 579 q 219 551 197 556 q 278 546 240 546 q 419 524 369 546 q 491 465 469 503 q 517 374 513 426 q 521 260 521 322 l 521 229 q 467 52 521 104 q 278 0 414 0 m 251 -294 l 208 -268 q 233 -225 233 -251 q 219 -174 233 -193 l 213 -162 l 213 -164 q 197 -137 203 -154 q 196 -131 196 -135 q 196 -124 196 -126 q 217 -78 196 -106 q 285 -51 238 -51 q 332 -67 311 -51 q 357 -119 353 -82 l 358 -135 q 328 -222 358 -181 q 251 -294 297 -262 z "},"ß":{"ha":542,"x_min":32,"x_max":522,"o":"m 32 0 l 32 644 q 87 840 32 772 q 276 907 142 907 q 410 887 361 907 q 483 829 460 867 q 514 739 507 792 q 521 621 521 686 q 508 544 521 579 q 464 476 496 508 q 515 383 508 433 q 522 275 522 332 q 497 125 522 186 q 410 32 472 64 q 233 0 347 0 l 233 147 q 335 181 304 150 q 367 251 367 211 l 367 275 q 358 360 367 335 q 326 392 350 385 q 306 399 311 396 q 299 403 301 403 l 294 403 q 278 401 293 401 l 239 401 l 239 550 l 272 550 q 340 565 321 553 q 362 597 358 576 q 365 647 365 618 q 352 730 365 703 q 276 760 339 757 q 215 747 233 760 q 192 708 196 733 q 189 644 189 683 l 186 644 l 186 0 l 32 0 z "},"t":{"ha":413,"x_min":-18,"x_max":425,"o":"m 126 0 l 126 756 l -18 756 l -18 901 l 425 901 l 425 756 l 281 756 l 281 0 l 126 0 z "},"ŧ":{"ha":413,"x_min":-17,"x_max":426,"o":"m 128 0 l 128 493 l 14 493 l 14 597 l 128 597 l 128 756 l -17 756 l -17 901 l 426 901 l 426 756 l 282 756 l 282 597 l 396 597 l 396 493 l 282 493 l 282 0 l 128 0 z "},"ť":{"ha":413,"x_min":-18,"x_max":425,"o":"m 90 929 l 7 1057 l 151 1057 l 210 979 l 264 1063 l 408 1063 l 328 932 l 90 929 m 126 0 l 126 756 l -18 756 l -18 901 l 425 901 l 425 756 l 281 756 l 281 0 l 126 0 z "},"ţ":{"ha":413,"x_min":-18,"x_max":425,"o":"m 126 0 l 126 756 l -18 756 l -18 901 l 425 901 l 425 756 l 281 756 l 281 0 l 126 0 m 185 -294 l 142 -268 q 167 -225 167 -251 q 153 -174 167 -193 l 146 -162 l 146 -164 q 131 -137 136 -154 q 129 -131 129 -135 q 129 -124 129 -126 q 150 -78 129 -106 q 218 -51 171 -51 q 265 -67 244 -51 q 290 -119 286 -82 l 292 -135 q 261 -222 292 -181 q 185 -294 231 -262 z "},"ț":{"ha":413,"x_min":-18,"x_max":425,"o":"m 126 0 l 126 756 l -18 756 l -18 901 l 425 901 l 425 756 l 281 756 l 281 0 l 126 0 m 185 -294 l 142 -268 q 167 -225 167 -251 q 153 -174 167 -193 l 146 -162 l 146 -164 q 131 -137 136 -154 q 129 -131 129 -135 q 129 -124 129 -126 q 150 -78 129 -106 q 218 -51 171 -51 q 265 -67 244 -51 q 290 -119 286 -82 l 292 -135 q 261 -222 292 -181 q 185 -294 231 -262 z "},"u":{"ha":557,"x_min":35,"x_max":521,"o":"m 278 0 q 89 52 143 0 q 35 229 35 104 l 35 900 l 190 900 l 194 229 l 194 222 q 195 197 194 211 q 200 174 196 183 l 199 174 q 229 156 206 163 q 281 149 253 149 q 335 158 310 149 q 364 182 361 167 l 367 900 l 521 900 l 521 274 q 514 156 521 207 q 484 70 507 104 q 412 18 461 36 q 278 0 363 0 z "},"ú":{"ha":557,"x_min":35,"x_max":521,"o":"m 215 946 q 194 947 194 946 l 206 967 l 231 1006 l 267 1061 l 401 1061 l 326 949 l 260 947 l 215 946 m 278 0 q 89 52 143 0 q 35 229 35 104 l 35 900 l 190 900 l 194 229 l 194 222 q 195 197 194 211 q 200 174 196 183 l 199 174 q 229 156 206 163 q 281 149 253 149 q 335 158 310 149 q 364 182 361 167 q 365 233 364 192 q 365 335 365 274 q 365 469 365 397 q 366 613 365 542 q 367 747 367 685 q 367 849 367 808 q 367 900 367 890 l 521 900 l 521 274 q 514 156 521 207 q 484 70 507 104 q 412 18 461 36 q 278 0 363 0 z "},"ŭ":{"ha":557,"x_min":35,"x_max":521,"o":"m 278 943 q 161 976 199 943 q 121 1088 124 1010 l 211 1088 q 233 1039 217 1047 q 278 1031 249 1031 q 326 1039 308 1031 q 349 1088 343 1047 l 439 1088 q 397 976 436 1010 q 278 943 357 943 m 278 0 q 89 52 143 0 q 35 229 35 104 l 35 900 l 190 900 l 194 229 l 194 222 q 195 197 194 211 q 200 174 196 183 l 199 174 q 229 156 206 163 q 281 149 253 149 q 335 158 310 149 q 364 182 361 167 q 365 232 364 193 q 366 328 365 271 q 367 449 367 385 q 367 576 367 514 q 368 688 368 638 q 368 767 368 739 l 368 839 l 367 900 l 521 900 l 521 274 q 514 156 521 207 q 484 70 507 104 q 412 18 461 36 q 278 0 363 0 z "},"û":{"ha":557,"x_min":35,"x_max":521,"o":"m 78 939 l 158 1072 l 396 1075 l 479 944 l 335 944 l 276 1022 l 222 939 l 78 939 m 278 0 q 89 52 143 0 q 35 229 35 104 l 35 900 l 190 900 l 194 229 l 194 222 q 195 197 194 211 q 200 174 196 183 l 199 174 q 229 156 206 163 q 281 149 253 149 q 335 158 310 149 q 364 182 361 167 q 365 232 364 193 q 366 328 365 271 q 367 449 367 385 q 367 576 367 514 q 368 688 368 638 q 368 767 368 739 l 368 839 l 367 900 l 521 900 l 521 274 q 514 156 521 207 q 484 70 507 104 q 412 18 461 36 q 278 0 363 0 z "},"ü":{"ha":557,"x_min":35,"x_max":521,"o":"m 331 949 q 310 950 310 949 l 310 1063 l 443 1063 l 442 950 l 375 949 l 331 949 m 118 944 q 97 946 97 944 l 97 1060 l 231 1060 l 229 947 l 163 946 l 118 944 m 278 0 q 89 52 143 0 q 35 229 35 104 l 35 900 l 190 900 l 194 229 l 194 222 q 195 197 194 211 q 200 174 196 183 l 199 174 q 229 156 206 163 q 281 149 253 149 q 335 158 310 149 q 364 182 361 167 q 365 232 364 193 q 366 328 365 271 q 367 449 367 385 q 367 576 367 514 q 368 688 368 638 q 368 767 368 739 l 368 839 l 367 900 l 521 900 l 521 274 q 514 156 521 207 q 484 70 507 104 q 412 18 461 36 q 278 0 363 0 z "},"ù":{"ha":557,"x_min":35,"x_max":521,"o":"m 90 946 q 69 947 69 946 l 81 967 l 106 1006 l 142 1061 l 276 1061 l 201 949 l 135 947 l 90 946 m 318 946 q 297 947 297 946 l 308 967 l 333 1006 l 369 1061 l 504 1061 l 429 949 l 363 947 l 318 946 m 278 0 q 89 52 143 0 q 35 229 35 104 l 35 900 l 190 900 l 194 229 l 194 222 q 195 197 194 211 q 200 174 196 183 l 199 174 q 229 156 206 163 q 281 149 253 149 q 335 158 310 149 q 364 182 361 167 q 365 233 364 192 q 365 335 365 274 q 365 469 365 397 q 366 613 365 542 q 367 747 367 685 q 367 849 367 808 q 367 900 367 890 l 521 900 l 521 274 q 514 156 521 207 q 484 70 507 104 q 412 18 461 36 q 278 0 363 0 z "},"ű":{"ha":557,"x_min":35,"x_max":521,"o":"m 263 944 q 242 946 242 944 l 228 965 l 199 1004 l 156 1060 l 290 1060 l 374 947 l 307 946 l 263 944 m 278 0 q 89 52 143 0 q 35 229 35 104 l 35 900 l 190 900 l 194 229 l 194 222 q 195 197 194 211 q 200 174 196 183 l 199 174 q 229 156 206 163 q 281 149 253 149 q 335 158 310 149 q 364 182 361 167 q 365 233 364 192 q 365 335 365 274 q 365 469 365 397 q 366 613 365 542 q 367 747 367 685 q 367 849 367 808 q 367 900 367 890 l 521 900 l 521 274 q 514 156 521 207 q 484 70 507 104 q 412 18 461 36 q 278 0 363 0 z "},"ū":{"ha":557,"x_min":35,"x_max":521,"o":"m 174 950 l 143 951 l 131 951 l 131 1064 l 408 1064 l 407 951 l 268 950 l 174 950 m 278 0 q 89 52 143 0 q 35 229 35 104 l 35 900 l 190 900 l 194 229 l 194 222 q 195 197 194 211 q 200 174 196 183 l 199 174 q 229 156 206 163 q 281 149 253 149 q 335 158 310 149 q 364 182 361 167 l 367 900 l 521 900 l 521 274 q 514 156 521 207 q 484 70 507 104 q 412 18 461 36 q 278 0 363 0 z "},"ų":{"ha":557,"x_min":36,"x_max":522,"o":"m 322 -183 q 287 -182 310 -183 q 236 -153 264 -181 q 213 -116 221 -137 q 206 -75 206 -94 q 222 -24 206 -44 q 257 1 235 -8 q 84 60 132 4 q 36 231 36 117 l 36 901 l 192 901 l 196 231 l 196 224 q 197 199 196 213 q 201 175 197 185 l 200 175 q 231 157 207 164 q 282 150 254 150 q 337 159 311 150 q 365 183 363 168 l 368 707 l 368 901 l 522 901 l 522 275 q 511 135 522 194 q 458 42 500 76 q 322 3 417 8 l 351 -49 l 346 -47 l 339 -47 q 310 -60 321 -47 q 297 -89 297 -74 q 315 -131 297 -112 q 360 -150 335 -150 q 372 -149 365 -150 q 385 -147 378 -149 l 375 -181 l 322 -183 z "},"ů":{"ha":557,"x_min":35,"x_max":521,"o":"m 272 943 q 153 976 193 943 q 110 1088 113 1010 l 200 1088 q 224 1039 206 1047 q 272 1031 243 1031 q 322 1039 303 1031 q 347 1088 342 1047 l 438 1088 q 393 976 435 1010 q 272 943 351 943 m 278 0 q 89 52 143 0 q 35 229 35 104 l 35 900 l 190 900 l 194 229 l 194 222 q 195 197 194 211 q 200 174 196 183 l 199 174 q 229 156 206 163 q 281 149 253 149 q 335 158 310 149 q 364 182 361 167 l 367 900 l 521 900 l 521 274 q 514 156 521 207 q 484 70 507 104 q 412 18 461 36 q 278 0 363 0 z "},"ũ":{"ha":557,"x_min":35,"x_max":521,"o":"m 119 929 l 57 985 l 61 993 l 81 1015 q 124 1049 94 1033 q 203 1074 161 1074 q 279 1049 242 1074 q 346 1022 318 1022 q 357 1024 353 1022 q 403 1058 381 1029 l 407 1065 l 471 1004 l 465 997 q 372 933 422 946 q 365 932 369 932 q 358 932 361 932 l 346 932 q 235 972 296 932 q 219 980 226 976 q 203 983 211 983 q 182 980 192 983 q 164 972 172 976 l 149 960 l 119 929 m 278 0 q 89 52 143 0 q 35 229 35 104 l 35 900 l 190 900 l 194 229 l 194 222 q 195 197 194 211 q 200 174 196 183 l 199 174 q 229 156 206 163 q 281 149 253 149 q 335 158 310 149 q 364 182 361 167 l 367 900 l 521 900 l 521 274 q 514 156 521 207 q 484 70 507 104 q 412 18 461 36 q 278 0 363 0 z "},"v":{"ha":532,"x_min":18,"x_max":504,"o":"m 211 0 q 83 224 124 110 q 30 457 42 338 q 18 700 18 576 l 18 900 l 172 900 l 172 849 l 171 796 l 171 746 l 169 696 q 184 443 169 569 q 261 201 199 317 q 335 446 319 322 q 351 699 351 569 l 351 747 l 350 794 l 350 847 l 349 900 l 504 900 l 504 700 q 492 460 504 579 q 440 225 481 340 q 310 0 399 110 l 211 0 z "},"w":{"ha":875,"x_min":26,"x_max":842,"o":"m 219 0 q 91 228 132 114 q 38 460 50 342 q 26 704 26 578 l 26 901 l 182 901 l 182 846 l 181 792 l 181 743 l 179 696 q 194 445 179 565 q 268 203 208 325 q 343 442 328 318 q 358 693 358 567 l 358 744 l 357 794 l 357 849 l 356 901 l 511 901 l 511 850 l 510 799 l 510 751 l 508 704 q 525 445 508 574 q 600 201 542 317 q 673 440 657 315 q 689 693 689 565 l 689 744 l 688 794 l 688 849 l 686 901 l 842 901 l 842 708 q 830 463 842 582 q 777 228 818 343 q 650 0 736 114 l 547 0 q 485 95 514 46 q 433 194 456 144 q 384 97 413 146 q 319 0 356 47 l 219 0 z "},"ẃ":{"ha":875,"x_min":26,"x_max":842,"o":"m 372 946 q 351 947 351 946 l 363 967 l 388 1006 l 424 1061 l 558 1061 l 483 949 l 417 947 l 372 946 m 219 0 q 91 228 132 114 q 38 460 50 342 q 26 704 26 578 l 26 901 l 182 901 l 182 846 l 181 792 l 181 743 l 179 696 q 194 445 179 565 q 268 203 208 325 q 343 442 328 318 q 358 693 358 567 l 358 744 l 357 794 l 357 849 l 356 901 l 511 901 l 511 850 l 510 799 l 510 751 l 508 704 q 525 445 508 574 q 600 201 542 317 q 673 440 657 315 q 689 693 689 565 l 689 744 l 688 794 l 688 849 l 686 901 l 842 901 l 842 708 q 830 463 842 582 q 777 228 818 343 q 650 0 736 114 l 547 0 q 485 95 514 46 q 433 194 456 144 q 384 97 413 146 q 319 0 356 47 l 219 0 z "},"ŵ":{"ha":875,"x_min":26,"x_max":842,"o":"m 229 950 l 310 1076 l 547 1078 l 631 950 l 486 950 l 428 1025 l 374 950 l 229 950 m 219 0 q 91 228 132 114 q 38 460 50 342 q 26 704 26 578 l 26 901 l 182 901 l 182 846 l 181 792 l 181 743 l 179 696 q 194 445 179 565 q 268 203 208 325 q 343 442 328 318 q 358 693 358 567 l 358 744 l 357 794 l 357 849 l 356 901 l 511 901 l 511 850 l 510 799 l 510 751 l 508 704 q 525 445 508 574 q 600 201 542 317 q 673 440 657 315 q 689 693 689 565 l 689 744 l 688 794 l 688 849 l 686 901 l 842 901 l 842 708 q 830 463 842 582 q 777 228 818 343 q 650 0 736 114 l 547 0 q 485 95 514 46 q 433 194 456 144 q 384 97 413 146 q 319 0 356 47 l 219 0 z "},"ẅ":{"ha":875,"x_min":26,"x_max":842,"o":"m 496 950 q 475 951 475 950 l 475 1064 l 608 1064 l 607 951 l 540 950 l 496 950 m 279 946 q 258 947 258 946 l 258 1061 l 392 1061 l 390 949 l 324 947 l 279 946 m 219 0 q 91 228 132 114 q 38 460 50 342 q 26 704 26 578 l 26 901 l 182 901 l 182 846 l 181 792 l 181 743 l 179 696 q 194 445 179 565 q 268 203 208 325 q 343 442 328 318 q 358 693 358 567 l 358 744 l 357 794 l 357 849 l 356 901 l 511 901 l 511 850 l 510 799 l 510 751 l 508 704 q 525 445 508 574 q 600 201 542 317 q 673 440 657 315 q 689 693 689 565 l 689 744 l 688 794 l 688 849 l 686 901 l 842 901 l 842 708 q 830 463 842 582 q 777 228 818 343 q 650 0 736 114 l 547 0 q 485 95 514 46 q 433 194 456 144 q 384 97 413 146 q 319 0 356 47 l 219 0 z "},"ẁ":{"ha":875,"x_min":26,"x_max":842,"o":"m 383 947 q 363 949 363 947 l 349 968 l 319 1007 l 276 1063 l 411 1063 l 494 950 l 428 949 l 383 947 m 219 0 q 91 228 132 114 q 38 460 50 342 q 26 704 26 578 l 26 901 l 182 901 l 182 846 l 181 792 l 181 743 l 179 696 q 194 445 179 565 q 268 203 208 325 q 343 442 328 318 q 358 693 358 567 l 358 744 l 357 794 l 357 849 l 356 901 l 511 901 l 511 850 l 510 799 l 510 751 l 508 704 q 525 445 508 574 q 600 201 542 317 q 673 440 657 315 q 689 693 689 565 l 689 744 l 688 794 l 688 849 l 686 901 l 842 901 l 842 708 q 830 463 842 582 q 777 228 818 343 q 650 0 736 114 l 547 0 q 485 95 514 46 q 433 194 456 144 q 384 97 413 146 q 319 0 356 47 l 219 0 z "},"x":{"ha":556,"x_min":33,"x_max":519,"o":"m 33 0 l 33 104 q 40 228 33 171 q 75 341 47 286 q 163 451 103 396 q 76 560 103 506 q 41 674 49 615 q 33 799 33 733 l 33 901 l 188 901 l 188 868 l 186 833 l 186 807 l 185 781 q 200 660 185 717 q 275 553 215 604 q 352 665 338 607 q 367 786 367 722 l 367 810 l 365 836 l 365 869 l 364 901 l 519 901 l 519 799 q 512 676 519 735 q 476 562 504 617 q 389 451 449 507 q 477 341 450 396 q 512 228 504 286 q 519 104 519 171 l 519 0 l 364 0 l 365 35 l 365 68 l 367 94 l 367 118 q 351 238 367 183 q 275 349 336 293 q 200 242 215 296 q 185 122 185 189 l 186 96 l 186 69 l 188 36 l 188 0 l 33 0 z "},"y":{"ha":539,"x_min":24,"x_max":510,"o":"m 188 0 l 188 372 q 76 503 111 438 q 33 640 42 568 q 24 796 24 711 l 24 901 l 178 901 l 178 864 l 176 826 l 176 797 l 175 768 q 192 633 175 700 q 264 506 208 567 q 340 635 324 568 q 357 778 357 703 l 357 806 l 356 833 l 356 868 l 354 901 l 510 901 l 510 796 q 499 640 510 711 q 453 503 489 568 q 343 372 418 439 l 343 0 l 188 0 z "},"ý":{"ha":539,"x_min":24,"x_max":510,"o":"m 203 946 q 182 947 182 946 l 193 967 l 218 1006 l 254 1061 l 389 1061 l 314 949 l 247 947 l 203 946 m 188 0 l 188 372 q 76 503 111 438 q 33 640 42 568 q 24 796 24 711 l 24 901 l 178 901 l 178 864 l 176 826 l 176 797 l 175 768 q 192 633 175 700 q 264 506 208 567 q 340 635 324 568 q 357 778 357 703 l 357 806 l 356 833 l 356 868 l 354 901 l 510 901 l 510 796 q 499 640 510 711 q 453 503 489 568 q 343 372 418 439 l 343 0 l 188 0 z "},"ŷ":{"ha":539,"x_min":24,"x_max":510,"o":"m 65 939 l 146 1072 l 383 1075 l 467 944 l 322 944 l 264 1022 l 210 939 l 65 939 m 188 0 l 188 372 q 76 503 111 438 q 33 640 42 568 q 24 796 24 711 l 24 901 l 178 901 l 178 864 l 176 826 l 176 797 l 175 768 q 192 633 175 700 q 264 506 208 567 q 340 635 324 568 q 357 778 357 703 l 357 806 l 356 833 l 356 868 l 354 901 l 510 901 l 510 796 q 499 640 510 711 q 453 503 489 568 q 343 372 418 439 l 343 0 l 188 0 z "},"ÿ":{"ha":539,"x_min":24,"x_max":510,"o":"m 324 950 q 303 951 303 950 l 303 1064 l 436 1064 l 435 951 l 368 950 l 324 950 m 111 946 q 90 947 90 946 l 90 1061 l 224 1061 l 222 949 l 156 947 l 111 946 m 188 0 l 188 372 q 76 503 111 438 q 33 640 42 568 q 24 796 24 711 l 24 901 l 178 901 l 178 864 l 176 826 l 176 797 l 175 768 q 192 633 175 700 q 264 506 208 567 q 340 635 324 568 q 357 778 357 703 l 357 806 l 356 833 l 356 868 l 354 901 l 510 901 l 510 796 q 499 640 510 711 q 453 503 489 568 q 343 372 418 439 l 343 0 l 188 0 z "},"ỳ":{"ha":539,"x_min":24,"x_max":510,"o":"m 225 944 q 204 946 204 944 l 190 965 l 161 1004 l 118 1060 l 253 1060 l 336 947 l 269 946 l 225 944 m 188 0 l 188 372 q 76 503 111 438 q 33 640 42 568 q 24 796 24 711 l 24 901 l 178 901 l 178 864 l 176 826 l 176 797 l 175 768 q 192 633 175 700 q 264 506 208 567 q 340 635 324 568 q 357 778 357 703 l 357 806 l 356 833 l 356 868 l 354 901 l 510 901 l 510 796 q 499 640 510 711 q 453 503 489 568 q 343 372 418 439 l 343 0 l 188 0 z "},"z":{"ha":508,"x_min":31,"x_max":469,"o":"m 31 0 l 31 149 l 300 756 l 31 756 l 31 901 l 469 901 l 468 753 l 201 147 l 469 147 l 469 0 l 31 0 z "},"ź":{"ha":508,"x_min":31,"x_max":469,"o":"m 182 946 q 161 947 161 946 l 172 967 l 197 1006 l 233 1061 l 368 1061 l 293 949 l 226 947 l 182 946 m 31 0 l 31 149 l 300 756 l 31 756 l 31 901 l 469 901 l 468 753 l 201 147 l 469 147 l 469 0 l 31 0 z "},"ž":{"ha":508,"x_min":31,"x_max":469,"o":"m 133 929 l 50 1057 l 194 1057 l 253 979 l 307 1063 l 451 1063 l 371 932 l 133 929 m 31 0 l 31 149 l 300 756 l 31 756 l 31 901 l 469 901 l 468 753 l 201 147 l 469 147 l 469 0 l 31 0 z "},"ż":{"ha":508,"x_min":31,"x_max":469,"o":"m 182 946 q 161 947 161 946 l 172 967 l 197 1006 l 233 1061 l 368 1061 l 293 949 l 226 947 l 182 946 m 31 0 l 31 149 l 300 756 l 31 756 l 31 901 l 469 901 l 468 753 l 201 147 l 469 147 l 469 0 l 31 0 z "},"ª":{"ha":358,"x_min":40,"x_max":310,"o":"m 243 482 l 243 506 q 229 489 239 494 q 196 483 219 483 l 150 483 q 59 511 78 483 q 40 585 40 539 l 40 631 q 60 694 40 675 q 110 719 81 714 q 168 724 139 724 q 208 722 188 724 q 242 718 228 721 l 242 765 q 238 790 242 781 q 210 800 233 800 l 139 800 q 115 792 121 800 q 110 765 110 785 l 42 765 q 63 838 42 817 q 126 858 85 858 l 225 858 q 288 838 265 858 q 310 767 310 817 l 310 482 l 243 482 m 149 543 l 203 543 q 242 578 242 543 l 242 629 q 238 654 242 644 q 210 664 233 664 l 142 664 q 114 654 118 664 q 110 629 110 644 l 110 578 q 149 543 110 543 z "},"º":{"ha":357,"x_min":40,"x_max":314,"o":"m 150 483 q 117 485 132 483 q 90 490 101 488 q 50 526 60 503 q 40 585 40 550 l 40 757 q 50 815 40 792 q 90 851 60 839 q 117 856 101 854 q 150 858 132 858 l 204 858 q 238 856 224 858 q 264 851 253 854 q 305 815 296 839 q 314 757 314 792 l 314 585 q 305 526 314 550 q 264 490 296 503 q 238 485 253 488 q 204 483 224 483 l 150 483 m 147 543 l 207 543 q 244 578 244 543 l 244 764 q 207 799 244 799 l 147 799 q 110 764 110 799 l 110 578 q 114 557 110 565 q 147 543 124 543 z "},"⁄":{"ha":403,"x_min":28,"x_max":372,"o":"m 28 0 l 269 892 l 372 893 l 136 0 l 28 0 z "}," ":{"ha":376,"x_min":0,"x_max":0,"o":""}," ":{"ha":376,"x_min":0,"x_max":0,"o":""},"\r":{"ha":376,"x_min":0,"x_max":0,"o":""},";":{"ha":190,"x_min":13,"x_max":175,"o":"m 94 744 q 35 763 53 744 q 17 819 17 781 q 34 876 17 857 q 94 894 51 894 q 154 876 136 894 q 172 819 172 858 q 94 744 172 744 m 68 -96 l 25 -69 q 50 -26 50 -53 q 36 25 50 6 l 29 36 l 29 35 q 14 61 19 44 q 13 68 13 64 q 13 75 13 72 q 33 120 13 93 q 101 147 54 147 q 149 132 128 147 q 174 79 169 117 l 175 64 q 144 -23 175 18 q 68 -96 114 -64 z "},".":{"ha":190,"x_min":19,"x_max":175,"o":"m 97 0 q 38 18 56 0 q 19 74 19 36 q 37 131 19 113 q 97 149 54 149 q 157 131 139 149 q 175 74 175 114 q 97 0 175 0 z "},",":{"ha":193,"x_min":13,"x_max":175,"o":"m 68 -96 l 25 -69 q 50 -26 50 -53 q 36 25 50 6 l 29 36 l 29 35 q 14 61 19 44 q 13 68 13 64 q 13 75 13 72 q 33 120 13 93 q 101 147 54 147 q 149 132 128 147 q 174 79 169 117 l 175 64 q 144 -23 175 18 q 68 -96 114 -64 z "},":":{"ha":190,"x_min":17,"x_max":175,"o":"m 94 744 q 35 763 53 744 q 17 819 17 781 q 34 876 17 857 q 94 894 51 894 q 154 876 136 894 q 172 819 172 858 q 94 744 172 744 m 96 0 q 38 18 56 0 q 19 74 19 36 q 37 131 19 113 q 96 149 54 149 q 157 131 139 149 q 175 74 175 114 q 96 0 175 0 z "},";":{"ha":190,"x_min":13,"x_max":175,"o":"m 94 744 q 35 763 53 744 q 17 819 17 781 q 34 876 17 857 q 94 894 51 894 q 154 876 136 894 q 172 819 172 858 q 94 744 172 744 m 68 -96 l 25 -69 q 50 -26 50 -53 q 36 25 50 6 l 29 36 l 29 35 q 14 61 19 44 q 13 68 13 64 q 13 75 13 72 q 33 120 13 93 q 101 147 54 147 q 149 132 128 147 q 174 79 169 117 l 175 64 q 144 -23 175 18 q 68 -96 114 -64 z "},"…":{"ha":604,"x_min":19,"x_max":574,"o":"m 496 0 q 436 18 454 0 q 418 74 418 36 q 435 131 418 113 q 496 149 453 149 q 556 131 538 149 q 574 74 574 114 q 496 0 574 0 m 97 0 q 38 18 56 0 q 19 74 19 36 q 37 131 19 113 q 97 149 54 149 q 157 131 139 149 q 175 74 175 114 q 97 0 175 0 m 297 0 q 238 18 256 0 q 219 74 219 36 q 237 131 219 113 q 297 149 254 149 q 357 131 339 149 q 375 74 375 114 q 297 0 375 0 z "},"!":{"ha":232,"x_min":36,"x_max":193,"o":"m 36 222 l 36 904 l 193 904 l 193 222 l 36 222 m 114 0 q 54 17 72 0 q 36 74 36 33 q 54 131 36 114 q 114 147 72 147 q 175 131 157 147 q 193 74 193 114 q 175 17 193 33 q 114 0 157 0 z "},"¡":{"ha":232,"x_min":38,"x_max":194,"o":"m 117 757 q 56 774 74 757 q 38 831 38 790 q 56 888 38 871 q 117 904 74 904 q 176 888 158 904 q 194 831 194 871 q 176 774 194 790 q 117 757 158 757 m 38 0 l 38 682 l 194 682 l 194 0 l 38 0 z "},"?":{"ha":528,"x_min":15,"x_max":504,"o":"m 146 222 q 160 351 146 301 q 195 428 174 400 q 241 470 217 456 q 288 496 265 485 q 328 518 311 507 q 347 553 344 529 q 349 590 349 564 q 350 640 350 615 q 348 706 350 675 q 342 746 346 736 q 317 754 338 753 l 269 756 q 239 755 254 756 q 210 753 224 754 q 179 744 181 750 q 174 724 175 740 q 172 685 172 707 l 172 668 l 15 668 q 69 849 15 794 q 261 904 124 904 q 407 880 354 904 q 482 806 460 856 q 504 675 504 756 q 488 495 504 557 q 444 408 472 433 q 379 374 417 383 q 342 358 360 368 q 313 319 324 349 q 301 222 301 289 l 146 222 m 224 0 q 164 17 182 0 q 146 74 146 33 q 224 147 146 147 q 301 74 301 147 q 283 17 301 33 q 224 0 265 0 z "},"¿":{"ha":528,"x_min":19,"x_max":508,"o":"m 300 757 q 222 831 222 757 q 240 888 222 871 q 300 904 258 904 q 360 888 342 904 q 378 831 378 871 q 300 757 378 757 m 263 0 q 117 24 169 0 q 42 99 64 49 q 19 229 19 150 q 35 409 19 347 q 78 497 50 471 q 144 531 107 522 q 185 549 168 538 q 213 591 203 561 q 222 682 222 621 l 378 682 q 364 553 378 603 q 328 476 350 504 q 283 434 307 449 q 236 408 258 419 q 196 386 213 397 q 176 351 179 375 q 174 315 175 340 q 174 264 174 289 q 176 199 174 229 q 182 158 178 168 q 207 151 185 154 l 254 149 q 285 149 269 149 q 314 151 300 150 q 344 160 343 154 q 350 181 349 164 q 351 221 351 199 l 351 236 l 508 236 q 454 55 508 110 q 263 0 400 0 z "},"·":{"ha":372,"x_min":111,"x_max":247,"o":"m 181 344 q 131 365 151 344 q 111 414 111 385 q 131 462 111 442 q 181 482 151 482 q 228 462 208 482 q 247 414 247 442 q 228 365 247 385 q 181 344 208 344 z "},"•":{"ha":318,"x_min":40,"x_max":276,"o":"m 158 364 q 67 391 94 364 q 40 478 40 418 q 67 563 40 535 q 158 592 93 592 q 249 564 221 592 q 276 478 276 536 q 158 364 276 364 z "},"*":{"ha":369,"x_min":32,"x_max":349,"o":"m 146 540 l 67 592 l 126 671 l 32 658 l 32 753 l 126 740 l 64 822 l 149 871 l 189 776 l 231 871 l 314 822 l 251 740 l 349 753 l 349 658 l 251 671 l 314 592 l 231 543 l 189 638 l 146 540 z "},"‼":{"ha":464,"x_min":39,"x_max":414,"o":"m 257 222 l 257 904 l 414 904 l 414 222 l 257 222 m 39 222 l 39 904 l 196 904 l 196 222 l 39 222 m 117 0 q 57 17 75 0 q 39 74 39 33 q 57 131 39 114 q 117 147 75 147 q 178 131 160 147 q 196 74 196 114 q 178 17 196 33 q 117 0 160 0 m 335 0 q 275 17 293 0 q 257 74 257 33 q 275 131 257 114 q 335 147 293 147 q 396 131 378 147 q 414 74 414 114 q 396 17 414 33 q 335 0 378 0 z "},"#":{"ha":660,"x_min":32,"x_max":633,"o":"m 96 82 l 131 267 l 32 267 l 32 353 l 146 353 l 183 553 l 32 553 l 32 639 l 199 639 l 229 801 l 332 800 l 303 639 l 435 639 l 465 804 l 568 803 l 539 639 l 626 639 l 626 553 l 524 553 l 488 353 l 633 353 l 633 267 l 472 267 l 440 85 l 332 85 l 365 267 l 238 267 l 204 82 l 96 82 m 253 353 l 382 353 l 418 553 l 288 553 l 253 353 z "},"/":{"ha":403,"x_min":19,"x_max":388,"o":"m 19 0 l 285 893 l 388 892 l 128 0 l 19 0 z "},"\\":{"ha":403,"x_min":26,"x_max":394,"o":"m 286 0 l 26 892 l 129 893 l 394 0 l 286 0 z "},"-":{"ha":367,"x_min":33,"x_max":332,"o":"m 33 385 l 33 497 l 332 497 l 332 385 l 33 385 z "},"–":{"ha":478,"x_min":33,"x_max":446,"o":"m 33 385 l 33 497 l 446 497 l 446 385 l 33 385 z "},"—":{"ha":614,"x_min":33,"x_max":581,"o":"m 33 385 l 33 497 l 581 497 l 581 385 l 33 385 z "},"‒":{"ha":614,"x_min":33,"x_max":581,"o":"m 33 385 l 33 497 l 581 497 l 581 385 l 33 385 z "},"_":{"ha":446,"x_min":31,"x_max":410,"o":"m 31 -112 l 31 0 l 410 0 l 410 -112 l 31 -112 z "},"(":{"ha":232,"x_min":36,"x_max":333,"o":"m 333 -203 q 164 -185 229 -203 q 67 -115 99 -167 q 36 36 36 -62 l 36 869 q 67 1021 36 969 q 164 1090 99 1072 q 333 1108 229 1108 l 333 961 q 242 956 272 961 q 201 929 211 951 q 192 857 192 907 l 192 49 q 201 -23 192 -1 q 242 -50 211 -44 q 333 -56 272 -56 l 333 -203 z "},")":{"ha":256,"x_min":-83,"x_max":214,"o":"m -83 -204 l -83 -57 q 9 -51 -21 -57 q 49 -24 39 -46 q 58 47 58 -3 l 58 856 q 49 928 58 906 q 9 955 39 950 q -83 960 -21 960 l -83 1107 q 86 1089 21 1107 q 183 1019 151 1071 q 214 868 214 968 l 214 35 q 183 -117 214 -65 q 86 -186 151 -168 q -83 -204 21 -204 z "},"{":{"ha":349,"x_min":28,"x_max":428,"o":"m 428 -210 q 258 -192 324 -210 q 162 -122 193 -174 q 131 29 131 -69 l 131 206 q 126 243 129 225 q 117 279 122 261 q 85 336 106 308 q 28 375 65 364 l 28 489 q 85 528 65 500 q 117 586 106 557 q 126 623 122 604 q 131 661 129 642 l 131 863 q 162 1014 131 963 q 258 1083 193 1065 q 428 1101 324 1101 l 428 954 q 336 949 367 954 q 296 922 306 944 q 286 850 286 900 l 286 614 q 252 497 278 543 q 211 432 226 451 q 257 357 233 403 q 286 233 281 311 l 286 42 q 296 -30 286 -8 q 336 -57 306 -51 q 428 -62 367 -62 l 428 -210 z "},"}":{"ha":360,"x_min":-71,"x_max":329,"o":"m -71 -201 l -71 -54 q 22 -49 -8 -54 q 61 -22 51 -43 q 71 50 71 0 l 71 242 q 101 365 74 315 q 146 440 128 415 q 105 506 131 460 q 71 622 79 551 l 71 858 q 61 931 71 908 q 22 958 51 953 q -71 963 -8 963 l -71 1110 q 99 1092 33 1110 q 195 1022 164 1074 q 226 871 226 971 l 226 669 q 240 594 229 628 q 271 537 250 565 q 329 497 292 508 l 329 383 q 271 344 292 372 q 240 288 250 317 q 226 214 229 254 l 226 38 q 195 -114 226 -62 q 99 -183 164 -165 q -71 -201 33 -201 z "},"[":{"ha":258,"x_min":49,"x_max":372,"o":"m 49 -193 l 50 1085 l 372 1085 l 372 956 l 204 956 l 203 -53 l 371 -53 l 371 -193 l 49 -193 z "},"]":{"ha":261,"x_min":-111,"x_max":213,"o":"m -110 -196 l -110 -56 l 58 -56 l 57 953 l -111 953 l -111 1082 l 211 1082 l 213 -196 l -110 -196 z "},"‚":{"ha":238,"x_min":32,"x_max":194,"o":"m 88 -85 l 44 -58 q 69 -15 69 -42 q 56 36 69 17 l 49 47 l 49 46 q 33 72 39 56 q 32 79 32 75 q 32 86 32 83 q 53 131 32 104 q 121 158 74 158 q 168 143 147 158 q 193 90 189 128 l 194 75 q 164 -12 194 29 q 88 -85 133 -53 z "},"„":{"ha":424,"x_min":32,"x_max":393,"o":"m 286 -86 l 243 -60 q 268 -17 268 -43 q 254 35 268 15 l 247 46 l 247 44 q 232 71 238 54 q 231 78 231 74 q 231 85 231 82 q 251 130 231 103 q 319 157 272 157 q 367 142 346 157 q 392 89 388 126 l 393 74 q 363 -13 393 28 q 286 -86 332 -54 m 88 -87 l 44 -61 q 69 -18 69 -44 q 56 33 69 14 l 49 44 l 49 43 q 33 69 39 53 q 32 76 32 72 q 32 83 32 81 q 53 128 32 101 q 121 156 74 156 q 168 140 147 156 q 193 88 189 125 l 194 72 q 164 -15 194 26 q 88 -87 133 -56 z "},"“":{"ha":408,"x_min":21,"x_max":382,"o":"m 293 706 q 246 721 267 706 q 221 774 225 736 l 219 789 q 250 876 219 835 q 326 949 281 917 l 369 922 q 344 879 344 906 q 358 828 344 847 l 365 817 l 365 818 q 381 792 375 808 q 382 785 382 789 q 382 778 382 781 q 362 733 382 760 q 293 706 342 706 m 94 704 q 47 719 68 704 q 22 772 26 735 l 21 788 q 51 874 21 833 q 128 947 82 915 l 171 921 q 146 878 146 904 q 160 826 146 846 l 167 815 l 167 817 q 182 790 176 807 q 183 783 183 788 q 183 776 183 779 q 163 731 183 758 q 94 704 143 704 z "},"”":{"ha":424,"x_min":33,"x_max":394,"o":"m 288 697 l 244 724 q 269 767 269 740 q 256 818 269 799 l 249 829 l 249 828 q 233 854 239 838 q 232 861 232 857 q 232 868 232 865 q 253 913 232 886 q 321 940 274 940 q 368 925 347 940 q 393 872 389 910 l 394 857 q 364 770 394 811 q 288 697 333 729 m 89 696 l 46 722 q 71 765 71 739 q 57 817 71 797 l 50 828 l 50 826 q 35 853 40 836 q 33 860 33 856 q 33 867 33 864 q 54 912 33 885 q 122 939 75 939 q 169 924 149 939 q 194 871 190 908 l 196 856 q 165 769 196 810 q 89 696 135 728 z "},"‘":{"ha":242,"x_min":42,"x_max":204,"o":"m 115 699 q 68 714 89 699 q 43 767 47 729 l 42 782 q 72 869 42 828 q 149 942 103 910 l 192 915 q 167 872 167 899 q 181 821 167 840 l 188 810 l 188 811 q 203 785 197 801 q 204 778 204 782 q 204 771 204 774 q 184 726 204 753 q 115 699 164 699 z "},"’":{"ha":224,"x_min":28,"x_max":190,"o":"m 83 700 l 40 726 q 65 769 65 743 q 51 821 65 801 l 44 832 l 44 831 q 29 857 35 840 q 28 864 28 860 q 28 871 28 868 q 49 916 28 889 q 117 943 69 943 q 164 928 143 943 q 189 875 185 913 l 190 860 q 160 773 190 814 q 83 700 129 732 z "},"«":{"ha":479,"x_min":32,"x_max":444,"o":"m 333 307 l 226 483 l 333 663 l 444 663 l 354 483 l 444 307 l 333 307 m 139 307 l 32 483 l 139 663 l 250 663 l 160 483 l 250 307 l 139 307 z "},"»":{"ha":479,"x_min":38,"x_max":450,"o":"m 232 301 l 322 481 l 232 657 l 343 657 l 450 481 l 343 301 l 232 301 m 38 301 l 128 481 l 38 657 l 149 657 l 256 481 l 149 301 l 38 301 z "},"‹":{"ha":278,"x_min":35,"x_max":253,"o":"m 142 318 l 35 494 l 142 674 l 253 674 l 163 494 l 253 318 l 142 318 z "},"›":{"ha":286,"x_min":38,"x_max":256,"o":"m 38 301 l 128 481 l 38 657 l 149 657 l 256 481 l 149 301 l 38 301 z "},"\"":{"ha":351,"x_min":28,"x_max":331,"o":"m 44 672 q 28 674 28 672 l 28 906 l 163 906 l 131 675 l 79 674 l 44 672 m 211 674 q 196 675 196 674 l 196 906 l 331 906 l 296 675 l 246 674 l 211 674 z "},"'":{"ha":176,"x_min":24,"x_max":158,"o":"m 40 667 q 24 668 24 667 l 24 900 l 158 900 l 126 669 l 75 668 l 40 667 z "},"ƒ":{"ha":563,"x_min":39,"x_max":526,"o":"m 306 -72 l 306 1 q 283 -1 294 0 q 260 -1 271 -1 l 199 -1 l 199 -67 l 111 -67 l 111 -1 l 75 0 l 39 0 l 39 901 l 68 901 l 99 903 l 99 976 l 186 976 l 186 903 l 188 903 q 236 901 213 903 q 282 897 260 900 l 282 976 l 379 976 l 379 875 q 479 805 440 853 q 525 672 518 757 q 521 606 525 643 q 504 534 517 569 q 467 474 492 499 q 518 381 510 433 q 526 274 526 329 q 494 97 526 156 q 392 17 461 38 l 392 -72 l 306 -72 m 224 544 l 247 544 q 278 545 260 544 q 324 554 296 546 q 362 590 350 561 q 374 653 374 619 q 365 706 374 682 q 342 735 357 729 l 340 736 q 279 753 318 751 q 207 754 240 754 l 194 754 l 194 546 l 210 546 l 224 544 m 231 146 q 295 151 261 146 q 346 174 329 157 q 365 217 360 189 q 369 276 369 244 q 367 321 369 299 q 363 363 365 343 q 342 387 361 379 q 299 397 324 394 q 251 400 275 400 l 231 400 l 211 399 l 194 399 l 197 147 l 211 147 l 231 146 z "},"@":{"ha":915,"x_min":26,"x_max":889,"o":"m 474 19 q 244 67 344 19 q 85 204 143 114 q 26 421 26 294 q 56 585 26 507 q 145 726 86 664 q 290 825 204 789 q 488 861 375 861 q 697 815 611 861 q 828 691 783 768 q 872 521 872 614 q 832 365 872 438 q 724 248 792 293 q 571 203 656 203 q 517 213 538 203 q 485 242 496 224 q 368 203 433 203 q 284 224 325 203 q 217 286 243 244 q 192 392 192 328 q 208 496 192 443 q 258 592 225 549 q 336 663 290 636 q 440 690 382 690 q 503 678 476 690 q 550 646 529 667 l 557 676 l 697 676 l 639 413 q 626 352 629 369 q 622 326 622 335 q 636 314 622 314 q 691 340 660 314 q 746 411 722 365 q 769 514 769 457 q 692 694 769 626 q 485 761 615 761 q 294 715 372 761 q 174 590 215 668 q 132 415 132 513 q 181 245 132 313 q 312 144 231 178 q 489 111 393 111 q 597 125 540 111 q 702 167 653 139 q 781 235 751 194 l 889 235 q 781 113 847 160 q 636 42 715 65 q 474 19 557 19 m 396 306 q 461 334 433 306 q 503 408 489 363 q 518 500 518 453 q 502 562 518 536 q 450 588 486 588 q 384 556 411 588 q 343 481 357 525 q 329 399 329 438 q 346 331 329 356 q 396 306 363 306 z "},"&":{"ha":613,"x_min":32,"x_max":597,"o":"m 293 0 q 94 53 156 0 q 32 231 32 106 l 32 318 q 44 403 32 361 q 90 476 57 446 q 40 569 47 517 q 32 676 32 621 q 85 851 32 794 q 275 907 138 907 l 438 907 l 438 761 l 275 761 q 223 753 247 761 q 190 729 199 746 q 188 699 189 718 q 188 658 188 679 q 190 610 188 633 q 203 578 193 588 q 234 563 213 568 q 276 556 256 557 l 381 556 l 381 624 l 526 624 l 526 556 l 597 556 l 597 393 l 526 393 l 526 0 l 381 0 l 381 33 q 340 14 367 22 q 293 0 313 6 m 274 154 l 275 154 q 306 160 285 154 q 350 182 328 165 q 381 232 372 199 l 381 393 l 276 393 l 276 397 q 231 388 254 394 q 199 369 208 382 q 190 323 192 360 q 189 251 189 286 l 189 199 q 215 165 189 175 q 274 154 242 154 z "},"¶":{"ha":1157,"x_min":64,"x_max":957,"o":"m 349 -240 l 349 322 q 228 331 281 322 q 103 400 142 346 q 64 561 64 454 l 64 624 q 95 775 64 724 q 192 844 126 826 q 361 863 258 863 l 957 863 l 957 749 l 835 749 l 835 -240 l 711 -240 l 711 749 l 472 749 l 472 -240 l 349 -240 z "},"§":{"ha":558,"x_min":25,"x_max":511,"o":"m 268 -185 q 134 -166 183 -185 q 61 -112 85 -147 q 31 -24 38 -76 q 25 96 25 29 l 179 96 l 179 69 l 178 44 l 178 22 q 190 -25 178 -12 q 257 -37 203 -37 l 281 -37 q 333 -31 317 -35 q 352 -14 349 -28 q 356 29 356 0 l 358 88 l 358 113 l 357 138 q 351 194 357 171 q 319 210 346 206 q 274 214 292 214 l 268 214 q 134 232 183 214 q 61 285 85 250 q 31 370 38 319 q 25 488 25 421 q 33 576 25 538 q 60 642 40 614 q 31 726 36 676 q 25 843 25 776 q 79 1019 25 967 q 268 1071 133 1071 q 458 1016 404 1071 q 511 836 511 961 l 356 836 q 351 899 356 881 q 328 922 347 918 q 268 925 310 925 q 203 919 218 925 q 181 889 185 914 q 179 880 179 885 q 179 868 179 875 l 178 835 q 178 774 178 797 q 186 731 179 750 q 209 722 188 726 q 268 717 231 717 q 414 694 364 717 q 483 630 464 671 q 508 535 503 589 q 510 509 510 522 q 511 481 511 496 l 510 481 l 511 456 l 511 400 q 488 267 511 317 q 508 181 506 229 q 511 75 511 133 l 511 44 q 458 -133 511 -81 q 268 -185 404 -185 m 344 354 q 351 417 350 379 q 351 492 353 454 q 340 558 349 531 q 311 567 329 565 q 278 569 293 569 l 268 569 q 203 564 218 569 q 181 533 185 558 q 177 499 179 522 q 175 463 175 476 q 176 424 175 446 q 181 375 178 403 q 205 366 182 371 q 268 361 228 361 q 309 359 293 361 q 344 354 325 357 z "},"©":{"ha":550,"x_min":22,"x_max":528,"o":"m 275 367 q 147 401 204 367 q 56 494 89 436 q 22 619 22 551 q 56 745 22 688 q 148 838 90 803 q 275 872 206 872 q 404 837 347 872 q 494 744 461 801 q 528 619 528 688 q 494 491 528 549 q 403 400 461 433 q 275 367 346 367 m 275 415 q 376 442 331 415 q 450 516 422 469 q 478 619 478 563 q 451 721 478 675 q 378 794 424 767 q 275 822 332 822 q 174 795 221 822 q 100 722 128 768 q 72 619 72 676 q 100 516 72 563 q 174 442 128 469 q 275 415 221 415 m 272 458 q 203 476 222 458 q 185 539 185 494 l 185 697 q 203 760 185 742 q 272 778 222 778 q 340 758 321 778 q 358 694 358 739 l 303 694 q 299 722 303 718 q 272 726 296 726 q 245 722 249 726 q 242 697 242 718 l 242 529 q 253 517 243 521 q 275 513 264 513 q 289 514 283 513 q 299 517 294 515 q 306 538 306 519 q 304 544 306 543 q 303 551 303 546 l 303 558 l 358 558 q 346 485 358 511 q 272 458 333 458 z "},"®":{"ha":550,"x_min":22,"x_max":528,"o":"m 275 367 q 147 401 204 367 q 56 494 89 436 q 22 619 22 551 q 56 745 22 688 q 148 838 90 803 q 275 872 206 872 q 404 837 347 872 q 494 744 461 801 q 528 619 528 688 q 494 491 528 549 q 403 400 461 433 q 275 367 346 367 m 275 415 q 376 442 331 415 q 450 516 422 469 q 478 619 478 563 q 451 721 478 675 q 378 794 424 767 q 275 822 332 822 q 174 795 221 822 q 100 722 128 768 q 72 619 72 676 q 100 516 72 563 q 174 442 128 469 q 275 415 221 415 m 194 467 l 194 772 l 279 772 q 358 731 346 772 q 363 693 363 717 q 364 660 364 669 q 357 609 364 631 q 319 578 350 588 l 364 467 l 306 467 l 264 572 l 249 572 l 249 467 l 194 467 m 249 621 q 294 624 279 621 q 310 642 308 628 q 308 706 314 688 q 279 724 301 724 l 249 724 l 249 621 z "},"™":{"ha":478,"x_min":14,"x_max":454,"o":"m 194 553 l 194 901 l 254 901 l 325 735 l 396 901 l 454 901 l 454 553 l 394 553 l 394 747 l 346 632 l 304 632 l 254 747 l 254 553 l 194 553 m 68 553 l 68 843 l 14 843 l 14 899 l 183 899 l 183 843 l 128 843 l 128 553 l 68 553 z "},"°":{"ha":271,"x_min":33,"x_max":240,"o":"m 138 725 q 63 756 93 725 q 33 826 33 786 q 63 901 33 871 q 138 932 93 932 q 211 901 182 932 q 240 826 240 871 q 211 756 240 786 q 138 725 182 725 m 138 796 q 159 804 149 796 q 169 825 169 813 q 159 847 169 838 q 138 856 149 856 q 113 847 122 856 q 104 825 104 838 q 138 796 104 796 z "},"|":{"ha":207,"x_min":39,"x_max":163,"o":"m 39 -146 l 39 1049 l 163 1049 l 163 -146 l 39 -146 z "},"℮":{"ha":985,"x_min":56,"x_max":933,"o":"m 494 35 q 325 67 404 35 q 185 156 246 99 q 90 289 125 214 q 56 450 56 364 q 90 610 56 535 q 184 744 124 686 q 324 834 244 801 q 494 867 404 867 q 665 834 585 867 q 805 744 744 801 q 899 610 865 686 q 933 450 933 535 l 933 440 l 225 440 q 215 432 215 440 l 215 208 q 219 197 215 201 l 228 185 q 344 91 272 122 q 497 60 417 60 q 653 97 581 60 q 779 199 726 133 l 843 199 q 690 78 781 122 q 494 35 600 35 m 225 463 l 767 463 q 775 471 775 463 l 775 697 q 771 710 775 704 q 761 722 767 717 q 643 810 713 781 q 497 840 574 840 q 350 807 417 840 q 228 718 283 774 q 219 706 224 713 q 215 693 215 700 l 215 471 q 225 463 215 463 z "},"¢":{"ha":564,"x_min":39,"x_max":525,"o":"m 226 13 l 226 89 q 83 149 128 96 q 39 317 39 203 l 39 579 q 54 701 39 653 q 111 776 69 750 q 232 808 153 803 l 232 892 l 324 892 l 324 808 q 447 781 403 806 q 508 705 490 756 q 525 572 525 654 l 371 572 q 367 633 371 614 q 346 656 364 651 q 282 661 328 661 q 220 658 239 661 q 198 637 201 654 q 194 579 194 619 l 194 399 l 196 286 q 228 251 199 263 q 293 240 258 240 q 356 250 335 240 q 370 271 367 253 q 374 308 374 289 q 373 330 374 319 q 371 349 372 340 l 371 368 l 525 368 q 521 255 525 306 q 498 168 517 204 q 438 112 479 132 q 319 89 396 92 l 319 13 l 226 13 z "},"¤":{"ha":468,"x_min":17,"x_max":453,"o":"m 394 215 l 331 274 q 286 256 310 263 q 238 249 263 249 q 185 256 210 249 q 142 278 161 264 l 83 218 l 21 281 l 78 340 q 56 431 56 379 q 78 522 56 479 l 17 579 l 79 640 l 139 585 q 238 614 181 614 q 288 608 265 614 q 333 590 310 601 l 389 647 l 453 583 l 397 528 q 417 483 410 508 q 425 431 425 458 q 394 333 425 374 l 453 274 l 394 215 m 240 339 q 308 367 281 339 q 335 432 335 394 q 308 498 335 471 q 240 525 281 525 q 176 498 203 525 q 149 432 149 471 q 176 367 149 394 q 240 339 203 339 z "},"$":{"ha":558,"x_min":32,"x_max":518,"o":"m 192 -79 l 192 6 q 83 54 117 17 q 40 150 49 92 q 32 281 32 208 l 186 281 l 186 254 l 185 229 l 185 207 q 197 160 185 172 q 264 147 210 147 l 288 147 q 340 153 324 150 q 359 171 356 157 q 363 214 363 185 l 365 272 l 365 297 l 364 322 q 358 379 364 356 q 326 394 353 390 q 281 399 299 399 l 275 399 q 141 417 190 399 q 68 469 92 435 q 38 555 44 504 q 32 672 32 606 q 67 826 32 774 q 192 894 103 879 l 192 979 l 349 979 l 349 896 q 481 827 443 882 q 518 665 518 772 l 363 665 q 358 728 363 710 q 335 751 354 747 q 275 754 317 754 q 210 749 225 754 q 188 718 192 743 q 186 709 186 714 q 186 697 186 704 l 185 664 q 185 603 185 626 q 193 560 186 579 q 216 551 194 556 q 275 546 238 546 q 417 524 367 546 q 488 465 467 503 q 514 374 510 426 q 518 260 518 322 l 518 229 q 481 72 518 125 q 349 4 443 18 l 349 -79 l 192 -79 z "},"€":{"ha":572,"x_min":15,"x_max":546,"o":"m 303 -1 q 114 51 168 -1 q 60 228 60 103 l 60 331 l 15 331 l 15 392 l 60 392 l 60 514 l 15 514 l 15 575 l 60 575 l 60 671 q 113 846 60 792 q 303 900 165 900 q 492 846 438 900 q 546 664 546 792 l 392 664 q 388 724 392 706 q 367 748 385 743 q 303 753 349 753 q 241 749 260 753 q 219 728 222 746 q 215 671 215 711 l 215 575 l 374 575 l 374 514 l 215 514 l 215 392 l 374 392 l 374 331 l 217 331 l 217 197 q 249 163 219 174 q 314 151 279 151 q 376 161 356 151 q 391 182 388 164 q 394 219 394 200 q 394 241 394 231 q 392 260 393 251 l 392 279 l 546 279 q 540 160 546 213 q 510 72 533 107 q 438 17 486 36 q 303 -1 389 -1 z "},"£":{"ha":551,"x_min":32,"x_max":521,"o":"m 32 0 l 32 149 q 65 168 50 158 q 94 188 81 178 q 140 228 118 206 q 169 274 163 250 l 172 282 l 174 289 l 86 289 l 86 350 l 169 350 q 160 363 165 358 q 150 371 154 368 q 140 376 146 374 q 63 435 86 397 q 36 528 40 474 q 32 646 32 582 l 32 678 q 53 808 32 757 q 128 883 75 858 q 275 907 182 907 q 467 852 413 907 q 521 671 521 797 l 364 671 l 364 685 q 347 747 364 733 q 275 760 329 760 q 204 733 221 760 q 188 632 188 707 l 188 621 l 186 608 l 186 589 q 188 556 186 575 q 208 522 189 538 q 256 489 231 504 q 303 444 282 474 q 331 351 324 414 l 331 350 l 474 350 l 474 289 l 329 289 q 304 214 324 249 q 269 164 285 179 l 254 149 l 519 147 l 519 121 l 518 93 l 521 0 l 32 0 z "},"¥":{"ha":539,"x_min":28,"x_max":514,"o":"m 192 0 l 192 136 l 92 136 l 92 197 l 192 197 l 192 307 l 92 307 l 92 368 l 192 368 l 192 372 q 81 503 115 438 q 37 640 46 568 q 28 796 28 711 l 28 901 l 182 901 l 182 864 l 181 826 l 181 797 l 179 768 q 196 633 179 697 q 268 506 213 568 q 344 635 328 568 q 361 778 361 703 l 361 806 l 360 833 l 360 868 l 358 901 l 514 901 l 514 796 q 503 640 514 711 q 458 503 493 568 q 347 372 422 439 l 347 368 l 450 368 l 450 307 l 347 307 l 347 197 l 450 197 l 450 136 l 347 136 l 347 0 l 192 0 z "},"+":{"ha":625,"x_min":131,"x_max":496,"o":"m 257 258 l 257 385 l 131 385 l 131 497 l 257 497 l 257 624 l 369 624 l 369 497 l 496 497 l 496 385 l 369 385 l 369 258 l 257 258 z "},"−":{"ha":625,"x_min":39,"x_max":586,"o":"m 39 385 l 39 497 l 586 497 l 586 385 l 39 385 z "},"×":{"ha":625,"x_min":72,"x_max":554,"o":"m 151 256 l 72 335 l 233 496 l 72 657 l 151 738 l 313 576 l 474 738 l 554 657 l 393 496 l 554 335 l 474 256 l 313 417 l 151 256 z "},"÷":{"ha":625,"x_min":107,"x_max":519,"o":"m 314 574 q 240 604 269 574 q 210 675 210 635 q 240 750 210 719 q 314 781 269 781 q 388 750 358 781 q 417 675 417 719 q 388 604 417 635 q 314 574 358 574 m 314 644 q 335 653 325 644 q 346 674 346 661 q 335 695 346 686 q 314 704 325 704 q 290 695 299 704 q 281 674 281 686 q 314 644 281 644 m 107 425 l 107 538 l 519 538 l 519 425 l 107 425 m 313 176 q 238 207 268 176 q 208 278 208 238 q 238 353 208 322 q 313 383 268 383 q 386 353 357 383 q 415 278 415 322 q 386 207 415 238 q 313 176 357 176 m 313 247 q 334 256 324 247 q 344 276 344 264 q 334 298 344 289 q 313 307 324 307 q 288 298 297 307 q 279 276 279 289 q 313 247 279 247 z "},"=":{"ha":625,"x_min":110,"x_max":517,"o":"m 110 472 l 110 585 l 515 585 l 515 472 l 110 472 m 111 281 l 111 393 l 517 393 l 517 281 l 111 281 z "},"≠":{"ha":625,"x_min":110,"x_max":517,"o":"m 231 182 l 161 219 l 193 279 l 111 279 l 111 392 l 254 392 l 297 471 l 110 471 l 110 583 l 358 583 l 411 682 l 481 644 l 449 583 l 515 583 l 515 471 l 388 471 l 344 392 l 517 392 l 517 279 l 283 279 l 231 182 z "},">":{"ha":625,"x_min":129,"x_max":496,"o":"m 133 156 l 135 294 l 386 431 l 131 568 l 129 704 l 496 497 l 496 365 l 133 156 z "},"<":{"ha":625,"x_min":131,"x_max":496,"o":"m 492 163 l 131 368 l 131 496 l 496 699 l 494 565 l 240 432 l 490 299 l 492 163 z "},"≥":{"ha":625,"x_min":131,"x_max":496,"o":"m 135 340 l 136 476 l 385 610 l 132 743 l 131 876 l 494 674 l 494 546 l 135 340 m 131 179 l 131 297 l 496 297 l 496 179 l 131 179 z "},"≤":{"ha":625,"x_min":129,"x_max":496,"o":"m 492 340 l 131 546 l 131 674 l 496 876 l 494 743 l 240 610 l 490 476 l 492 340 m 129 179 l 129 297 l 496 297 l 496 179 l 129 179 z "},"±":{"ha":625,"x_min":129,"x_max":496,"o":"m 256 363 l 256 489 l 129 489 l 129 601 l 256 601 l 256 728 l 368 728 l 368 601 l 494 601 l 494 489 l 368 489 l 368 363 l 256 363 m 135 181 l 135 293 l 496 293 l 496 181 l 135 181 z "},"≈":{"ha":625,"x_min":104,"x_max":522,"o":"m 167 507 l 104 563 l 108 571 l 128 593 q 171 626 142 611 q 250 651 208 651 q 326 626 289 651 q 393 600 365 600 q 404 601 400 600 q 450 636 428 607 l 454 643 l 518 582 l 513 575 q 419 511 469 524 l 407 510 l 393 510 q 282 550 343 510 q 266 558 274 554 q 250 561 258 561 q 229 558 239 561 q 211 550 219 554 l 196 538 l 167 507 m 171 319 l 108 375 l 113 383 l 132 406 q 175 439 146 424 q 254 464 213 464 q 331 439 293 464 q 397 413 369 413 q 408 414 404 413 q 454 449 432 419 l 458 456 l 522 394 l 517 388 q 424 324 474 336 l 411 322 l 397 322 q 286 363 347 322 q 270 370 278 367 q 254 374 263 374 q 233 370 243 374 q 215 363 224 367 l 200 350 l 194 344 l 171 319 z "},"~":{"ha":625,"x_min":11,"x_max":614,"o":"m 101 343 l 93 349 l 11 418 l 17 431 q 47 461 24 438 q 107 506 69 485 q 224 540 164 540 q 335 506 278 540 q 428 469 390 469 q 438 470 433 469 q 447 472 442 471 q 514 518 488 479 l 521 528 l 614 444 l 606 435 q 469 349 542 365 l 450 347 l 432 347 q 271 401 357 347 q 246 413 257 408 q 224 417 235 417 q 165 401 193 417 q 142 383 151 392 q 125 368 132 375 l 108 353 l 101 343 z "},"^":{"ha":625,"x_min":44,"x_max":581,"o":"m 44 518 l 247 883 l 375 883 l 581 522 l 444 524 l 311 774 l 178 519 l 44 518 z "},"∞":{"ha":1083,"x_min":25,"x_max":1053,"o":"m 288 158 q 137 201 194 158 q 52 313 79 244 q 25 454 25 381 q 51 594 25 528 q 135 703 78 661 q 283 746 192 746 q 426 706 369 746 q 531 586 482 665 l 538 586 q 640 700 581 654 q 790 746 700 746 q 941 703 883 746 q 1026 594 999 661 q 1053 451 1053 526 q 1025 310 1053 376 q 940 201 997 243 q 793 158 883 158 q 651 199 708 158 q 546 318 594 239 l 538 318 q 438 206 496 253 q 288 158 379 158 m 297 300 q 391 338 358 300 q 446 425 424 376 l 463 461 q 423 521 444 486 q 372 582 401 556 q 297 608 343 608 q 206 565 239 608 q 172 454 172 521 q 205 345 172 390 q 297 300 238 300 m 779 296 q 871 340 838 296 q 904 451 904 385 q 872 561 904 515 q 779 607 840 607 q 712 587 739 607 q 666 538 685 567 q 632 481 647 508 l 611 444 q 651 385 631 421 q 703 323 672 350 q 779 296 733 296 z "},"%":{"ha":658,"x_min":14,"x_max":644,"o":"m 117 0 l 413 893 l 544 893 l 244 0 l 117 0 m 140 471 q 39 494 64 471 q 14 565 14 517 l 14 799 q 39 870 14 847 q 140 893 64 893 q 244 870 219 893 q 268 799 268 847 l 268 583 q 261 522 268 547 q 227 484 254 497 q 140 471 200 471 m 142 550 q 159 558 156 550 q 163 589 163 567 l 163 782 q 160 808 163 800 q 140 817 157 817 q 121 807 124 817 q 118 782 118 797 l 118 588 q 122 559 118 568 q 142 550 125 550 m 517 -1 q 415 22 440 -1 q 390 93 390 44 l 390 326 q 415 398 390 375 q 517 421 440 421 q 620 398 596 421 q 644 326 644 375 l 644 111 q 638 50 644 75 q 603 12 631 25 q 517 -1 576 -1 m 518 78 q 535 86 532 78 q 539 117 539 94 l 539 310 q 536 336 539 328 q 517 344 533 344 q 497 335 500 344 q 494 310 494 325 l 494 115 q 498 87 494 96 q 518 78 501 78 z "},"‰":{"ha":936,"x_min":14,"x_max":922,"o":"m 117 0 l 413 893 l 544 893 l 244 0 l 117 0 m 140 471 q 39 494 64 471 q 14 565 14 517 l 14 799 q 39 870 14 847 q 140 893 64 893 q 244 870 219 893 q 268 799 268 847 l 268 583 q 261 522 268 547 q 227 484 254 497 q 140 471 200 471 m 142 550 q 159 558 156 550 q 163 589 163 567 l 163 782 q 160 808 163 800 q 140 817 157 817 q 121 807 124 817 q 118 782 118 797 l 118 588 q 122 559 118 568 q 142 550 125 550 m 517 -1 q 415 22 440 -1 q 390 93 390 44 l 390 326 q 415 398 390 375 q 517 421 440 421 q 620 398 596 421 q 644 326 644 375 l 644 111 q 638 50 644 75 q 603 12 631 25 q 517 -1 576 -1 m 794 -1 q 693 22 718 -1 q 668 93 668 44 l 668 326 q 693 398 668 375 q 794 421 718 421 q 898 398 874 421 q 922 326 922 375 l 922 111 q 915 50 922 75 q 881 12 908 25 q 794 -1 854 -1 m 518 78 q 535 86 532 78 q 539 117 539 94 l 539 310 q 536 336 539 328 q 517 344 533 344 q 497 335 500 344 q 494 310 494 325 l 494 115 q 498 87 494 96 q 518 78 501 78 m 796 78 q 813 86 810 78 q 817 117 817 94 l 817 310 q 814 336 817 328 q 794 344 811 344 q 775 335 778 344 q 772 310 772 325 l 772 115 q 776 87 772 96 q 796 78 779 78 z "},"̈":{"ha":0,"x_min":72,"x_max":417,"o":"m 72 949 l 72 1061 l 204 1061 l 204 949 l 72 949 m 285 949 l 285 1061 l 417 1061 l 417 949 l 285 949 z "},"̇":{"ha":0,"x_min":40,"x_max":172,"o":"m 40 949 l 40 1061 l 172 1061 l 172 949 l 40 949 z "},"̀":{"ha":0,"x_min":22,"x_max":240,"o":"m 108 947 l 22 1063 l 157 1063 l 240 947 l 108 947 z "},"́":{"ha":0,"x_min":132,"x_max":339,"o":"m 132 947 l 204 1061 l 339 1061 l 264 947 l 132 947 z "},"̋":{"ha":0,"x_min":69,"x_max":504,"o":"m 318 946 q 297 947 297 946 q 308 967 297 947 q 320 986 314 976 q 333 1006 326 996 l 369 1061 l 504 1061 l 429 949 l 363 947 q 339 946 350 946 q 318 946 328 946 m 90 946 q 69 947 69 946 q 81 967 69 947 q 92 986 86 976 q 106 1006 99 996 l 142 1061 l 276 1061 l 201 949 l 135 947 q 111 946 122 946 q 90 946 100 946 z "},"̂":{"ha":0,"x_min":40,"x_max":431,"o":"m 40 943 l 124 1075 l 346 1075 l 431 944 l 286 944 l 228 1022 l 174 943 l 40 943 z "},"̌":{"ha":0,"x_min":54,"x_max":456,"o":"m 138 936 l 54 1064 l 199 1064 l 257 986 l 311 1069 l 456 1069 l 375 936 l 138 936 z "},"̆":{"ha":0,"x_min":107,"x_max":435,"o":"m 269 943 q 150 976 190 943 q 107 1088 110 1010 l 197 1088 q 222 1039 203 1047 q 269 1031 240 1031 q 319 1039 300 1031 q 344 1088 339 1047 l 435 1088 q 390 976 432 1010 q 269 943 349 943 z "},"̊":{"ha":0,"x_min":147,"x_max":354,"o":"m 251 932 q 177 963 207 932 q 147 1033 147 993 q 177 1108 147 1078 q 251 1139 207 1139 q 325 1108 296 1139 q 354 1033 354 1078 q 325 963 354 993 q 251 932 296 932 m 251 1003 q 273 1011 263 1003 q 283 1032 283 1019 q 273 1053 283 1044 q 251 1063 263 1063 q 227 1053 236 1063 q 218 1032 218 1044 q 251 1003 218 1003 z "},"̃":{"ha":0,"x_min":60,"x_max":474,"o":"m 122 929 l 60 985 q 138 1060 107 1046 q 199 1074 168 1074 q 256 1061 229 1074 q 305 1035 282 1049 q 349 1022 328 1022 q 380 1033 367 1022 q 410 1065 393 1043 l 474 1004 q 408 944 435 957 q 349 932 381 932 q 287 945 314 932 q 239 971 260 958 q 199 983 218 983 q 157 967 174 983 q 122 929 140 950 z "},"̄":{"ha":0,"x_min":11,"x_max":289,"o":"m 11 951 l 11 1064 l 289 1064 l 289 951 l 11 951 z "},"̅":{"ha":0,"x_min":11,"x_max":289,"o":"m 11 951 l 11 1064 l 289 1064 l 289 951 l 11 951 z "},"̦":{"ha":0,"x_min":107,"x_max":268,"o":"m 163 -94 l 119 -68 q 144 -21 144 -51 q 135 19 144 8 q 117 42 126 31 q 107 76 107 53 q 127 124 107 99 q 190 149 147 149 q 244 131 221 149 q 268 64 268 113 q 238 -23 268 17 q 163 -94 207 -62 z "},"̧":{"ha":0,"x_min":103,"x_max":288,"o":"m 168 -193 q 139 -190 154 -193 q 113 -185 124 -187 l 103 -147 q 116 -149 110 -149 q 128 -150 122 -150 q 174 -133 156 -150 q 193 -93 193 -117 q 180 -62 193 -74 q 138 -53 167 -50 l 168 0 l 226 0 q 288 -79 288 -18 q 276 -128 288 -101 q 238 -174 264 -154 q 168 -193 211 -193 z "},"̨":{"ha":0,"x_min":94,"x_max":294,"o":"m 225 -189 q 128 -157 161 -189 q 94 -81 94 -125 q 129 -15 94 -29 q 224 -4 164 -1 l 257 -56 q 213 -64 228 -53 q 197 -94 197 -75 q 219 -133 197 -119 q 261 -146 242 -146 q 280 -145 272 -146 q 294 -143 288 -144 l 288 -176 q 257 -185 274 -182 q 225 -189 240 -189 z "},"¨":{"ha":492,"x_min":72,"x_max":417,"o":"m 72 949 l 72 1061 l 204 1061 l 204 949 l 72 949 m 285 949 l 285 1061 l 417 1061 l 417 949 l 285 949 z "},"˙":{"ha":203,"x_min":40,"x_max":172,"o":"m 40 949 l 40 1061 l 172 1061 l 172 949 l 40 949 z "},"`":{"ha":260,"x_min":22,"x_max":240,"o":"m 108 947 l 22 1063 l 157 1063 l 240 947 l 108 947 z "},"´":{"ha":454,"x_min":132,"x_max":339,"o":"m 132 947 l 204 1061 l 339 1061 l 264 947 l 132 947 z "},"˝":{"ha":539,"x_min":69,"x_max":504,"o":"m 318 946 q 297 947 297 946 q 308 967 297 947 q 320 986 314 976 q 333 1006 326 996 l 369 1061 l 504 1061 l 429 949 l 363 947 q 339 946 350 946 q 318 946 328 946 m 90 946 q 69 947 69 946 q 81 967 69 947 q 92 986 86 976 q 106 1006 99 996 l 142 1061 l 276 1061 l 201 949 l 135 947 q 111 946 122 946 q 90 946 100 946 z "},"ˆ":{"ha":472,"x_min":40,"x_max":431,"o":"m 40 943 l 124 1075 l 346 1075 l 431 944 l 286 944 l 228 1022 l 174 943 l 40 943 z "},"ˇ":{"ha":499,"x_min":54,"x_max":456,"o":"m 138 936 l 54 1064 l 199 1064 l 257 986 l 311 1069 l 456 1069 l 375 936 l 138 936 z "},"˘":{"ha":553,"x_min":107,"x_max":435,"o":"m 269 943 q 150 976 190 943 q 107 1088 110 1010 l 197 1088 q 222 1039 203 1047 q 269 1031 240 1031 q 319 1039 300 1031 q 344 1088 339 1047 l 435 1088 q 390 976 432 1010 q 269 943 349 943 z "},"˚":{"ha":518,"x_min":147,"x_max":354,"o":"m 251 932 q 177 963 207 932 q 147 1033 147 993 q 177 1108 147 1078 q 251 1139 207 1139 q 325 1108 296 1139 q 354 1033 354 1078 q 325 963 354 993 q 251 932 296 932 m 251 1003 q 273 1011 263 1003 q 283 1032 283 1019 q 273 1053 283 1044 q 251 1063 263 1063 q 227 1053 236 1063 q 218 1032 218 1044 q 251 1003 218 1003 z "},"˜":{"ha":540,"x_min":60,"x_max":474,"o":"m 122 929 l 60 985 q 138 1060 107 1046 q 199 1074 168 1074 q 256 1061 229 1074 q 305 1035 282 1049 q 349 1022 328 1022 q 380 1033 367 1022 q 410 1065 393 1043 l 474 1004 q 408 944 435 957 q 349 932 381 932 q 287 945 314 932 q 239 971 260 958 q 199 983 218 983 q 157 967 174 983 q 122 929 140 950 z "},"¯":{"ha":304,"x_min":11,"x_max":289,"o":"m 11 951 l 11 1064 l 289 1064 l 289 951 l 11 951 z "},"¸":{"ha":389,"x_min":103,"x_max":288,"o":"m 168 -193 q 139 -190 154 -193 q 113 -185 124 -187 l 103 -147 q 116 -149 110 -149 q 128 -150 122 -150 q 174 -133 156 -150 q 193 -93 193 -117 q 180 -62 193 -74 q 138 -53 167 -50 l 168 0 l 226 0 q 288 -79 288 -18 q 276 -128 288 -101 q 238 -174 264 -154 q 168 -193 211 -193 z "},"˛":{"ha":389,"x_min":94,"x_max":294,"o":"m 225 -189 q 128 -157 161 -189 q 94 -81 94 -125 q 129 -15 94 -29 q 224 -4 164 -1 l 257 -56 q 213 -64 228 -53 q 197 -94 197 -75 q 219 -133 197 -119 q 261 -146 242 -146 q 280 -145 272 -146 q 294 -143 288 -144 l 288 -176 q 257 -185 274 -182 q 225 -189 240 -189 z "}}}
